<?xml version="1.0" encoding="UTF-8" standalone="no"?>
<!-- Creator: CorelDRAW -->

<svg
   xml:space="preserve"
   width="215.9mm"
   height="279.4mm"
   version="1.1"
   style="shape-rendering:geometricPrecision; text-rendering:geometricPrecision; image-rendering:optimizeQuality; fill-rule:evenodd; clip-rule:evenodd"
   viewBox="0 0 21590 27940"
   id="svg42"
   sodipodi:docname="brochure9.svg"
   inkscape:version="1.3.2 (091e20e, 2023-11-25, custom)"
   xmlns:inkscape="http://www.inkscape.org/namespaces/inkscape"
   xmlns:sodipodi="http://sodipodi.sourceforge.net/DTD/sodipodi-0.dtd"
   xmlns="http://www.w3.org/2000/svg"
   xmlns:svg="http://www.w3.org/2000/svg"><sodipodi:namedview
   id="namedview42"
   pagecolor="#ffffff"
   bordercolor="#000000"
   borderopacity="0.25"
   inkscape:showpageshadow="2"
   inkscape:pageopacity="0.0"
   inkscape:pagecheckerboard="0"
   inkscape:deskcolor="#d1d1d1"
   inkscape:document-units="mm"
   inkscape:zoom="1.0132576"
   inkscape:cx="407.59625"
   inkscape:cy="527.99999"
   inkscape:window-width="2400"
   inkscape:window-height="1284"
   inkscape:window-x="-9"
   inkscape:window-y="-1"
   inkscape:window-maximized="1"
   inkscape:current-layer="Capa_x0020_1" />
 <defs
   id="defs1">
  <style
   type="text/css"
   id="style1">
   <![CDATA[
    .fil0 {fill:#496C9D;fill-rule:nonzero}
    .fil1 {fill:#9DC5FA;fill-rule:nonzero}
    .fil2 {fill:white;fill-rule:nonzero}
   ]]>
  </style>
 </defs>
 <g
   id="Capa_x0020_1"
   inkscape:label="Capa 1">
  <metadata
   id="CorelCorpID_0Corel-Layer" />
  <polygon
   class="fil0"
   points="-0,27940 21590,27940 21590,0 -0,0 "
   id="polygon1" />
  <g
   id="_2387729763312">
   <path
   class="fil1"
   d="M4499.44 9321.99c-1206.46,-1206.46 -2799.28,-1886.12 -4499.44,-1923.57l0 137.44c3480.48,79.24 6287.5,2934.94 6287.5,6434.15 0,3499.18 -2807.02,6354.88 -6287.5,6434.12l0 137.45c1700.2,-37.45 3292.98,-717.13 4499.44,-1923.61 1241.54,-1241.5 1925.29,-2892.22 1925.29,-4647.96 0,-1755.81 -683.75,-3406.49 -1925.29,-4648.02z"
   id="path1" />
  </g>
  <g
   id="_2387729763696">
   <path
   class="fil1"
   d="M4927.35 8618.11c-33.76,0 -61.46,-26.96 -62.16,-60.86 -0.74,-34.29 26.53,-62.76 60.82,-63.5 39.97,-0.84 80.01,-1.27 120.15,-1.27 34.36,0 65.09,27.87 65.09,62.23 0,34.33 -24.91,62.2 -59.27,62.2 -0.67,0 -7.09,-0.07 -7.76,-0.07 -37.32,0 -76.45,0.42 -115.53,1.27l-1.34 0zm-4927.35 7438.09l0 -232.1c16.15,6.08 29.75,18.83 36.36,36.25 14.57,38.63 29.57,76.94 44.98,115.04 12.88,31.82 -2.47,68.09 -34.29,80.97 -7.65,3.07 -15.55,4.55 -23.32,4.55 -8.21,0 -16.27,-1.63 -23.73,-4.71zm0 -3877.42l0 -197.05c2.09,0.56 4.17,1.23 6.24,2.02 32.14,12.2 48.22,48.08 36.02,80.18 -14.46,38.09 -28.57,76.36 -42.26,114.85zm5487.73 -3544.23c-1.69,0 -3.31,-0.04 -5.08,-0.18 -40.81,-3.32 -81.77,-6.14 -122.9,-8.54 -34.22,-2.01 -60.4,-31.39 -58.39,-65.72 2.01,-34.22 29.99,-60.08 65.69,-58.38 41.94,2.43 83.89,5.32 125.69,8.67 34.19,2.79 59.66,32.78 56.94,67.03 -2.68,32.49 -29.88,57.12 -61.95,57.12zm-995.64 10.26c-31.54,0 -58.53,-23.85 -61.81,-55.91 -3.46,-34.12 21.42,-64.67 55.6,-68.12 41.73,-4.24 83.54,-7.94 125.52,-11.29 35.28,-2.37 64.17,22.89 66.88,57.08 2.69,34.22 -22.89,64.17 -57.07,66.88 -41.1,3.25 -81.95,6.95 -122.81,11.08 -2.15,0.18 -4.27,0.28 -6.31,0.28zm1428.43 42.19c-3.28,0 -6.6,-0.24 -9.95,-0.77 -40.5,-6.56 -81.1,-12.7 -121.85,-18.35 -34.07,-4.65 -57.82,-36.05 -53.05,-70.06 4.65,-34.01 35.49,-58.1 70.06,-53.06 41.7,5.75 83.29,12.03 124.63,18.7 33.94,5.47 56.94,37.4 51.47,71.3 -4.9,30.51 -31.32,52.24 -61.31,52.24zm-1859.88 19.34c-29.38,0 -55.56,-20.96 -61.1,-50.91 -6.24,-33.72 16.12,-66.18 49.85,-72.42 41.24,-7.59 82.65,-14.75 124.28,-21.38 34.08,-5.68 65.76,17.74 71.19,51.61 5.4,33.9 -17.67,65.76 -51.61,71.15 -40.57,6.53 -81,13.44 -121.25,20.89 -3.84,0.74 -7.58,1.06 -11.36,1.06zm2287.1 67.94c-5.01,0 -9.99,-0.63 -15.03,-1.83 -39.76,-9.85 -79.7,-19.19 -119.91,-28.12 -33.52,-7.48 -54.65,-40.67 -47.24,-74.19 7.55,-33.51 41.13,-54.33 74.23,-47.24 41.13,9.18 82.05,18.77 122.8,28.83 33.33,8.25 53.69,41.98 45.43,75.31 -6.98,28.3 -32.38,47.24 -60.28,47.24zm-2712.48 28.08c-27.44,0 -52.53,-18.27 -59.97,-46 -8.93,-33.23 10.72,-67.27 43.89,-76.2 40.49,-10.86 81.17,-21.31 122.09,-31.33 32.85,-8.07 66.96,12.21 75.18,45.65 8.11,33.34 -12.28,66.96 -45.69,75.18 -39.93,9.77 -79.76,19.97 -119.27,30.59 -5.43,1.44 -10.9,2.11 -16.23,2.11zm3131.08 93.38c-6.56,0 -13.16,-1.02 -19.72,-3.21 -38.84,-12.98 -77.96,-25.61 -117.23,-37.71 -32.81,-10.12 -51.19,-44.91 -41.13,-77.75 10.09,-32.84 44.52,-51.26 77.79,-41.1 40.25,12.42 80.22,25.29 120.05,38.66 32.52,10.94 50.13,46.15 39.19,78.67 -8.68,26.07 -32.95,42.44 -58.95,42.44zm-3547.46 37.12c-25.51,0 -49.5,-15.84 -58.53,-41.24 -11.6,-32.35 5.29,-67.91 37.57,-79.49 39.66,-14.18 79.48,-27.9 119.56,-41.27 32.53,-10.62 67.77,6.81 78.63,39.41 10.8,32.56 -6.8,67.76 -39.4,78.63 -39.12,12.98 -78.11,26.46 -116.88,40.32 -6.91,2.47 -14.04,3.64 -20.95,3.64zm3954.57 117.79c-8.19,0 -16.51,-1.59 -24.49,-5.05 -37.5,-16.01 -75.31,-31.68 -113.27,-46.88 -31.89,-12.74 -47.42,-48.93 -34.68,-80.79 12.7,-31.99 48.82,-47.48 80.82,-34.68 38.91,15.53 77.58,31.58 116.1,48.09 31.57,13.47 46.18,50.02 32.67,81.6 -10.09,23.56 -33.06,37.71 -57.15,37.71zm-4359.49 46.21c-23.74,0 -46.32,-13.62 -56.69,-36.62 -14.15,-31.29 -0.25,-68.12 31.08,-82.23 38.38,-17.29 76.87,-34.22 115.67,-50.73 31.61,-13.55 68.06,1.2 81.53,32.85 13.48,31.57 -1.27,68.12 -32.84,81.52 -37.96,16.16 -75.71,32.74 -113.24,49.67 -8.33,3.78 -17.01,5.54 -25.51,5.54zm4752.3 140.9c-9.77,0 -19.64,-2.29 -28.96,-7.16 -36.12,-19.05 -72.53,-37.75 -109.29,-55.99 -30.69,-15.27 -43.28,-52.56 -27.97,-83.36 15.31,-30.72 52.52,-43.35 83.36,-27.97 37.57,18.69 74.86,37.74 111.97,57.32 30.34,16.02 42.01,53.59 25.96,84 -11.14,21.13 -32.7,33.16 -55.07,33.16zm-5142.51 55.25c-21.9,0 -43.18,-11.57 -54.54,-32.11 -16.54,-30.12 -5.64,-67.87 24.42,-84.52 36.79,-20.29 73.83,-40.25 111.05,-59.8 30.48,-16.08 68.02,-4.3 83.93,26.11 16.01,30.37 4.3,67.94 -26.11,83.89 -36.51,19.19 -72.71,38.8 -108.76,58.74 -9.53,5.22 -19.86,7.69 -29.99,7.69zm5519.28 163.01c-11.43,0 -22.96,-3.13 -33.3,-9.7 -34.61,-21.9 -69.43,-43.46 -104.53,-64.66 -29.39,-17.71 -38.87,-55.99 -21.13,-85.37 17.78,-29.42 55.99,-38.91 85.37,-21.13 35.95,21.69 71.62,43.74 106.96,66.25 29.04,18.38 37.58,56.83 19.12,85.79 -11.81,18.63 -31.92,28.82 -52.49,28.82zm-5892.06 63.89c-20.11,0 -39.83,-9.7 -51.86,-27.76 -19.01,-28.58 -11.25,-67.2 17.36,-86.18 35.03,-23.29 70.31,-46.18 105.9,-68.69 29.18,-18.27 67.46,-9.6 85.76,19.37 18.35,29.03 9.67,67.38 -19.36,85.79 -34.72,21.91 -69.25,44.31 -103.44,67.1 -10.58,7.02 -22.54,10.37 -34.36,10.37zm6250.34 184.01c-13.01,0 -26.1,-4.06 -37.36,-12.49 -32.77,-24.66 -65.75,-49 -99.13,-72.92 -27.87,-20.03 -34.32,-58.87 -14.28,-86.74 19.96,-27.94 58.77,-34.4 86.78,-14.29 34.11,24.52 67.91,49.35 101.42,74.61 27.45,20.64 32.92,59.62 12.28,87.07 -12.21,16.22 -30.83,24.76 -49.71,24.76zm-6603.64 72.04c-18.42,0 -36.62,-8.15 -48.9,-23.71 -21.24,-26.99 -16.62,-66.04 10.34,-87.27 33.02,-26 66.35,-51.69 100.04,-76.95 27.38,-20.56 66.36,-15.13 87,12.46 20.67,27.44 15.06,66.43 -12.42,86.99 -32.84,24.66 -65.47,49.74 -97.65,75.11 -11.39,8.99 -25.01,13.37 -38.41,13.37zm6941.04 203.98c-14.71,0 -29.46,-5.16 -41.31,-15.67 -30.66,-27.23 -61.67,-54.15 -92.99,-80.68 -26.18,-22.15 -29.46,-61.38 -7.24,-87.59 22.09,-26.18 61.25,-29.53 87.6,-7.24 32.07,27.13 63.82,54.65 95.21,82.52 25.69,22.82 27.98,62.09 5.23,87.77 -12.35,13.86 -29.39,20.89 -46.5,20.89zm-7272.62 79.44c-16.69,0 -33.34,-6.7 -45.61,-19.93 -23.36,-25.19 -21.84,-64.52 3.35,-87.84 30.83,-28.54 61.94,-56.73 93.38,-84.6 25.57,-22.82 64.91,-20.57 87.73,5.29 22.76,25.68 20.46,64.98 -5.29,87.74 -30.73,27.27 -61.21,54.82 -91.3,82.76 -11.96,11.11 -27.13,16.58 -42.26,16.58zm7586.87 222.67c-16.33,0 -32.59,-6.35 -44.8,-19.05 -28.5,-29.63 -57.25,-58.95 -86.39,-87.91 -24.31,-24.27 -24.42,-63.64 -0.22,-87.98 24.24,-24.17 63.65,-24.41 87.99,-0.18 29.77,29.71 59.16,59.62 88.23,89.86 23.81,24.76 23,64.13 -1.7,87.91 -12.1,11.6 -27.62,17.35 -43.11,17.35zm-7894.53 86.22c-15.03,0 -30.16,-5.39 -42.05,-16.44 -25.33,-23.24 -26.92,-62.54 -3.67,-87.8 28.44,-30.91 57.22,-61.42 86.29,-91.73 23.74,-24.76 63.08,-25.57 87.91,-1.69 24.73,23.78 25.51,63.15 1.7,87.91 -28.47,29.57 -56.62,59.48 -84.46,89.72 -12.2,13.29 -28.96,20.03 -45.72,20.03zm8183.85 240.28c-18.07,0 -35.95,-7.8 -48.23,-22.82 -26,-31.83 -52.31,-63.4 -79.09,-94.69 -22.3,-26.11 -19.19,-65.3 6.91,-87.67 26.04,-22.15 65.27,-19.22 87.67,6.92 27.27,32 54.22,64.2 80.82,96.73 21.73,26.6 17.78,65.76 -8.82,87.49 -11.53,9.42 -25.5,14.04 -39.26,14.04zm-8465.79 92.15c-13.37,0 -26.91,-4.31 -38.27,-13.23 -26.99,-21.14 -31.79,-60.22 -10.62,-87.25 25.82,-33.02 52.03,-65.82 78.63,-98.31 21.66,-26.46 60.78,-30.52 87.49,-8.68 26.53,21.73 30.48,60.92 8.68,87.49 -25.97,31.78 -51.61,63.81 -76.91,96.13 -12.27,15.66 -30.55,23.85 -49,23.85zm8728.01 256.46c-19.72,0 -39.16,-9.41 -51.26,-26.88 -23.32,-33.83 -47.1,-67.34 -71.19,-100.61 -20.18,-27.76 -13.97,-66.67 13.83,-86.82 27.69,-20.21 66.6,-13.97 86.81,13.83 24.73,34.01 49.01,68.37 72.92,103.05 19.51,28.22 12.39,66.95 -15.91,86.43 -10.76,7.41 -23.07,11 -35.2,11zm-8982.36 97.34c-11.71,0 -23.6,-3.36 -34.11,-10.27 -28.65,-18.87 -36.62,-57.43 -17.75,-86.08 23.07,-35.1 46.64,-69.88 70.56,-104.31 19.43,-28.26 58.17,-35.42 86.53,-15.67 28.15,19.55 35.21,58.28 15.67,86.5 -23.39,33.66 -46.32,67.6 -68.94,101.82 -11.96,18.16 -31.75,28.01 -51.96,28.01zm9215.86 271.46c-21.48,0 -42.37,-11.11 -53.9,-31.08 -20.61,-35.67 -41.6,-70.98 -62.98,-106.15 -17.85,-29.32 -8.5,-67.56 20.82,-85.41 29.46,-17.81 67.66,-8.5 85.44,20.81 21.87,35.88 43.36,72.08 64.42,108.55 17.18,29.74 6.98,67.77 -22.76,84.95 -9.8,5.65 -20.46,8.33 -31.04,8.33zm-9440.76 101.39c-10.12,0 -20.39,-2.51 -29.84,-7.66 -30.13,-16.58 -41.14,-54.33 -24.59,-84.45 20.21,-36.8 40.85,-73.28 61.84,-109.54 17.18,-29.63 55.14,-39.94 85.02,-22.58 29.67,17.25 39.83,55.25 22.58,85.02 -20.53,35.38 -40.68,71.02 -60.4,106.96 -11.36,20.57 -32.63,32.25 -54.61,32.25zm9643.78 285.18c-23.31,0 -45.58,-13.12 -56.19,-35.52 -17.68,-37.22 -35.7,-74.12 -54.23,-110.81 -15.48,-30.66 -3.17,-68.05 27.45,-83.54 30.59,-15.63 67.98,-3.17 83.54,27.45 19.01,37.64 37.5,75.53 55.56,113.59 14.75,31.01 1.52,68.12 -29.53,82.8 -8.6,4.09 -17.67,6.03 -26.6,6.03zm-9837.8 104.32c-8.51,0 -17.15,-1.76 -25.44,-5.47 -31.33,-14.11 -45.3,-50.9 -31.22,-82.23 17.18,-38.24 34.75,-76.24 52.78,-113.95 14.67,-31.04 51.71,-44.27 82.79,-29.39 31.05,14.75 44.21,51.86 29.39,82.8 -17.53,37.01 -34.71,74.16 -51.54,111.55 -10.37,23 -33.02,36.69 -56.76,36.69zm10008.97 297.6c-25.08,0 -48.75,-15.27 -58.17,-40.18 -14.57,-38.49 -29.63,-76.8 -45.09,-114.93 -12.94,-31.75 2.4,-68.05 34.22,-81 31.58,-12.74 68.02,2.36 81,34.25 15.84,38.98 31.26,78.25 46.21,117.72 12.14,32.07 -4.05,67.99 -36.19,80.16 -7.23,2.71 -14.64,3.98 -21.98,3.98zm137.94 414.27c-27.03,0 -51.86,-17.67 -59.73,-44.94 -11.43,-39.45 -23.21,-78.82 -35.52,-117.97 -10.27,-32.78 7.94,-67.7 40.67,-77.93 32.99,-10.41 67.77,8.01 77.97,40.67 12.56,40.11 24.69,80.33 36.37,120.76 9.52,32.95 -9.53,67.45 -42.51,76.98 -5.75,1.65 -11.54,2.43 -17.25,2.43zm103.64 423.54c-28.96,0 -54.89,-20.32 -60.89,-49.84 -8.14,-40.33 -16.68,-80.4 -25.82,-120.34 -7.62,-33.51 13.3,-66.78 46.78,-74.43 33.51,-7.83 66.85,13.16 74.44,46.74 9.34,40.92 18.13,82.09 26.52,123.37 6.81,33.65 -14.99,66.43 -48.64,73.3 -4.13,0.85 -8.33,1.2 -12.39,1.2zm69.15 430.43c-31.08,0 -57.89,-23.25 -61.67,-54.82 -4.87,-40.89 -10.19,-81.57 -16.05,-122.1 -4.83,-33.94 18.77,-65.48 52.78,-70.38 33.86,-4.97 65.4,18.77 70.38,52.74 5.92,41.56 11.39,83.19 16.36,125.03 4.1,34.11 -20.24,65.01 -54.39,69.11 -2.47,0.28 -4.98,0.42 -7.41,0.42zm34.39 434.59c-33.23,0 -60.74,-26.22 -62.05,-59.73 -1.66,-41.1 -3.7,-82.16 -6.21,-123.08 -2.12,-34.29 23.99,-63.75 58.25,-65.87 35.06,-0.63 63.78,23.99 65.86,58.21 2.61,41.91 4.66,83.79 6.31,125.87 1.34,34.29 -25.36,63.22 -59.69,64.52 -0.77,0.08 -1.62,0.08 -2.47,0.08zm-0.14 435.89c-0.84,0 -1.69,0 -2.54,-0.07 -34.32,-1.34 -61.03,-30.24 -59.62,-64.6 1.63,-40.88 2.79,-81.91 3.53,-122.94 0.6,-34.32 29.07,-61.45 63.25,-61.1 34.29,0.6 61.71,28.96 61.07,63.29 -0.71,42.01 -1.98,83.89 -3.63,125.73 -1.34,33.44 -28.9,59.69 -62.06,59.69zm-34.78 434.51c-2.51,0 -4.98,-0.1 -7.52,-0.42 -34.07,-4.13 -58.34,-35.14 -54.29,-69.21 4.91,-40.68 9.42,-81.46 13.37,-122.38 3.25,-34.15 32.78,-58.78 67.88,-55.88 34.18,3.28 59.19,33.69 55.84,67.87 -4.06,41.91 -8.57,83.68 -13.58,125.34 -3.85,31.58 -30.69,54.68 -61.7,54.68zm-69.71 430.36c-4.13,0 -8.25,-0.43 -12.45,-1.27 -33.62,-6.81 -55.35,-39.65 -48.51,-73.27 8.15,-40.22 15.91,-80.51 23.21,-121.08 6.18,-33.76 38.42,-56.27 72.25,-50.16 33.8,6.14 56.2,38.52 50.13,72.25 -7.51,41.41 -15.41,82.72 -23.78,123.75 -5.96,29.46 -31.89,49.78 -60.85,49.78zm-104.32 423.37c-5.68,0 -11.53,-0.78 -17.28,-2.44 -32.99,-9.59 -51.97,-44.06 -42.44,-77.04 11.39,-39.34 22.4,-78.85 32.91,-118.64 8.79,-33.27 43.29,-52.81 75.96,-44.24 33.19,8.75 52.98,42.79 44.23,75.95 -10.72,40.75 -21.97,81.25 -33.62,121.53 -7.9,27.2 -32.73,44.88 -59.76,44.88zm-138.11 413.52c-7.34,0 -14.82,-1.27 -22.12,-4.05 -32.1,-12.21 -48.19,-48.09 -35.98,-80.19 14.57,-38.31 28.71,-76.84 42.37,-115.61 11.43,-32.42 47.06,-49.17 79.3,-38.03 32.42,11.43 49.43,46.96 38,79.31 -14.01,39.76 -28.54,79.23 -43.47,118.53 -9.42,24.8 -33.02,40.04 -58.1,40.04zm-170.85 400.12c-8.92,0 -18.03,-1.94 -26.67,-6.06 -31.01,-14.75 -44.2,-51.86 -29.39,-82.8 17.57,-36.94 34.68,-74.01 51.37,-111.44 13.86,-31.33 50.48,-45.58 82.09,-31.44 31.33,13.97 45.47,50.7 31.47,82.09 -17.08,38.39 -34.68,76.45 -52.71,114.2 -10.62,22.4 -32.91,35.45 -56.16,35.45zm-9735.64 103.83c-22.83,0 -44.77,-12.56 -55.67,-34.29 -18.84,-37.65 -37.29,-75.46 -55.32,-113.49 -14.74,-31.01 -1.51,-68.12 29.5,-82.8 31.08,-14.78 68.12,-1.52 82.83,29.49 17.67,37.29 35.73,74.26 54.22,111.06 15.35,30.72 2.89,68.05 -27.76,83.46 -9,4.45 -18.45,6.57 -27.8,6.57zm9532.97 281.48c-10.58,0 -21.31,-2.68 -31.15,-8.36 -29.7,-17.25 -39.83,-55.28 -22.58,-85.02 20.53,-35.35 40.61,-71.05 60.29,-106.97 16.44,-30.12 54.26,-41.24 84.39,-24.65 30.12,16.43 41.17,54.25 24.66,84.38 -20.15,36.79 -40.75,73.34 -61.74,109.64 -11.54,19.86 -32.42,30.98 -53.87,30.98zm-9321.45 100.47c-20.99,0 -41.45,-10.62 -53.2,-29.85 -21.83,-35.87 -43.28,-72.14 -64.34,-108.62 -17.18,-29.77 -6.99,-67.77 22.79,-84.95 29.59,-17.18 67.73,-7.09 84.91,22.76 20.6,35.66 41.52,71.05 62.9,106.22 17.85,29.32 8.5,67.56 -20.81,85.41 -10.09,6.14 -21.24,9.03 -32.25,9.03zm9088.37 267.4c-12.21,0 -24.48,-3.56 -35.28,-10.97 -28.22,-19.58 -35.35,-58.24 -15.84,-86.53 23.32,-33.77 46.25,-67.7 68.83,-101.99 18.94,-28.61 57.5,-36.55 86.11,-17.75 28.65,18.88 36.62,57.44 17.71,86.12 -23.07,35.03 -46.49,69.81 -70.31,104.28 -12.06,17.49 -31.5,26.84 -51.22,26.84zm-8846.89 96.1c-19.26,0 -38.28,-8.89 -50.41,-25.68 -24.7,-34.12 -48.93,-68.41 -72.85,-103.08 -19.47,-28.23 -12.38,-66.96 15.91,-86.47 28.15,-19.47 66.92,-12.31 86.46,15.91 23.32,33.83 47.07,67.42 71.16,100.68 20.14,27.8 13.97,66.71 -13.86,86.82 -11.05,8.01 -23.78,11.82 -36.41,11.82zm8584.88 252.1c-13.76,0 -27.73,-4.59 -39.26,-14.01 -26.6,-21.73 -30.55,-60.89 -8.82,-87.49 25.93,-31.75 51.57,-63.82 76.8,-96.17 21.09,-27.09 60.11,-31.96 87.28,-10.76 27.05,21.14 31.85,60.22 10.72,87.25 -25.86,33.09 -51.96,65.86 -78.49,98.35 -12.28,15.06 -30.17,22.83 -48.23,22.83zm-8315.15 90.76c-17.53,0 -34.96,-7.4 -47.27,-21.8 -27.27,-31.92 -54.22,-64.2 -80.82,-96.83 -21.66,-26.57 -17.67,-65.76 8.92,-87.49 26.71,-21.73 65.83,-17.61 87.49,8.92 26,31.89 52.36,63.47 78.99,94.65 22.3,26.14 19.19,65.41 -6.91,87.7 -11.72,9.95 -26.04,14.85 -40.4,14.85zm8026.16 235.41c-15.49,0 -31.01,-5.78 -43.11,-17.35 -24.7,-23.82 -25.51,-63.15 -1.7,-87.92 28.4,-29.59 56.52,-59.51 84.21,-89.74 23.21,-25.26 62.48,-27.02 87.84,-3.85 25.33,23.22 27.03,62.55 3.85,87.88 -28.44,30.97 -57.15,61.63 -86.29,91.9 -12.21,12.7 -28.47,19.08 -44.8,19.08zm-7729.89 84.56c-15.88,0 -31.79,-5.99 -43.92,-18.09 -29.74,-29.67 -59.2,-59.73 -88.27,-90.1 -23.74,-24.77 -22.9,-64.17 1.94,-87.91 24.69,-23.68 63.99,-22.9 87.91,1.94 28.37,29.63 57.08,58.98 86.22,87.91 24.27,24.3 24.41,63.64 0.18,87.98 -12.21,12.17 -28.12,18.27 -44.06,18.27zm7415.46 217.67c-17.15,0 -34.26,-7.02 -46.54,-20.92 -22.75,-25.68 -20.46,-64.98 5.3,-87.74 30.72,-27.27 61.13,-54.89 91.19,-82.83 25.08,-23.25 64.42,-21.84 87.91,3.28 23.32,25.19 21.87,64.56 -3.28,87.91 -30.76,28.54 -61.91,56.77 -93.38,84.63 -11.82,10.52 -26.53,15.67 -41.2,15.67zm-7094.72 77.54c-14.29,0 -28.61,-4.87 -40.25,-14.82 -32.07,-27.27 -63.75,-54.75 -95.07,-82.55 -25.69,-22.86 -28.01,-62.12 -5.23,-87.8 22.86,-25.76 62.09,-27.98 87.78,-5.23 30.72,27.31 61.7,54.23 93.02,80.86 26.18,22.23 29.32,61.53 7.09,87.63 -12.31,14.5 -29.81,21.91 -47.34,21.91zm6757.07 198.65c-18.87,0 -37.53,-8.54 -49.74,-24.77 -20.64,-27.44 -15.17,-66.43 12.28,-87.06 32.84,-24.7 65.4,-49.78 97.58,-75.29 27.05,-21.16 66.18,-16.61 87.34,10.27 21.28,26.95 16.65,66.08 -10.23,87.38 -33.05,25.97 -66.32,51.65 -99.9,76.98 -11.15,8.43 -24.35,12.49 -37.33,12.49zm-6413.92 69.85c-12.56,0 -25.26,-3.85 -36.23,-11.71 -34.19,-24.56 -67.95,-49.43 -101.46,-74.76 -27.38,-20.71 -32.77,-59.69 -12.07,-87.13 20.64,-27.38 59.62,-32.85 87.11,-12.07 32.66,24.7 65.68,49 99.02,73.03 27.87,20.03 34.25,58.91 14.15,86.78 -12.14,16.86 -31.19,25.86 -50.52,25.86zm6055.08 178.43c-20.57,0 -40.71,-10.19 -52.57,-28.89 -18.38,-28.96 -9.77,-67.42 19.26,-85.8 34.72,-22.04 69.22,-44.37 103.4,-67.2 28.58,-19.08 67.14,-11.36 86.19,17.22 19.08,28.61 11.36,67.17 -17.22,86.22 -35.03,23.31 -70.27,46.28 -105.83,68.79 -10.34,6.56 -21.87,9.66 -33.23,9.66zm-5691.69 61.56c-11,0 -22.04,-2.93 -32.13,-8.99 -35.92,-21.73 -71.51,-43.82 -106.86,-66.29 -29,-18.42 -37.57,-56.83 -19.12,-85.8 18.41,-28.96 56.9,-37.46 85.8,-19.12 34.6,21.98 69.46,43.61 104.56,64.84 29.39,17.78 38.8,55.99 20.99,85.38 -11.64,19.29 -32.17,29.98 -53.24,29.98zm5313.86 157.06c-22.33,0 -43.95,-12.07 -55.07,-33.27 -16.01,-30.34 -4.3,-67.94 26.11,-83.89 36.44,-19.19 72.56,-38.73 108.51,-58.7 30.24,-16.83 67.88,-5.86 84.56,24.09 16.73,30.06 5.89,67.88 -24.09,84.57 -36.8,20.46 -73.91,40.49 -111.16,60.04 -9.24,4.87 -19.12,7.16 -28.86,7.16zm-4932.43 52.85c-9.32,0 -18.84,-2.12 -27.69,-6.57 -37.54,-18.69 -74.79,-37.88 -111.84,-57.36 -30.37,-16.05 -42.01,-53.62 -26,-84.03 16.02,-30.37 53.56,-42.02 84.04,-26 36.19,19.12 72.6,37.82 109.29,56.16 30.72,15.31 43.21,52.64 27.87,83.36 -10.87,21.81 -32.85,34.44 -55.67,34.44zm4537.92 134.72c-24.17,0 -47.13,-14.15 -57.19,-37.82 -13.51,-31.57 1.27,-68.12 32.85,-81.56 37.92,-16.16 75.56,-32.77 113.03,-49.78 31.29,-14.21 68.12,-0.31 82.34,30.98 14.14,31.25 0.31,68.12 -30.98,82.3 -38.31,17.39 -76.9,34.4 -115.71,50.91 -7.97,3.38 -16.23,4.97 -24.34,4.97zm-4140.98 43.6c-7.76,0 -15.59,-1.48 -23.24,-4.51 -38.81,-15.66 -77.47,-31.68 -115.93,-48.16 -31.57,-13.47 -46.18,-50.02 -32.66,-81.59 13.47,-31.58 50.16,-46.32 81.59,-32.67 37.61,16.09 75.43,31.75 113.49,47.06 31.82,12.81 47.24,49.07 34.43,80.93 -9.77,24.23 -33.09,38.94 -57.68,38.94zm3732.43 111.41c-26.07,0 -50.34,-16.47 -59.02,-42.58 -10.83,-32.52 6.81,-67.73 39.4,-78.63 39.09,-12.98 78,-26.46 116.7,-40.43 32.35,-11.71 67.95,5.22 79.59,37.46 11.61,32.35 -5.15,67.95 -37.47,79.59 -39.65,14.22 -79.51,28.08 -119.59,41.42 -6.52,2.11 -13.12,3.17 -19.61,3.17zm-3321.69 34.61c-6.06,0 -12.27,-0.92 -18.45,-2.79 -40.14,-12.45 -80.15,-25.4 -119.98,-38.73 -32.56,-11.01 -50.02,-46.22 -39.08,-78.81 10.97,-32.42 46,-49.85 78.81,-39.13 38.84,13.13 77.89,25.69 117.15,37.89 32.81,10.2 51.12,44.98 40.93,77.86 -8.26,26.63 -32.85,43.71 -59.38,43.71zm2902.69 86.47c-27.94,0 -53.37,-19.02 -60.36,-47.38 -8.15,-33.38 12.28,-67.03 45.58,-75.22 39.9,-9.77 79.73,-20.03 119.28,-30.72 32.88,-8.86 67.2,10.62 76.23,43.81 8.93,33.16 -10.69,67.28 -43.81,76.27 -40.5,10.94 -81.18,21.45 -122.06,31.47 -4.98,1.2 -9.95,1.77 -14.86,1.77zm-2481.26 25.85c-4.48,0 -9.1,-0.49 -13.65,-1.51 -41.06,-9.18 -81.99,-18.84 -122.66,-28.93 -33.34,-8.26 -53.66,-41.95 -45.4,-75.28 8.18,-33.34 41.76,-53.41 75.28,-45.41 39.83,9.85 79.76,19.27 119.98,28.3 33.51,7.51 54.57,40.74 47.06,74.26 -6.53,28.89 -32.14,48.57 -60.61,48.57zm2054.01 60.89c-30.02,0 -56.4,-21.73 -61.34,-52.28 -5.47,-33.94 17.6,-65.83 51.5,-71.26 40.61,-6.56 81.11,-13.55 121.36,-21.03 33.41,-6.42 66.18,16.02 72.42,49.85 6.28,33.76 -16.08,66.18 -49.84,72.43 -41.21,7.58 -82.55,14.81 -124.15,21.52 -3.35,0.53 -6.7,0.77 -9.95,0.77zm-1625 16.69c-2.78,0 -5.71,-0.18 -8.57,-0.6 -41.77,-5.75 -83.36,-12.07 -124.78,-18.84 -33.86,-5.5 -56.86,-37.5 -51.36,-71.37 5.47,-33.9 37.11,-57.07 71.4,-51.4 40.47,6.64 81,12.85 121.75,18.49 34,4.66 57.82,36.05 53.05,70.06 -4.3,31.15 -30.9,53.66 -61.49,53.66zm1192.15 35.28c-32.11,0 -59.31,-24.7 -61.92,-57.26 -2.68,-34.25 22.86,-64.17 57.05,-66.89 41.06,-3.24 81.91,-6.94 122.66,-11.18 33.83,-3.03 64.66,21.31 68.23,55.49 3.52,34.19 -21.31,64.74 -55.5,68.23 -41.69,4.27 -83.53,8.08 -125.55,11.43 -1.69,0.11 -3.32,0.18 -4.97,0.18zm-758.33 7.76c-1.2,0 -2.44,-0.04 -3.71,-0.11 -42.09,-2.43 -83.96,-5.39 -125.73,-8.82 -34.25,-2.82 -59.69,-32.84 -56.9,-67.06 2.86,-34.18 32.77,-59.34 67.1,-56.9 40.78,3.38 81.7,6.24 122.8,8.68 34.25,2.01 60.43,31.39 58.42,65.68 -1.94,33.06 -29.32,58.53 -61.98,58.53zm322.75 9.49l-11.46 -0.07c-34.36,0 -62.2,-27.8 -62.2,-62.16 0,-34.36 27.84,-62.2 62.2,-62.2l12.45 0.07c40.18,0 81.28,-0.49 122.34,-1.37 34.86,0.77 62.76,26.53 63.5,60.82 0.71,34.32 -26.49,62.72 -60.85,63.5 -41.88,0.91 -83.82,1.41 -125.98,1.41z"
   id="path2" />
  </g>
  <g
   id="_2387729764656">
   <path
   class="fil1"
   d="M-0 9512.3c2442.31,23.38 4415.14,2009.85 4415.14,4457.69 0,2447.84 -1972.83,4434.31 -4415.14,4457.73l0 1166.9c3094.37,-14.32 5598.46,-2526.89 5598.46,-5624.63 0,-3097.74 -2504.09,-5610.31 -5598.46,-5624.63l0 1166.94z"
   id="path3" />
  </g>
  <path
   class="fil2"
   d="M8597.68 25067.86c-3.88,0 -6.35,-1.76 -7.41,-5.29l-76.2 -259.82 -0.53 -2.12c0,-3.53 1.94,-5.29 5.82,-5.29l64.03 0c3.88,0 6.35,1.76 7.41,5.29l38.1 159.81c0.35,1.06 0.88,1.59 1.59,1.59 0.7,0 1.23,-0.53 1.59,-1.59l39.68 -159.81c1.06,-3.53 3.53,-5.29 7.41,-5.29l55.57 0c3.88,0 6.35,1.76 7.4,5.29l41.81 160.34c0.35,1.06 0.88,1.59 1.59,1.59 0.7,0 1.23,-0.53 1.58,-1.59l41.28 -160.34c1.06,-3.53 3.53,-5.29 7.41,-5.29l63.5 1.06c2.11,0 3.61,0.61 4.5,1.85 0.88,1.23 1.14,2.91 0.79,5.02l-77.26 259.3c-1.06,3.53 -3.35,5.29 -6.88,5.29l-64.03 0c-3.88,0 -6.35,-1.76 -7.41,-5.29l-40.74 -141.82c-0.36,-1.06 -0.88,-1.59 -1.59,-1.59 -0.71,0 -1.24,0.53 -1.59,1.59l-35.98 141.82c-1.06,3.53 -3.53,5.29 -7.41,5.29l-64.03 0zm402.17 0c-3.88,0 -6.35,-1.76 -7.41,-5.29l-76.2 -259.82 -0.53 -2.12c0,-3.53 1.94,-5.29 5.82,-5.29l64.03 0c3.88,0 6.35,1.76 7.41,5.29l38.1 159.81c0.35,1.06 0.88,1.59 1.59,1.59 0.7,0 1.23,-0.53 1.59,-1.59l39.68 -159.81c1.06,-3.53 3.53,-5.29 7.41,-5.29l55.57 0c3.88,0 6.35,1.76 7.4,5.29l41.81 160.34c0.35,1.06 0.88,1.59 1.59,1.59 0.7,0 1.23,-0.53 1.58,-1.59l41.28 -160.34c1.06,-3.53 3.53,-5.29 7.41,-5.29l63.5 1.06c2.11,0 3.61,0.61 4.5,1.85 0.88,1.23 1.14,2.91 0.79,5.02l-77.26 259.3c-1.06,3.53 -3.35,5.29 -6.88,5.29l-64.03 0c-3.88,0 -6.35,-1.76 -7.41,-5.29l-40.74 -141.82c-0.36,-1.06 -0.88,-1.59 -1.59,-1.59 -0.71,0 -1.24,0.53 -1.59,1.59l-35.98 141.82c-1.06,3.53 -3.53,5.29 -7.41,5.29l-64.03 0zm402.17 0c-3.88,0 -6.35,-1.76 -7.41,-5.29l-76.2 -259.82 -0.53 -2.12c0,-3.53 1.94,-5.29 5.82,-5.29l64.03 0c3.88,0 6.35,1.76 7.41,5.29l38.1 159.81c0.35,1.06 0.88,1.59 1.59,1.59 0.7,0 1.23,-0.53 1.59,-1.59l39.68 -159.81c1.06,-3.53 3.53,-5.29 7.41,-5.29l55.57 0c3.88,0 6.35,1.76 7.4,5.29l41.81 160.34c0.35,1.06 0.88,1.59 1.59,1.59 0.7,0 1.23,-0.53 1.58,-1.59l41.28 -160.34c1.06,-3.53 3.53,-5.29 7.41,-5.29l63.5 1.06c2.11,0 3.61,0.61 4.5,1.85 0.88,1.23 1.14,2.91 0.79,5.02l-77.26 259.3c-1.06,3.53 -3.35,5.29 -6.88,5.29l-64.03 0c-3.88,0 -6.35,-1.76 -7.41,-5.29l-40.74 -141.82c-0.36,-1.06 -0.88,-1.59 -1.59,-1.59 -0.71,0 -1.24,0.53 -1.59,1.59l-35.98 141.82c-1.06,3.53 -3.53,5.29 -7.41,5.29l-64.03 0zm356.66 2.12c-11.99,0 -21.96,-3.97 -29.9,-11.91 -7.93,-7.94 -11.9,-17.9 -11.9,-29.9 0,-12.35 3.88,-22.4 11.64,-30.16 7.76,-7.76 17.81,-11.64 30.16,-11.64 12.35,0 22.4,3.88 30.16,11.64 7.77,7.76 11.65,17.81 11.65,30.16 0,12 -3.97,21.96 -11.91,29.9 -7.94,7.94 -17.9,11.91 -29.9,11.91zm95.79 -2.12c-1.77,0 -3.27,-0.62 -4.5,-1.85 -1.24,-1.24 -1.85,-2.74 -1.85,-4.5l0 -357.72c0,-1.76 0.61,-3.26 1.85,-4.5 1.23,-1.23 2.73,-1.85 4.5,-1.85l61.91 0c1.76,0 3.26,0.62 4.5,1.85 1.23,1.24 1.85,2.74 1.85,4.5l0 357.72c0,1.76 -0.62,3.26 -1.85,4.5 -1.24,1.23 -2.74,1.85 -4.5,1.85l-61.91 0zm109.01 105.3c-1.06,0 -1.94,-0.61 -2.65,-1.85 -0.7,-1.23 -1.05,-2.73 -1.05,-4.5l0 -48.68c0,-1.76 0.61,-3.26 1.85,-4.5 1.23,-1.23 2.73,-1.85 4.5,-1.85 14.81,-0.35 26.54,-1.59 35.18,-3.7 8.65,-2.12 15.53,-6.18 20.64,-12.17 5.12,-6 9.09,-14.82 11.91,-26.46 0.35,-0.71 0.35,-1.77 0,-3.18l-86.78 -263.52c-0.36,-0.71 -0.53,-1.59 -0.53,-2.65 0,-3.18 1.94,-4.76 5.82,-4.76l66.14 0c3.88,0 6.35,1.76 7.41,5.29l44.45 171.45c0.35,1.06 0.88,1.59 1.59,1.59 0.7,0 1.23,-0.53 1.59,-1.59l44.45 -171.45c1.06,-3.53 3.52,-5.29 7.41,-5.29l64.55 0c2.12,0 3.62,0.61 4.5,1.85 0.88,1.23 0.97,3.09 0.27,5.56l-91.55 275.16c-8.82,25.76 -17.82,45.07 -26.99,57.95 -9.17,12.87 -22.05,22.31 -38.63,28.31 -16.58,6 -40.04,8.99 -70.38,8.99l-3.7 0zm557.74 -381.53c27.52,0 49.04,8.29 64.56,24.87 15.52,16.58 23.29,39.87 23.29,69.85l0 175.16c0,1.76 -0.62,3.26 -1.86,4.5 -1.23,1.23 -2.73,1.85 -4.49,1.85l-61.92 0c-1.76,0 -3.26,-0.62 -4.49,-1.85 -1.24,-1.24 -1.86,-2.74 -1.86,-4.5l0 -158.75c0,-14.47 -3.7,-25.93 -11.11,-34.4 -7.41,-8.46 -17.29,-12.7 -29.63,-12.7 -12.35,0 -22.4,4.24 -30.17,12.7 -7.76,8.47 -11.64,19.76 -11.64,33.87l0 159.28c0,1.76 -0.61,3.26 -1.85,4.5 -1.23,1.23 -2.73,1.85 -4.5,1.85l-61.38 0c-1.77,0 -3.26,-0.62 -4.5,-1.85 -1.23,-1.24 -1.85,-2.74 -1.85,-4.5l0 -158.75c0,-14.11 -3.88,-25.49 -11.64,-34.13 -7.76,-8.65 -17.82,-12.97 -30.17,-12.97 -11.28,0 -20.72,3.35 -28.31,10.06 -7.58,6.7 -12.08,16.05 -13.49,28.04l0 167.75c0,1.76 -0.62,3.26 -1.85,4.5 -1.24,1.23 -2.74,1.85 -4.5,1.85l-61.91 0c-1.77,0 -3.27,-0.62 -4.5,-1.85 -1.24,-1.24 -1.85,-2.74 -1.85,-4.5l0 -259.29c0,-1.77 0.61,-3.27 1.85,-4.5 1.23,-1.24 2.73,-1.85 4.5,-1.85l61.91 0c1.76,0 3.26,0.61 4.5,1.85 1.23,1.23 1.85,2.73 1.85,4.5l0 20.63c0,1.06 0.35,1.77 1.06,2.12 0.7,0.35 1.41,0 2.11,-1.06 14.47,-21.52 36.87,-32.28 67.21,-32.28 17.64,0 33.07,3.71 46.3,11.12 13.23,7.4 23.37,17.99 30.43,31.75 1.06,2.11 2.29,2.11 3.7,0 7.76,-14.47 18.26,-25.23 31.49,-32.28 13.23,-7.06 28.13,-10.59 44.71,-10.59zm294.23 10.59c0,-1.77 0.61,-3.27 1.85,-4.5 1.23,-1.24 2.73,-1.85 4.5,-1.85l61.91 0c1.76,0 3.26,0.61 4.5,1.85 1.23,1.23 1.85,2.73 1.85,4.5l0 241.3c0,46.21 -13.32,79.2 -39.95,98.95 -26.64,19.76 -60.95,29.64 -102.93,29.64 -12.34,0 -26.1,-0.89 -41.27,-2.65 -3.53,-0.35 -5.29,-2.65 -5.29,-6.88l2.11 -54.5c0,-4.59 2.47,-6.53 7.41,-5.82 12.7,2.11 24.34,3.17 34.93,3.17 22.57,0 39.95,-4.94 52.12,-14.82 12.17,-9.87 18.26,-25.75 18.26,-47.62 0,-1.06 -0.36,-1.68 -1.06,-1.85 -0.71,-0.18 -1.41,0.09 -2.12,0.79 -13.4,14.46 -32.98,21.7 -58.74,21.7 -22.93,0 -44.01,-5.56 -63.23,-16.67 -19.23,-11.11 -32.9,-29.02 -41.01,-53.71 -5.29,-16.23 -7.94,-37.22 -7.94,-62.97 0,-27.52 3.17,-49.92 9.52,-67.21 7.41,-21.52 19.94,-38.8 37.58,-51.86 17.63,-13.05 38.1,-19.58 61.38,-19.58 27.16,0 47.98,8.12 62.44,24.35 0.71,0.7 1.41,0.97 2.12,0.79 0.7,-0.18 1.06,-0.79 1.06,-1.85l0 -12.7zm-4.24 170.92c2.83,-10.58 4.24,-25.05 4.24,-43.39 0,-10.94 -0.36,-19.41 -1.06,-25.4 -0.71,-6 -1.94,-11.65 -3.71,-16.94 -3.17,-9.52 -8.46,-17.19 -15.87,-23.02 -7.41,-5.82 -16.58,-8.73 -27.52,-8.73 -10.58,0 -19.58,2.91 -26.99,8.73 -7.4,5.83 -12.87,13.5 -16.4,23.02 -4.94,10.59 -7.41,24.87 -7.41,42.87 0,19.75 2.12,33.86 6.35,42.33 3.18,9.52 8.73,17.2 16.67,23.02 7.94,5.82 17.37,8.73 28.31,8.73 11.29,0 20.64,-2.91 28.05,-8.73 7.41,-5.82 12.52,-13.32 15.34,-22.49zm255.59 -180.98c12.7,0 22.76,2.47 30.17,7.41 2.82,1.41 3.88,4.06 3.17,7.94l-11.11 60.32c-0.35,4.24 -2.82,5.47 -7.41,3.71 -5.29,-1.77 -11.46,-2.65 -18.52,-2.65 -2.82,0 -6.7,0.35 -11.64,1.06 -12.7,1.06 -23.46,5.73 -32.28,14.02 -8.82,8.29 -13.23,19.32 -13.23,33.08l0 144.46c0,1.76 -0.62,3.26 -1.85,4.5 -1.24,1.23 -2.74,1.85 -4.5,1.85l-61.91 0c-1.77,0 -3.27,-0.62 -4.5,-1.85 -1.24,-1.24 -1.85,-2.74 -1.85,-4.5l0 -259.29c0,-1.77 0.61,-3.27 1.85,-4.5 1.23,-1.24 2.73,-1.85 4.5,-1.85l61.91 0c1.76,0 3.26,0.61 4.5,1.85 1.23,1.23 1.85,2.73 1.85,4.5l0 20.11c0,1.05 0.35,1.76 1.06,2.11 0.7,0.35 1.23,0.18 1.59,-0.53 14.46,-21.16 33.86,-31.75 58.2,-31.75zm168.28 279.93c-29.64,0 -55.04,-7.76 -76.2,-23.28 -21.17,-15.52 -35.63,-36.69 -43.39,-63.5 -4.94,-16.58 -7.41,-34.57 -7.41,-53.98 0,-20.81 2.47,-39.51 7.41,-56.09 8.11,-26.1 22.75,-46.56 43.92,-61.38 21.16,-14.82 46.56,-22.23 76.2,-22.23 28.93,0 53.62,7.32 74.08,21.96 20.46,14.64 34.93,35.02 43.39,61.12 5.65,17.64 8.47,36.16 8.47,55.57 0,19.05 -2.47,36.86 -7.41,53.44 -7.76,27.52 -22.14,49.13 -43.13,64.83 -20.99,15.69 -46.3,23.54 -75.93,23.54zm0 -64.03c11.64,0 21.52,-3.52 29.63,-10.58 8.12,-7.06 13.94,-16.76 17.46,-29.1 2.83,-11.29 4.24,-23.64 4.24,-37.05 0,-14.81 -1.41,-27.34 -4.24,-37.57 -3.88,-11.99 -9.87,-21.34 -17.99,-28.04 -8.11,-6.71 -17.99,-10.06 -29.63,-10.06 -12,0 -21.96,3.35 -29.9,10.06 -7.94,6.7 -13.67,16.05 -17.2,28.04 -2.82,8.47 -4.23,20.99 -4.23,37.57 0,15.88 1.23,28.23 3.7,37.05 3.53,12.34 9.44,22.04 17.73,29.1 8.29,7.06 18.43,10.58 30.43,10.58zm321.21 -205.84c0,-1.77 0.62,-3.27 1.85,-4.5 1.23,-1.24 2.73,-1.85 4.5,-1.85l61.91 0c1.76,0 3.26,0.61 4.5,1.85 1.23,1.23 1.85,2.73 1.85,4.5l0 259.29c0,1.76 -0.62,3.26 -1.85,4.5 -1.24,1.23 -2.74,1.85 -4.5,1.85l-61.91 0c-1.77,0 -3.27,-0.62 -4.5,-1.85 -1.23,-1.24 -1.85,-2.74 -1.85,-4.5l0 -17.99c0,-1.06 -0.35,-1.68 -1.06,-1.85 -0.71,-0.18 -1.41,0.26 -2.12,1.32 -14.11,19.05 -35.98,28.57 -65.61,28.57 -26.82,0 -48.86,-8.11 -66.15,-24.34 -17.29,-16.23 -25.93,-38.98 -25.93,-68.26l0 -176.74c0,-1.77 0.62,-3.27 1.85,-4.5 1.24,-1.24 2.74,-1.85 4.5,-1.85l61.38 0c1.77,0 3.27,0.61 4.5,1.85 1.24,1.23 1.85,2.73 1.85,4.5l0 158.22c0,14.11 3.8,25.58 11.38,34.39 7.59,8.82 18.08,13.23 31.49,13.23 11.99,0 21.87,-3.61 29.63,-10.84 7.76,-7.24 12.52,-16.67 14.29,-28.31l0 -166.69zm360.37 66.67c6.35,17.99 9.52,39.16 9.52,63.5 0,24.34 -3.35,46.39 -10.05,66.15 -8.12,22.58 -20.91,40.48 -38.37,53.71 -17.46,13.23 -39.07,19.84 -64.82,19.84 -25.4,0 -45.16,-8.82 -59.27,-26.46 -0.7,-1.05 -1.41,-1.41 -2.12,-1.05 -0.7,0.35 -1.05,1.05 -1.05,2.11l0 113.25c0,1.76 -0.62,3.26 -1.86,4.49 -1.23,1.24 -2.73,1.86 -4.49,1.86l-61.92 0c-1.76,0 -3.26,-0.62 -4.49,-1.86 -1.24,-1.23 -1.86,-2.73 -1.86,-4.49l0 -357.72c0,-1.77 0.62,-3.27 1.86,-4.5 1.23,-1.24 2.73,-1.85 4.49,-1.85l61.92 0c1.76,0 3.26,0.61 4.49,1.85 1.24,1.23 1.86,2.73 1.86,4.5l0 17.46c0,1.06 0.35,1.67 1.05,1.85 0.71,0.18 1.42,-0.09 2.12,-0.79 14.82,-19.41 35.28,-29.11 61.39,-29.11 24.34,0 45.42,6.79 63.23,20.38 17.82,13.58 30.6,32.54 38.37,56.88zm-80.97 118.54c8.82,-13.76 13.23,-32.46 13.23,-56.1 0,-22.22 -3.7,-39.86 -11.11,-52.91 -8.11,-15.17 -21.17,-22.76 -39.16,-22.76 -16.23,0 -28.4,7.59 -36.51,22.76 -7.41,12.7 -11.11,30.51 -11.11,53.44 0,23.64 3.88,41.98 11.64,55.04 8.11,14.11 20.11,21.16 35.98,21.16 15.88,0 28.22,-6.88 37.04,-20.63zm163.52 82.55c-11.99,0 -21.96,-3.97 -29.9,-11.91 -7.93,-7.94 -11.9,-17.9 -11.9,-29.9 0,-12.35 3.88,-22.4 11.64,-30.16 7.76,-7.76 17.81,-11.64 30.16,-11.64 12.35,0 22.4,3.88 30.16,11.64 7.77,7.76 11.65,17.81 11.65,30.16 0,12 -3.97,21.96 -11.91,29.9 -7.94,7.94 -17.9,11.91 -29.9,11.91zm204.79 2.11c-28.22,0 -52.65,-7.05 -73.29,-21.16 -20.64,-14.11 -35.37,-33.52 -44.19,-58.21 -5.99,-17.64 -8.99,-38.46 -8.99,-62.44 0,-23.64 3,-44.1 8.99,-61.39 8.47,-23.99 23.11,-42.86 43.92,-56.62 20.82,-13.76 45.34,-20.64 73.56,-20.64 28.22,0 53,7.06 74.35,21.17 21.34,14.11 35.54,31.93 42.6,53.45 2.82,8.46 4.23,14.81 4.23,19.05l0 1.05c0,3.18 -1.76,5.12 -5.29,5.83l-60.86 8.99 -1.06 0c-3.17,0 -5.29,-1.76 -6.35,-5.29l-1.58 -8.47c-2.47,-9.17 -7.94,-16.75 -16.41,-22.75 -8.46,-6 -18.52,-9 -30.16,-9 -11.29,0 -20.81,2.83 -28.58,8.47 -7.76,5.64 -13.22,13.41 -16.4,23.28 -3.88,10.59 -5.82,25.05 -5.82,43.39 0,18.35 1.76,32.81 5.29,43.4 3.18,10.58 8.73,18.87 16.67,24.87 7.94,6 17.55,8.99 28.84,8.99 10.94,0 20.55,-2.91 28.84,-8.73 8.29,-5.82 14.02,-13.84 17.2,-24.07 0.35,-0.71 0.53,-1.77 0.53,-3.18 0.35,-0.35 0.53,-0.88 0.53,-1.59 0.35,-4.23 2.82,-5.99 7.4,-5.29l60.86 9.53c3.53,0.7 5.29,2.64 5.29,5.82 0,2.82 -1.06,8.11 -3.17,15.87 -7.41,23.64 -21.79,42.16 -43.13,55.56 -21.34,13.41 -45.95,20.11 -73.82,20.11zm269.35 0c-29.64,0 -55.04,-7.76 -76.2,-23.28 -21.17,-15.52 -35.63,-36.69 -43.39,-63.5 -4.94,-16.58 -7.41,-34.57 -7.41,-53.98 0,-20.81 2.47,-39.51 7.41,-56.09 8.11,-26.1 22.75,-46.56 43.92,-61.38 21.16,-14.82 46.56,-22.23 76.2,-22.23 28.93,0 53.62,7.32 74.08,21.96 20.46,14.64 34.93,35.02 43.39,61.12 5.65,17.64 8.47,36.16 8.47,55.57 0,19.05 -2.47,36.86 -7.41,53.44 -7.76,27.52 -22.14,49.13 -43.13,64.83 -20.99,15.69 -46.3,23.54 -75.93,23.54zm0 -64.03c11.64,0 21.52,-3.52 29.63,-10.58 8.12,-7.06 13.94,-16.76 17.46,-29.1 2.83,-11.29 4.24,-23.64 4.24,-37.05 0,-14.81 -1.41,-27.34 -4.24,-37.57 -3.88,-11.99 -9.87,-21.34 -17.99,-28.04 -8.11,-6.71 -17.99,-10.06 -29.63,-10.06 -12,0 -21.96,3.35 -29.9,10.06 -7.94,6.7 -13.67,16.05 -17.2,28.04 -2.82,8.47 -4.23,20.99 -4.23,37.57 0,15.88 1.23,28.23 3.7,37.05 3.53,12.34 9.44,22.04 17.73,29.1 8.29,7.06 18.43,10.58 30.43,10.58zm464.08 -216.43c27.52,0 49.04,8.29 64.56,24.87 15.52,16.58 23.29,39.87 23.29,69.85l0 175.16c0,1.76 -0.62,3.26 -1.86,4.5 -1.23,1.23 -2.73,1.85 -4.49,1.85l-61.92 0c-1.76,0 -3.26,-0.62 -4.49,-1.85 -1.24,-1.24 -1.86,-2.74 -1.86,-4.5l0 -158.75c0,-14.47 -3.7,-25.93 -11.11,-34.4 -7.41,-8.46 -17.29,-12.7 -29.63,-12.7 -12.35,0 -22.4,4.24 -30.17,12.7 -7.76,8.47 -11.64,19.76 -11.64,33.87l0 159.28c0,1.76 -0.61,3.26 -1.85,4.5 -1.23,1.23 -2.73,1.85 -4.5,1.85l-61.38 0c-1.77,0 -3.26,-0.62 -4.5,-1.85 -1.23,-1.24 -1.85,-2.74 -1.85,-4.5l0 -158.75c0,-14.11 -3.88,-25.49 -11.64,-34.13 -7.76,-8.65 -17.82,-12.97 -30.17,-12.97 -11.28,0 -20.72,3.35 -28.31,10.06 -7.58,6.7 -12.08,16.05 -13.49,28.04l0 167.75c0,1.76 -0.62,3.26 -1.85,4.5 -1.24,1.23 -2.74,1.85 -4.5,1.85l-61.91 0c-1.77,0 -3.27,-0.62 -4.5,-1.85 -1.24,-1.24 -1.85,-2.74 -1.85,-4.5l0 -259.29c0,-1.77 0.61,-3.27 1.85,-4.5 1.23,-1.24 2.73,-1.85 4.5,-1.85l61.91 0c1.76,0 3.26,0.61 4.5,1.85 1.23,1.23 1.85,2.73 1.85,4.5l0 20.63c0,1.06 0.35,1.77 1.06,2.12 0.7,0.35 1.41,0 2.11,-1.06 14.47,-21.52 36.87,-32.28 67.21,-32.28 17.64,0 33.07,3.71 46.3,11.12 13.23,7.4 23.37,17.99 30.43,31.75 1.06,2.11 2.29,2.11 3.7,0 7.76,-14.47 18.26,-25.23 31.49,-32.28 13.23,-7.06 28.13,-10.59 44.71,-10.59z"
   id="path4" />
  <polygon
   class="fil2"
   points="4285.84,2917.94 4384.16,2917.94 4384.16,3515.13 4693.3,3515.13 4693.3,3604.59 4285.84,3604.59 "
   id="polygon4" />
  <polygon
   class="fil2"
   points="4779.33,2917.94 5168.62,2917.94 5168.62,3005.43 4877.65,3005.43 4877.65,3214.81 5158.78,3214.81 5158.78,3302.79 4877.65,3302.79 4877.65,3516.11 5177.93,3516.11 5177.93,3603.6 4779.33,3603.6 "
   id="polygon5" />
  <path
   class="fil2"
   d="M5653.74 3266.43l230.54 0 0 290.97c-84.56,36.72 -168.45,55.07 -251.67,55.07 -113.71,0 -204.55,-33.2 -272.56,-99.55 -67.98,-66.36 -101.99,-148.21 -101.99,-245.5 0,-102.56 35.24,-187.93 105.69,-256.08 70.45,-68.16 158.75,-102.24 264.9,-102.24 38.67,0 75.39,4.16 110.11,12.52 34.74,8.37 78.67,23.68 131.72,45.97l0 100.26c-81.91,-47.52 -163.16,-71.26 -243.77,-71.26 -75.03,0 -138.29,25.54 -189.72,76.66 -51.47,51.12 -77.19,113.87 -77.19,188.28 0,77.96 25.72,141.71 77.19,191.2 51.43,49.46 117.62,74.19 198.54,74.19 39.34,0 86.36,-9 141.08,-27.02l9.35 -2.97 0 -143.01 -132.22 0 0 -87.49z"
   id="path5" />
  <path
   class="fil2"
   d="M7250.68 3445.34l0 108.13c-72.07,39.34 -155.33,58.99 -249.7,58.99 -76.65,0 -141.71,-15.39 -195.12,-46.22 -53.41,-30.8 -95.67,-73.24 -126.82,-127.28 -31.12,-54.08 -46.67,-112.57 -46.67,-175.47 0,-99.94 35.63,-184.01 106.89,-252.17 71.26,-68.15 159.17,-102.23 263.7,-102.23 72.07,0 152.19,18.84 240.35,56.55l0 105.65c-80.29,-45.86 -158.75,-68.79 -235.45,-68.79 -78.63,0 -143.93,24.8 -195.86,74.44 -51.93,49.67 -77.89,111.83 -77.89,186.55 0,75.35 25.54,137.3 76.66,185.77 51.11,48.51 116.48,72.74 196.11,72.74 83.25,0 164.5,-25.54 243.8,-76.66z"
   id="path6" />
  <polygon
   class="fil2"
   points="7784.96,2917.94 7903.92,2917.94 7650.27,3241.37 7650.27,3604.59 7549.51,3604.59 7549.51,3241.37 7295.9,2917.94 7414.86,2917.94 7598.66,3154.87 "
   id="polygon6" />
  <path
   class="fil2"
   d="M6289.37 3038.92l116.03 257.07c-39.34,21.84 -75.14,32.95 -109.47,32.98 -35.6,-0.03 -72.99,-12.03 -114.26,-35.59l107.7 -254.46zm244.05 541.41l101.25 0 -309.85 -694.9 -69.49 0 -297.01 694.9 101.85 0 85.02 -200.8c45.82,20.95 99.45,36.02 150.6,36.05l0 0 0.14 0 0.14 0 0 0c50.06,-0.03 102.52,-14.46 147.67,-34.71l89.68 199.46z"
   id="path7" />
  <path
   class="fil2"
   d="M7324.75 3823.37c10.37,0 17.39,-4.09 17.39,-12.7 0,-7.65 -6.17,-12.52 -15.06,-12.52l-21.77 0 0 25.22 19.44 0zm-33.02 -36.69l37.08 0c20.7,0 27.72,12.95 27.72,21.98 0,13.62 -9.7,23.42 -23.95,24.2l0 0.42c7.23,2.54 12.52,9.78 19.47,20.99l10.24 16.34 -16.55 0 -7.44 -13.16c-10.55,-18.84 -14.57,-22.4 -24.95,-22.4l-8.04 0 0 35.56 -13.58 0 0 -83.93zm34.04 -24.34c-35.98,0 -64.98,29.03 -64.98,65.05 0,35.99 29,65.2 64.98,65.2 36.13,0 65.34,-29.21 65.34,-65.2 0,-36.02 -29.21,-65.05 -65.34,-65.05zm0 143.12c-43.11,0 -77.86,-34.85 -77.86,-78.07 0,-43.21 34.75,-77.93 77.86,-77.93 43.25,0 78.25,34.72 78.25,77.93 0,43.22 -35,78.07 -78.25,78.07z"
   id="path8" />
  <polygon
   class="fil2"
   points="5380.57,3758.55 5434.05,3758.55 5434.05,4151.73 5385.65,4151.73 5122.76,3849.18 5122.76,4151.73 5069.84,4151.73 5069.84,3758.55 5115.46,3758.55 5380.57,4063.64 "
   id="polygon8" />
  <path
   class="fil2"
   d="M5731.81 4026.76l-182.11 0c1.34,24.77 9.63,44.45 24.91,59.09 15.31,14.64 35.06,21.98 59.27,21.98 33.76,0 64.91,-10.51 93.41,-31.54l0 50.1c-15.73,10.51 -31.36,18.03 -46.85,22.51 -15.49,4.51 -33.62,6.77 -54.47,6.77 -28.5,0 -51.57,-5.93 -69.21,-17.75 -17.64,-11.81 -31.75,-27.72 -42.37,-47.69 -10.58,-19.97 -15.91,-43.11 -15.91,-69.39 0,-39.37 11.18,-71.44 33.51,-96.1 22.33,-24.66 51.3,-37.01 86.96,-37.01 34.33,0 61.74,12 82.16,36.02 20.47,24.03 30.7,56.2 30.7,96.56l0 6.45zm-180.98 -30.69l130.32 0c-1.31,-20.42 -7.41,-36.19 -18.31,-47.27 -10.87,-11.08 -25.51,-16.62 -43.89,-16.62 -18.38,0 -33.44,5.54 -45.19,16.62 -11.71,11.08 -19.37,26.85 -22.93,47.27z"
   id="path9" />
  <path
   class="fil2"
   d="M5750.94 3933.89l96.24 -94.58 0 53.48 81.92 0 0 46.18 -81.92 0 0 126.93c0,29.63 12.31,44.45 36.87,44.45 18.41,0 37.82,-6.18 58.28,-18.56l0 47.84c-19.72,11.08 -41.21,16.58 -64.46,16.58 -23.46,0 -42.96,-6.84 -58.52,-20.53 -4.91,-4.13 -8.93,-8.79 -12.1,-13.94 -3.21,-5.15 -5.89,-11.92 -8.05,-20.25 -2.15,-8.36 -3.24,-24.27 -3.24,-47.69l0 -114.83 -45.02 0 0 -5.08z"
   id="path10" />
  <polygon
   class="fil2"
   points="6302.57,3892.8 6357.46,3892.8 6243.19,4156.22 6227.14,4156.22 6150.31,3975.81 6074.88,4156.22 6058.27,4156.22 5942.87,3892.8 5997.77,3892.8 6065.6,4049.86 6131.47,3892.8 6169.46,3892.8 6235.01,4049.86 "
   id="polygon10" />
  <path
   class="fil2"
   d="M6506.05 3892.24c39.4,0 72.14,12.7 98.21,38.13 26.07,25.44 39.12,57.37 39.12,95.82 0,37.36 -13.23,68.37 -39.68,93.03 -26.46,24.66 -59.76,37 -99.91,37 -38.84,0 -71.3,-12.52 -97.37,-37.57 -26.07,-25.04 -39.12,-56.34 -39.12,-93.84 0,-37.92 13.19,-69.49 39.55,-94.72 26.35,-25.22 59.4,-37.85 99.2,-37.85zm-2.82 46.14c-24.59,0 -44.74,8.08 -60.51,24.2 -15.77,16.16 -23.63,36.69 -23.63,61.67 0,24.76 8.08,44.98 24.2,60.64 16.12,15.66 36.86,23.5 62.19,23.5 25.16,0 45.72,-7.94 61.77,-23.78 16.06,-15.88 24.06,-36.16 24.06,-60.93 0,-24.58 -8.32,-44.94 -25.04,-61.1 -16.69,-16.12 -37.72,-24.2 -63.04,-24.2z"
   id="path11" />
  <path
   class="fil2"
   d="M6755.12 3892.8l0 59.37 2.82 -4.48c24.77,-39.97 49.53,-59.97 74.3,-59.97 19.33,0 39.47,9.77 60.5,29.28l-27.02 45.05c-17.82,-16.9 -34.33,-25.33 -49.53,-25.33 -16.51,0 -30.8,7.87 -42.9,23.64 -12.14,15.73 -18.17,34.43 -18.17,55.98l0 135.4 -51.51 0 0 -258.94 51.51 0z"
   id="path12" />
  <path
   class="fil2"
   d="M7096.79 3892.8l61.06 0 -110.59 126.93 133.1 132.01 -68.65 0 -129.75 -132.01 114.83 -126.93zm-168.31 -134.23l51.22 0 0 393.17 -51.22 0 0 -393.17z"
   id="path13" />
  <path
   class="fil2"
   d="M3384.39 3612.74c-0.71,-114.23 91.26,-207.33 205.42,-208.04 114.16,-0.7 207.36,91.23 208.07,205.46 0.74,114.2 -91.34,207.29 -205.46,208 -114.19,0.74 -207.33,-91.19 -208.03,-205.42z"
   id="path14" />
  <path
   class="fil2"
   d="M3369.77 4068.61c-0.7,-114.23 91.27,-207.33 205.46,-208.04 114.16,-0.7 207.22,91.23 207.93,205.46 0.7,114.16 -91.3,207.29 -205.35,208 -114.2,0.74 -207.33,-91.23 -208.04,-205.42z"
   id="path15" />
  <path
   class="fil2"
   d="M2252.74 2994.68c-0.71,-114.13 91.3,-207.29 205.46,-208.04 114.19,-0.7 207.29,91.34 208,205.46 0.74,114.23 -91.2,207.29 -205.43,208 -114.16,0.74 -207.32,-91.19 -208.03,-205.42z"
   id="path16" />
  <path
   class="fil2"
   d="M2255.42 3415.45c-0.7,-114.19 91.26,-207.32 205.39,-208.06 114.26,-0.71 207.33,91.29 208.03,205.49 0.71,114.16 -91.16,207.29 -205.42,208 -114.16,0.7 -207.29,-91.23 -208,-205.43z"
   id="path17" />
  <path
   class="fil2"
   d="M2258.05 3836.22c-0.7,-114.23 91.27,-207.26 205.39,-208 114.26,-0.7 207.33,91.19 208.03,205.42 0.71,114.16 -91.23,207.3 -205.42,208 -114.16,0.74 -207.29,-91.23 -208,-205.42z"
   id="path18" />
  <path
   class="fil2"
   d="M2631.3 2778.28c-0.71,-114.13 91.15,-207.3 205.28,-208.04 114.23,-0.7 207.36,91.34 208.1,205.46 0.71,114.2 -91.3,207.36 -205.49,208.07 -114.13,0.71 -207.19,-91.3 -207.89,-205.49z"
   id="path19" />
  <path
   class="fil2"
   d="M2633.93 3199.02c-0.71,-114.12 91.15,-207.25 205.31,-207.96 114.2,-0.7 207.33,91.23 208.07,205.39 0.71,114.23 -91.3,207.36 -205.49,208.07 -114.12,0.7 -207.19,-91.27 -207.89,-205.5z"
   id="path20" />
  <path
   class="fil2"
   d="M2636.56 3619.78c-0.71,-114.19 91.16,-207.29 205.32,-208 114.19,-0.7 207.32,91.23 208.06,205.43 0.71,114.19 -91.3,207.29 -205.49,207.99 -114.12,0.75 -207.19,-91.19 -207.89,-205.42z"
   id="path21" />
  <path
   class="fil2"
   d="M3012.39 2989.93c-0.7,-114.13 91.3,-207.3 205.43,-208.04 114.19,-0.7 207.32,91.34 208.03,205.46 0.74,114.23 -91.26,207.29 -205.42,208 -114.16,0.74 -207.33,-91.19 -208.04,-205.42z"
   id="path22" />
  <path
   class="fil2"
   d="M3015.03 3410.7c-0.71,-114.19 91.29,-207.32 205.42,-208.06 114.19,-0.71 207.33,91.3 208.03,205.49 0.74,114.16 -91.26,207.29 -205.42,208 -114.16,0.7 -207.33,-91.23 -208.03,-205.43z"
   id="path23" />
  <path
   class="fil2"
   d="M3017.66 3831.47c-0.71,-114.23 91.3,-207.26 205.42,-208 114.19,-0.71 207.33,91.19 208.03,205.42 0.74,114.16 -91.3,207.29 -205.42,208 -114.23,0.74 -207.33,-91.23 -208.03,-205.42z"
   id="path24" />
  <path
   class="fil2"
   d="M1888.68 3639.55c-0.71,-114.13 91.3,-207.33 205.39,-208.03 114.23,-0.71 207.36,91.33 208.07,205.45 0.74,114.23 -91.27,207.26 -205.5,207.97 -114.09,0.74 -207.25,-91.2 -207.96,-205.39z"
   id="path25" />
  <path
   class="fil2"
   d="M1908.93 4077.74c-0.71,-114.23 91.26,-207.32 205.45,-208.03 114.13,-0.7 207.3,91.23 208,205.46 0.74,114.16 -91.3,207.29 -205.42,207.96 -114.23,0.74 -207.33,-91.19 -208.03,-205.39z"
   id="path26" />
  <path
   class="fil2"
   d="M3727.7 4302.99c-0.7,-114.19 91.3,-207.36 205.39,-208.07 114.27,-0.7 207.33,91.3 208.03,205.49 0.75,114.13 -91.15,207.23 -205.42,207.93 -114.12,0.71 -207.29,-91.23 -208,-205.35z"
   id="path27" />
  <path
   class="fil2"
   d="M1553.91 4316.59c-0.7,-114.23 91.27,-207.37 205.42,-208.07 114.16,-0.71 207.3,91.26 208,205.49 0.71,114.09 -91.26,207.22 -205.38,207.93 -114.2,0.7 -207.33,-91.27 -208.04,-205.35z"
   id="path28" />
  <polygon
   class="fil2"
   points="17438.42,3692.04 17970.27,3692.04 17970.27,3773.15 17748.33,3773.15 17748.33,4329.62 17656.72,4329.62 17656.72,3773.15 17438.42,3773.15 "
   id="polygon28" />
  <path
   class="fil2"
   d="M18262.41 4127.28l-294.85 0c2.11,40.11 15.56,72 40.32,95.71 24.77,23.7 56.73,35.56 95.92,35.56 54.72,0 105.13,-17.04 151.31,-51.05l0 81.1c-25.51,17.04 -50.8,29.18 -75.89,36.48 -25.04,7.27 -54.43,10.94 -88.15,10.94 -46.22,0 -83.58,-9.56 -112.12,-28.72 -28.57,-19.16 -51.43,-44.91 -68.61,-77.26 -17.15,-32.35 -25.76,-69.81 -25.76,-112.32 0,-63.82 18.1,-115.71 54.26,-155.65 36.16,-39.97 83.08,-59.94 140.83,-59.94 55.6,0 99.94,19.44 133.07,58.35 33.12,38.88 49.67,90.99 49.67,156.32l0 10.48zm-293.05 -49.67l211.03 0c-2.15,-33.13 -12.03,-58.64 -29.63,-76.56 -17.64,-17.95 -41.31,-26.91 -71.09,-26.91 -29.77,0 -54.19,8.96 -73.17,26.91 -18.97,17.92 -31.36,43.43 -37.14,76.56z"
   id="path29" />
  <path
   class="fil2"
   d="M18331.68 4299.55l0 -89.32c23.39,16.4 47.31,29.7 71.79,39.86 24.45,10.2 45.05,15.28 61.74,15.28 17.32,0 32.21,-4.27 44.66,-12.78 12.45,-8.5 18.7,-18.66 18.7,-30.51 0,-12.17 -4.03,-22.26 -12.07,-30.3 -8.08,-8.08 -25.47,-19.69 -52.21,-34.89 -53.45,-29.78 -88.48,-55.21 -105.02,-76.34 -16.58,-21.1 -24.84,-44.1 -24.84,-69.04 0,-32.21 12.53,-58.49 37.57,-78.85 25.09,-20.35 57.37,-30.51 96.88,-30.51 40.99,0 83.08,11.53 126.22,34.64l0 82.02c-49.21,-29.78 -89.46,-44.66 -120.76,-44.66 -16.12,0 -29.1,3.42 -38.98,10.26 -9.88,6.81 -14.81,15.88 -14.81,27.1 0,9.73 4.48,19.01 13.44,27.8 8.96,8.81 24.69,19.47 47.16,31.92l29.64 16.86c69.88,39.48 104.81,83.22 104.81,131.24 0,34.32 -13.44,62.51 -40.33,84.56 -26.88,22.01 -61.45,33.02 -103.68,33.02 -24.9,0 -47.09,-2.65 -66.53,-7.97 -19.44,-5.33 -43.92,-15.1 -73.38,-29.39z"
   id="path30" />
  <path
   class="fil2"
   d="M18652.53 3976.88l155.85 -153.14 0 86.61 132.65 0 0 74.75 -132.65 0 0 205.53c0,48.01 19.9,72 59.73,72 29.77,0 61.2,-10.02 94.33,-30.09l0 77.5c-31.93,17.93 -66.71,26.89 -104.39,26.89 -37.96,0 -69.56,-11.12 -94.79,-33.27 -7.9,-6.7 -14.43,-14.22 -19.58,-22.58 -5.18,-8.36 -9.49,-19.3 -13.01,-32.81 -3.5,-13.51 -5.23,-39.26 -5.23,-77.25l0 -185.92 -72.91 0 0 -8.22z"
   id="path31" />
  <polygon
   class="fil2"
   points="16501.43,2912.61 16593.76,2912.61 16593.76,3473.45 16884.13,3473.45 16884.13,3557.49 16501.43,3557.49 "
   id="polygon31" />
  <polygon
   class="fil2"
   points="16964.9,2912.61 17330.52,2912.61 17330.52,2994.77 17057.22,2994.77 17057.22,3191.44 17321.28,3191.44 17321.28,3274.06 17057.22,3274.06 17057.22,3474.41 17339.27,3474.41 17339.27,3556.57 16964.9,3556.57 "
   id="polygon32" />
  <path
   class="fil2"
   d="M17786.12 3239.89l216.5 0 0 273.3c-79.41,34.47 -158.19,51.68 -236.36,51.68 -106.79,0 -192.09,-31.15 -255.94,-93.48 -63.89,-62.3 -95.82,-139.17 -95.82,-230.58 0,-96.31 33.1,-176.49 99.28,-240.49 66.14,-64.03 149.08,-96.02 248.81,-96.02 36.3,0 70.77,3.91 103.4,11.78 32.6,7.83 73.84,22.22 123.72,43.14l0 94.2c-76.94,-44.63 -153.28,-66.96 -228.99,-66.96 -70.45,0 -129.86,24.02 -178.19,72 -48.29,48.01 -72.46,106.96 -72.46,176.81 0,73.24 24.17,133.11 72.46,179.57 48.33,46.49 110.49,69.7 186.52,69.7 36.93,0 81.1,-8.46 132.46,-25.36l8.79 -2.79 0 -134.33 -124.18 0 0 -82.17z"
   id="path32" />
  <path
   class="fil2"
   d="M19285.92 3407.93l0 101.56c-67.69,36.94 -145.87,55.39 -234.49,55.39 -72.03,0 -133.1,-14.47 -183.27,-43.4 -50.16,-28.92 -89.85,-68.79 -119.09,-119.55 -29.25,-50.77 -43.85,-105.73 -43.85,-164.82 0,-93.84 33.44,-172.79 100.4,-236.78 66.92,-64.03 149.47,-96.03 247.65,-96.03 67.69,0 142.94,17.71 225.74,53.09l0 99.24c-75.39,-43.08 -149.12,-64.63 -221.12,-64.63 -73.87,0 -135.19,23.32 -183.98,69.96 -48.75,46.6 -73.16,104.98 -73.16,175.15 0,70.8 24.02,128.98 72.04,174.52 48.01,45.54 109.39,68.3 184.18,68.3 78.14,0 154.48,-23.99 228.95,-72z"
   id="path33" />
  <polygon
   class="fil2"
   points="19787.71,2912.61 19899.43,2912.61 19661.24,3216.35 19661.24,3557.49 19566.59,3557.49 19566.59,3216.35 19328.39,2912.61 19440.12,2912.61 19612.77,3135.1 "
   id="polygon33" />
  <path
   class="fil2"
   d="M18383.09 3026.22l108.97 241.44c-36.94,20.5 -70.59,30.94 -102.8,30.98 -33.44,-0.04 -68.58,-11.33 -107.31,-33.45l101.14 -238.97zm229.2 508.5l95.07 0 -290.97 -652.64 -65.3 0 -278.91 652.64 95.64 0 79.87 -188.63c43.04,19.72 93.38,33.83 141.43,33.86l0 0.04 0.14 0 0.11 0 0 -0.04c47.02,-0.03 96.27,-13.54 138.67,-32.59l84.25 187.36z"
   id="path34" />
  <path
   class="fil2"
   d="M20044.99 2950.29c9.59,0 16.05,-3.78 16.05,-11.71 0,-7.06 -5.72,-11.58 -13.9,-11.58l-20.08 0 0 23.29 17.93 0zm-30.48 -33.87l34.21 0c19.13,0 25.58,11.96 25.58,20.32 0,12.52 -8.92,21.59 -22.12,22.3l0 0.38c6.7,2.37 11.57,9.04 18.03,19.37l9.38 15.07 -15.24 0 -6.84 -12.1c-9.74,-17.43 -13.48,-20.71 -23.04,-20.71l-7.41 0 0 32.81 -12.55 0 0 -77.44zm31.43 -22.47c-33.23,0 -59.97,26.81 -59.97,60.04 0,33.23 26.74,60.19 59.97,60.19 33.3,0 60.29,-26.96 60.29,-60.19 0,-33.23 -26.99,-60.04 -60.29,-60.04zm0 132.11c-39.8,0 -71.86,-32.2 -71.86,-72.07 0,-39.9 32.06,-71.93 71.86,-71.93 39.9,0 72.18,32.03 72.18,71.93 0,39.87 -32.28,72.07 -72.18,72.07z"
   id="path35" />
  <path
   class="fil2"
   d="M15922.79 2755.28c92.28,-0.57 167.6,73.84 168.2,166.12 0.57,92.36 -73.83,167.61 -166.12,168.21 -92.36,0.56 -167.61,-73.77 -168.17,-166.13 -0.6,-92.28 73.73,-167.64 166.09,-168.2z"
   id="path36" />
  <path
   class="fil2"
   d="M15582.56 2757.45c92.33,-0.57 167.64,73.76 168.21,166.09 0.6,92.39 -73.77,167.6 -166.12,168.17 -92.33,0.6 -167.61,-73.7 -168.17,-166.09 -0.57,-92.29 73.76,-167.61 166.08,-168.17z"
   id="path37" />
  <path
   class="fil2"
   d="M16097.76 3061.36c92.28,-0.56 167.6,73.73 168.2,165.98 0.57,92.36 -73.83,167.68 -166.12,168.24 -92.32,0.6 -167.64,-73.8 -168.24,-166.12 -0.56,-92.29 73.84,-167.54 166.16,-168.1z"
   id="path38" />
  <path
   class="fil2"
   d="M15757.56 3063.49c92.29,-0.56 167.57,73.73 168.17,165.98 0.57,92.36 -73.8,167.68 -166.08,168.24 -92.36,0.6 -167.64,-73.8 -168.24,-166.12 -0.57,-92.29 73.8,-167.54 166.15,-168.1z"
   id="path39" />
  <path
   class="fil2"
   d="M15417.36 3065.62c92.32,-0.57 167.6,73.73 168.16,165.98 0.6,92.36 -73.76,167.67 -166.08,168.24 -92.36,0.6 -167.61,-73.8 -168.17,-166.12 -0.6,-92.29 73.73,-167.54 166.09,-168.1z"
   id="path40" />
  <path
   class="fil2"
   d="M15926.63 3369.5c92.28,-0.56 167.6,73.84 168.2,166.09 0.56,92.32 -73.84,167.64 -166.12,168.24 -92.36,0.56 -167.61,-73.8 -168.17,-166.13 -0.6,-92.28 73.73,-167.64 166.09,-168.2z"
   id="path41" />
  <path
   class="fil2"
   d="M15586.41 3371.63c92.32,-0.57 167.64,73.83 168.2,166.09 0.6,92.32 -73.76,167.64 -166.12,168.24 -92.32,0.56 -167.61,-73.81 -168.17,-166.13 -0.57,-92.28 73.76,-167.64 166.09,-168.2z"
   id="path42" />
 </g>
</svg>
