<?xml version="1.0" encoding="UTF-8" standalone="no"?>
<!-- Created with Inkscape (http://www.inkscape.org/) -->

<svg
   version="1.1"
   id="svg1"
   width="816"
   height="1056"
   viewBox="0 0 816 1056"
   sodipodi:docname="brochure9.svg"
   inkscape:version="1.3.2 (091e20e, 2023-11-25, custom)"
   xmlns:inkscape="http://www.inkscape.org/namespaces/inkscape"
   xmlns:sodipodi="http://sodipodi.sourceforge.net/DTD/sodipodi-0.dtd"
   xmlns="http://www.w3.org/2000/svg"
   xmlns:svg="http://www.w3.org/2000/svg">
  <defs
     id="defs1">
    <clipPath
       clipPathUnits="userSpaceOnUse"
       id="clipPath2">
      <path
         d="M -5.41077,582.329 H 182.118 V 209.671 H -5.41077 Z"
         transform="translate(-127.5433,-527.75461)"
         id="path2" />
    </clipPath>
    <clipPath
       clipPathUnits="userSpaceOnUse"
       id="clipPath4">
      <path
         d="M 0,792 H 612 V 0 H 0 Z"
         transform="matrix(1.3333333,0,0,-1.3333333,0,1056)"
         id="path4" />
    </clipPath>
    <clipPath
       clipPathUnits="userSpaceOnUse"
       id="clipPath5">
      <path
         d="M -12.1994,551.268 H 298.286 V 240.731 H -12.1994 Z"
         transform="translate(-139.6728,-547.70722)"
         id="path5" />
    </clipPath>
    <clipPath
       clipPathUnits="userSpaceOnUse"
       id="clipPath7">
      <path
         d="M 0,792 H 612 V 0 H 0 Z"
         transform="matrix(1.3333333,0,0,-1.3333333,0,1056)"
         id="path7" />
    </clipPath>
    <clipPath
       clipPathUnits="userSpaceOnUse"
       id="clipPath8">
      <path
         d="M -0.751404,555.448 H 158.697 V 236.552 H -0.751404 Z"
         transform="translate(0.75140004,-555.44831)"
         id="path8" />
    </clipPath>
    <clipPath
       clipPathUnits="userSpaceOnUse"
       id="clipPath10">
      <path
         d="M 0,792 H 612 V 0 H 0 Z"
         transform="matrix(1.3333333,0,0,-1.3333333,0,1056)"
         id="path10" />
    </clipPath>
    <clipPath
       clipPathUnits="userSpaceOnUse"
       id="clipPath14">
      <path
         d="M 0,792 H 612 V 0 H 0 Z"
         transform="translate(-160.2634,-699.40832)"
         id="path14" />
    </clipPath>
    <clipPath
       clipPathUnits="userSpaceOnUse"
       id="clipPath16">
      <path
         d="M 0,792 H 612 V 0 H 0 Z"
         transform="translate(-205.53111,-694.33672)"
         id="path16" />
    </clipPath>
    <clipPath
       clipPathUnits="userSpaceOnUse"
       id="clipPath18">
      <path
         d="M 0,792 H 612 V 0 H 0 Z"
         transform="translate(-220.67601,-709.28662)"
         id="path18" />
    </clipPath>
    <clipPath
       clipPathUnits="userSpaceOnUse"
       id="clipPath20">
      <path
         d="M 0,792 H 612 V 0 H 0 Z"
         transform="translate(-178.2813,-705.85742)"
         id="path20" />
    </clipPath>
    <clipPath
       clipPathUnits="userSpaceOnUse"
       id="clipPath22">
      <path
         d="M 0,792 H 612 V 0 H 0 Z"
         transform="translate(-207.6307,-683.62102)"
         id="path22" />
    </clipPath>
    <clipPath
       clipPathUnits="userSpaceOnUse"
       id="clipPath24">
      <path
         d="M 0,792 H 612 V 0 H 0 Z"
         transform="translate(-152.5201,-685.45832)"
         id="path24" />
    </clipPath>
    <clipPath
       clipPathUnits="userSpaceOnUse"
       id="clipPath26">
      <path
         d="M 0,792 H 612 V 0 H 0 Z"
         transform="translate(-162.4764,-677.85551)"
         id="path26" />
    </clipPath>
    <clipPath
       clipPathUnits="userSpaceOnUse"
       id="clipPath28">
      <path
         d="M 0,792 H 612 V 0 H 0 Z"
         transform="translate(-163.0189,-680.48822)"
         id="path28" />
    </clipPath>
    <clipPath
       clipPathUnits="userSpaceOnUse"
       id="clipPath30">
      <path
         d="M 0,792 H 612 V 0 H 0 Z"
         transform="translate(-178.6554,-681.65291)"
         id="path30" />
    </clipPath>
    <clipPath
       clipPathUnits="userSpaceOnUse"
       id="clipPath32">
      <path
         d="M 0,792 H 612 V 0 H 0 Z"
         transform="translate(-184.42341,-681.66881)"
         id="path32" />
    </clipPath>
    <clipPath
       clipPathUnits="userSpaceOnUse"
       id="clipPath34">
      <path
         d="M 0,792 H 612 V 0 H 0 Z"
         transform="translate(-191.4837,-681.65291)"
         id="path34" />
    </clipPath>
    <clipPath
       clipPathUnits="userSpaceOnUse"
       id="clipPath36">
      <path
         d="M 0,792 H 612 V 0 H 0 Z"
         transform="translate(-201.16881,-681.65291)"
         id="path36" />
    </clipPath>
    <clipPath
       clipPathUnits="userSpaceOnUse"
       id="clipPath38">
      <path
         d="M 0,792 H 612 V 0 H 0 Z"
         transform="translate(-95.935405,-689.59172)"
         id="path38" />
    </clipPath>
    <clipPath
       clipPathUnits="userSpaceOnUse"
       id="clipPath40">
      <path
         d="M 0,792 H 612 V 0 H 0 Z"
         transform="translate(-95.521105,-676.66942)"
         id="path40" />
    </clipPath>
    <clipPath
       clipPathUnits="userSpaceOnUse"
       id="clipPath42">
      <path
         d="M 0,792 H 612 V 0 H 0 Z"
         transform="translate(-63.857201,-707.11152)"
         id="path42" />
    </clipPath>
    <clipPath
       clipPathUnits="userSpaceOnUse"
       id="clipPath44">
      <path
         d="M 0,792 H 612 V 0 H 0 Z"
         transform="translate(-63.933202,-695.18402)"
         id="path44" />
    </clipPath>
    <clipPath
       clipPathUnits="userSpaceOnUse"
       id="clipPath46">
      <path
         d="M 0,792 H 612 V 0 H 0 Z"
         transform="translate(-64.007801,-683.25682)"
         id="path46" />
    </clipPath>
    <clipPath
       clipPathUnits="userSpaceOnUse"
       id="clipPath48">
      <path
         d="M 0,792 H 612 V 0 H 0 Z"
         transform="translate(-74.587902,-713.24572)"
         id="path48" />
    </clipPath>
    <clipPath
       clipPathUnits="userSpaceOnUse"
       id="clipPath50">
      <path
         d="M 0,792 H 612 V 0 H 0 Z"
         transform="translate(-74.662502,-701.31902)"
         id="path50" />
    </clipPath>
    <clipPath
       clipPathUnits="userSpaceOnUse"
       id="clipPath52">
      <path
         d="M 0,792 H 612 V 0 H 0 Z"
         transform="translate(-74.737102,-689.39201)"
         id="path52" />
    </clipPath>
    <clipPath
       clipPathUnits="userSpaceOnUse"
       id="clipPath54">
      <path
         d="M 0,792 H 612 V 0 H 0 Z"
         transform="translate(-85.390705,-707.24622)"
         id="path54" />
    </clipPath>
    <clipPath
       clipPathUnits="userSpaceOnUse"
       id="clipPath56">
      <path
         d="M 0,792 H 612 V 0 H 0 Z"
         transform="translate(-85.4653,-695.31862)"
         id="path56" />
    </clipPath>
    <clipPath
       clipPathUnits="userSpaceOnUse"
       id="clipPath58">
      <path
         d="M 0,792 H 612 V 0 H 0 Z"
         transform="translate(-85.539902,-683.39152)"
         id="path58" />
    </clipPath>
    <clipPath
       clipPathUnits="userSpaceOnUse"
       id="clipPath60">
      <path
         d="M 0,792 H 612 V 0 H 0 Z"
         transform="translate(-53.537401,-688.83172)"
         id="path60" />
    </clipPath>
    <clipPath
       clipPathUnits="userSpaceOnUse"
       id="clipPath62">
      <path
         d="M 0,792 H 612 V 0 H 0 Z"
         transform="translate(-54.111301,-676.41041)"
         id="path62" />
    </clipPath>
    <clipPath
       clipPathUnits="userSpaceOnUse"
       id="clipPath64">
      <path
         d="M 0,792 H 612 V 0 H 0 Z"
         transform="translate(-105.6672,-670.02551)"
         id="path64" />
    </clipPath>
    <clipPath
       clipPathUnits="userSpaceOnUse"
       id="clipPath66">
      <path
         d="M 0,792 H 612 V 0 H 0 Z"
         transform="translate(-44.047901,-669.64012)"
         id="path66" />
    </clipPath>
    <clipPath
       clipPathUnits="userSpaceOnUse"
       id="clipPath68">
      <path
         d="M 0,792 H 612 V 0 H 0 Z"
         transform="translate(-494.31741,-687.34372)"
         id="path68" />
    </clipPath>
    <clipPath
       clipPathUnits="userSpaceOnUse"
       id="clipPath70">
      <path
         d="M 0,792 H 612 V 0 H 0 Z"
         transform="translate(-517.67461,-675.00632)"
         id="path70" />
    </clipPath>
    <clipPath
       clipPathUnits="userSpaceOnUse"
       id="clipPath72">
      <path
         d="M 0,792 H 612 V 0 H 0 Z"
         transform="translate(-519.63821,-670.12301)"
         id="path72" />
    </clipPath>
    <clipPath
       clipPathUnits="userSpaceOnUse"
       id="clipPath74">
      <path
         d="M 0,792 H 612 V 0 H 0 Z"
         transform="translate(-528.73301,-679.26952)"
         id="path74" />
    </clipPath>
    <clipPath
       clipPathUnits="userSpaceOnUse"
       id="clipPath76">
      <path
         d="M 0,792 H 612 V 0 H 0 Z"
         transform="translate(-467.75721,-709.43792)"
         id="path76" />
    </clipPath>
    <clipPath
       clipPathUnits="userSpaceOnUse"
       id="clipPath78">
      <path
         d="M 0,792 H 612 V 0 H 0 Z"
         transform="translate(-480.89481,-709.43792)"
         id="path78" />
    </clipPath>
    <clipPath
       clipPathUnits="userSpaceOnUse"
       id="clipPath80">
      <path
         d="M 0,792 H 612 V 0 H 0 Z"
         transform="translate(-504.17351,-700.16052)"
         id="path80" />
    </clipPath>
    <clipPath
       clipPathUnits="userSpaceOnUse"
       id="clipPath82">
      <path
         d="M 0,792 H 612 V 0 H 0 Z"
         transform="translate(-546.68761,-695.39741)"
         id="path82" />
    </clipPath>
    <clipPath
       clipPathUnits="userSpaceOnUse"
       id="clipPath84">
      <path
         d="M 0,792 H 612 V 0 H 0 Z"
         transform="translate(-560.91142,-709.43792)"
         id="path84" />
    </clipPath>
    <clipPath
       clipPathUnits="userSpaceOnUse"
       id="clipPath86">
      <path
         d="M 0,792 H 612 V 0 H 0 Z"
         transform="translate(-521.09542,-706.21732)"
         id="path86" />
    </clipPath>
    <clipPath
       clipPathUnits="userSpaceOnUse"
       id="clipPath88">
      <path
         d="M 0,792 H 612 V 0 H 0 Z"
         transform="translate(-568.20431,-708.36982)"
         id="path88" />
    </clipPath>
    <clipPath
       clipPathUnits="userSpaceOnUse"
       id="clipPath90">
      <path
         d="M 0,792 H 612 V 0 H 0 Z"
         transform="translate(-451.35461,-713.89762)"
         id="path90" />
    </clipPath>
    <clipPath
       clipPathUnits="userSpaceOnUse"
       id="clipPath92">
      <path
         d="M 0,792 H 612 V 0 H 0 Z"
         transform="translate(-441.71051,-713.83612)"
         id="path92" />
    </clipPath>
    <clipPath
       clipPathUnits="userSpaceOnUse"
       id="clipPath94">
      <path
         d="M 0,792 H 612 V 0 H 0 Z"
         transform="translate(-456.31441,-705.22132)"
         id="path94" />
    </clipPath>
    <clipPath
       clipPathUnits="userSpaceOnUse"
       id="clipPath96">
      <path
         d="M 0,792 H 612 V 0 H 0 Z"
         transform="translate(-446.67111,-705.16092)"
         id="path96" />
    </clipPath>
    <clipPath
       clipPathUnits="userSpaceOnUse"
       id="clipPath98">
      <path
         d="M 0,792 H 612 V 0 H 0 Z"
         transform="translate(-437.02741,-705.10062)"
         id="path98" />
    </clipPath>
    <clipPath
       clipPathUnits="userSpaceOnUse"
       id="clipPath100">
      <path
         d="M 0,792 H 612 V 0 H 0 Z"
         transform="translate(-451.46341,-696.48662)"
         id="path100" />
    </clipPath>
    <clipPath
       clipPathUnits="userSpaceOnUse"
       id="clipPath102">
      <path
         d="M 0,792 H 612 V 0 H 0 Z"
         transform="translate(-441.81941,-696.42632)"
         id="path102" />
    </clipPath>
  </defs>
  <sodipodi:namedview
     id="namedview1"
     pagecolor="#ffffff"
     bordercolor="#000000"
     borderopacity="0.25"
     inkscape:showpageshadow="2"
     inkscape:pageopacity="0.0"
     inkscape:pagecheckerboard="0"
     inkscape:deskcolor="#d1d1d1"
     inkscape:zoom="0.75662879"
     inkscape:cx="408.39049"
     inkscape:cy="422.26783"
     inkscape:window-width="1920"
     inkscape:window-height="1013"
     inkscape:window-x="2391"
     inkscape:window-y="-9"
     inkscape:window-maximized="1"
     inkscape:current-layer="layer-MC0">
    <inkscape:page
       x="0"
       y="0"
       inkscape:label="9"
       id="page1"
       width="816"
       height="1056"
       margin="0"
       bleed="0" />
  </sodipodi:namedview>
  <g
     id="layer-MC0"
     inkscape:groupmode="layer"
     inkscape:label="Capa 1">
    <path
       id="path1"
       d="M 0,0 H 612 V 792 H 0 Z"
       style="fill:#496c9d;fill-opacity:1;fill-rule:nonzero;stroke:none"
       transform="matrix(1.3333333,0,0,-1.3333333,0,1056)" />
    <g
       opacity="0.270004"
       id="g3"
       clip-path="url(#clipPath4)">
      <path
         d="m 0,0 c -35.193,35.193 -81.984,54.575 -131.754,54.575 h -1.2 v -3.891 h 1.2 c 100.597,0 182.439,-81.841 182.439,-182.439 0,-100.597 -81.842,-182.438 -182.439,-182.438 h -1.2 v -3.891 h 1.2 c 49.771,0 96.561,19.382 131.754,54.576 35.193,35.192 54.575,81.984 54.575,131.753 C 54.575,-81.984 35.193,-35.193 0,0"
         style="fill:#9dc5fa;fill-opacity:1;fill-rule:nonzero;stroke:none"
         transform="matrix(1.3333333,0,0,-1.3333333,170.05773,352.3272)"
         clip-path="url(#clipPath2)"
         id="path3" />
    </g>
    <g
       opacity="0.270004"
       id="g6"
       clip-path="url(#clipPath7)">
      <path
         d="m 0,0 c -0.957,0 -1.742,0.764 -1.762,1.725 -0.021,0.972 0.752,1.779 1.724,1.8 1.133,0.024 2.268,0.036 3.406,0.036 0.974,0 1.845,-0.79 1.845,-1.764 0,-0.973 -0.706,-1.763 -1.68,-1.763 -0.019,0 -0.201,0.002 -0.22,0.002 C 2.255,0.036 1.146,0.024 0.038,0 Z m 15.885,-0.466 c -0.048,0 -0.094,0.001 -0.144,0.005 -1.157,0.094 -2.318,0.174 -3.484,0.242 -0.97,0.057 -1.712,0.89 -1.655,1.863 0.057,0.97 0.85,1.703 1.862,1.655 1.189,-0.069 2.378,-0.151 3.563,-0.246 0.969,-0.079 1.691,-0.929 1.614,-1.9 -0.076,-0.921 -0.847,-1.619 -1.756,-1.619 m -28.223,-0.291 c -0.894,0 -1.659,0.676 -1.752,1.585 -0.098,0.967 0.607,1.833 1.576,1.931 1.183,0.12 2.368,0.225 3.558,0.32 1,0.067 1.819,-0.649 1.896,-1.618 0.076,-0.97 -0.649,-1.819 -1.618,-1.896 -1.165,-0.092 -2.323,-0.197 -3.481,-0.314 -0.061,-0.005 -0.121,-0.008 -0.179,-0.008 m 40.491,-1.196 c -0.093,0 -0.187,0.007 -0.282,0.022 -1.148,0.186 -2.299,0.36 -3.454,0.52 -0.966,0.132 -1.639,1.022 -1.504,1.986 0.132,0.964 1.006,1.647 1.986,1.504 1.182,-0.163 2.361,-0.341 3.533,-0.53 0.962,-0.155 1.614,-1.06 1.459,-2.021 -0.139,-0.865 -0.888,-1.481 -1.738,-1.481 m -52.721,-0.548 c -0.833,0 -1.575,0.594 -1.732,1.443 -0.177,0.956 0.457,1.876 1.413,2.053 1.169,0.215 2.343,0.418 3.523,0.606 0.966,0.161 1.864,-0.503 2.018,-1.463 0.153,-0.961 -0.501,-1.864 -1.463,-2.017 -1.15,-0.185 -2.296,-0.381 -3.437,-0.592 -0.109,-0.021 -0.215,-0.03 -0.322,-0.03 m 64.831,-1.926 c -0.142,0 -0.283,0.018 -0.426,0.052 -1.127,0.279 -2.259,0.544 -3.399,0.797 -0.95,0.212 -1.549,1.153 -1.339,2.103 0.214,0.95 1.166,1.54 2.104,1.339 1.166,-0.26 2.326,-0.532 3.481,-0.817 0.945,-0.234 1.522,-1.19 1.288,-2.135 -0.198,-0.802 -0.918,-1.339 -1.709,-1.339 m -76.889,-0.796 c -0.778,0 -1.489,0.518 -1.7,1.304 -0.253,0.942 0.304,1.907 1.244,2.16 1.148,0.308 2.301,0.604 3.461,0.888 0.931,0.229 1.898,-0.346 2.131,-1.294 0.23,-0.945 -0.348,-1.898 -1.295,-2.131 -1.132,-0.277 -2.261,-0.566 -3.381,-0.867 -0.154,-0.041 -0.309,-0.06 -0.46,-0.06 M 52.129,-7.87 c -0.186,0 -0.373,0.029 -0.559,0.091 -1.101,0.368 -2.21,0.726 -3.323,1.069 -0.93,0.287 -1.451,1.273 -1.166,2.204 0.286,0.931 1.262,1.453 2.205,1.165 1.141,-0.352 2.274,-0.717 3.403,-1.096 0.922,-0.31 1.421,-1.308 1.111,-2.23 C 53.554,-7.406 52.866,-7.87 52.129,-7.87 M -48.429,-8.922 c -0.723,0 -1.403,0.449 -1.659,1.169 -0.329,0.917 0.15,1.925 1.065,2.253 1.124,0.402 2.253,0.791 3.389,1.17 0.922,0.301 1.921,-0.193 2.229,-1.117 0.306,-0.923 -0.193,-1.921 -1.117,-2.229 -1.109,-0.368 -2.214,-0.75 -3.313,-1.143 -0.196,-0.07 -0.398,-0.103 -0.594,-0.103 m 112.098,-3.339 c -0.232,0 -0.468,0.045 -0.694,0.143 -1.063,0.454 -2.135,0.898 -3.211,1.329 -0.904,0.361 -1.344,1.387 -0.983,2.29 0.36,0.907 1.384,1.346 2.291,0.983 1.103,-0.44 2.199,-0.895 3.291,-1.363 0.895,-0.382 1.309,-1.418 0.926,-2.313 -0.286,-0.668 -0.937,-1.069 -1.62,-1.069 m -123.576,-1.31 c -0.673,0 -1.313,0.386 -1.607,1.038 -0.401,0.887 -0.007,1.931 0.881,2.331 1.088,0.49 2.179,0.97 3.279,1.438 0.896,0.384 1.929,-0.034 2.311,-0.931 0.382,-0.895 -0.036,-1.931 -0.931,-2.311 -1.076,-0.458 -2.146,-0.928 -3.21,-1.408 -0.236,-0.107 -0.482,-0.157 -0.723,-0.157 m 134.711,-3.994 c -0.277,0 -0.557,0.065 -0.821,0.203 -1.024,0.54 -2.056,1.07 -3.098,1.587 -0.87,0.433 -1.227,1.49 -0.793,2.363 0.434,0.871 1.489,1.229 2.363,0.793 1.065,-0.53 2.122,-1.07 3.174,-1.625 0.86,-0.454 1.191,-1.519 0.736,-2.381 -0.316,-0.599 -0.927,-0.94 -1.561,-0.94 m -145.772,-1.566 c -0.621,0 -1.224,0.328 -1.546,0.91 -0.469,0.854 -0.16,1.924 0.692,2.396 1.043,0.575 2.093,1.141 3.148,1.695 0.864,0.456 1.928,0.122 2.379,-0.74 0.454,-0.861 0.122,-1.926 -0.74,-2.378 -1.035,-0.544 -2.061,-1.1 -3.083,-1.665 -0.27,-0.148 -0.563,-0.218 -0.85,-0.218 m 156.452,-4.621 c -0.324,0 -0.651,0.089 -0.944,0.275 -0.981,0.621 -1.968,1.232 -2.963,1.833 -0.833,0.502 -1.102,1.587 -0.599,2.42 0.504,0.834 1.587,1.103 2.42,0.599 1.019,-0.615 2.03,-1.24 3.032,-1.878 0.823,-0.521 1.065,-1.611 0.542,-2.432 -0.335,-0.528 -0.905,-0.817 -1.488,-0.817 m -167.019,-1.811 c -0.57,0 -1.129,0.275 -1.47,0.787 -0.539,0.81 -0.319,1.905 0.492,2.443 0.993,0.66 1.993,1.309 3.002,1.947 0.827,0.518 1.912,0.272 2.431,-0.549 0.52,-0.823 0.274,-1.91 -0.549,-2.432 -0.984,-0.621 -1.963,-1.256 -2.932,-1.902 -0.3,-0.199 -0.639,-0.294 -0.974,-0.294 M 95.64,-30.779 c -0.369,0 -0.74,0.115 -1.059,0.354 -0.929,0.699 -1.864,1.389 -2.81,2.067 -0.79,0.568 -0.973,1.669 -0.405,2.459 0.566,0.792 1.666,0.975 2.46,0.405 0.967,-0.695 1.925,-1.399 2.875,-2.115 0.778,-0.585 0.933,-1.69 0.348,-2.468 -0.346,-0.46 -0.874,-0.702 -1.409,-0.702 m -187.19,-2.042 c -0.522,0 -1.038,0.231 -1.386,0.672 -0.602,0.765 -0.471,1.872 0.293,2.474 0.936,0.737 1.881,1.465 2.836,2.181 0.776,0.583 1.881,0.429 2.466,-0.353 0.586,-0.778 0.427,-1.883 -0.352,-2.466 -0.931,-0.699 -1.856,-1.41 -2.768,-2.129 -0.323,-0.255 -0.709,-0.379 -1.089,-0.379 m 196.754,-5.782 c -0.417,0 -0.835,0.146 -1.171,0.444 -0.869,0.772 -1.748,1.535 -2.636,2.287 -0.742,0.628 -0.835,1.74 -0.205,2.483 0.626,0.742 1.736,0.837 2.483,0.205 0.909,-0.769 1.809,-1.549 2.699,-2.339 0.728,-0.647 0.793,-1.76 0.148,-2.488 -0.35,-0.393 -0.833,-0.592 -1.318,-0.592 m -206.153,-2.252 c -0.473,0 -0.945,0.19 -1.293,0.565 -0.662,0.714 -0.619,1.829 0.095,2.49 0.874,0.809 1.756,1.608 2.647,2.398 0.725,0.647 1.84,0.583 2.487,-0.15 0.645,-0.728 0.58,-1.842 -0.15,-2.487 -0.871,-0.773 -1.735,-1.554 -2.588,-2.346 -0.339,-0.315 -0.769,-0.47 -1.198,-0.47 m 215.061,-6.312 c -0.463,0 -0.924,0.18 -1.27,0.54 -0.808,0.84 -1.623,1.671 -2.449,2.492 -0.689,0.688 -0.692,1.804 -0.006,2.494 0.687,0.685 1.804,0.692 2.494,0.005 0.844,-0.842 1.677,-1.69 2.501,-2.547 0.675,-0.702 0.652,-1.818 -0.048,-2.492 -0.343,-0.329 -0.783,-0.492 -1.222,-0.492 m -223.782,-2.444 c -0.426,0 -0.855,0.153 -1.192,0.466 -0.718,0.659 -0.763,1.773 -0.104,2.489 0.806,0.876 1.622,1.741 2.446,2.6 0.673,0.702 1.788,0.725 2.492,0.048 0.701,-0.674 0.723,-1.79 0.048,-2.492 -0.807,-0.838 -1.605,-1.686 -2.394,-2.543 -0.346,-0.377 -0.821,-0.568 -1.296,-0.568 m 231.983,-6.811 c -0.512,0 -1.019,0.221 -1.367,0.647 -0.737,0.902 -1.483,1.797 -2.242,2.684 -0.632,0.74 -0.544,1.851 0.196,2.485 0.738,0.628 1.85,0.545 2.485,-0.196 0.773,-0.907 1.537,-1.82 2.291,-2.742 0.616,-0.754 0.504,-1.864 -0.25,-2.48 -0.327,-0.267 -0.723,-0.398 -1.113,-0.398 m -239.975,-2.612 c -0.379,0 -0.763,0.122 -1.085,0.375 -0.765,0.599 -0.901,1.707 -0.301,2.473 0.732,0.936 1.475,1.866 2.229,2.787 0.614,0.75 1.723,0.865 2.48,0.246 0.752,-0.616 0.864,-1.727 0.246,-2.48 -0.736,-0.901 -1.463,-1.809 -2.18,-2.725 -0.348,-0.444 -0.866,-0.676 -1.389,-0.676 m 247.408,-7.27 c -0.559,0 -1.11,0.267 -1.453,0.762 -0.661,0.959 -1.335,1.909 -2.018,2.852 -0.572,0.787 -0.396,1.89 0.392,2.461 0.785,0.573 1.888,0.396 2.461,-0.392 0.701,-0.964 1.389,-1.938 2.067,-2.921 0.553,-0.8 0.351,-1.898 -0.451,-2.45 -0.305,-0.21 -0.654,-0.312 -0.998,-0.312 m -254.618,-2.759 c -0.332,0 -0.669,0.095 -0.967,0.291 -0.812,0.535 -1.038,1.628 -0.503,2.44 0.654,0.995 1.322,1.981 2,2.957 0.551,0.801 1.649,1.004 2.453,0.444 0.798,-0.554 0.998,-1.652 0.444,-2.452 -0.663,-0.954 -1.313,-1.916 -1.954,-2.886 -0.339,-0.515 -0.9,-0.794 -1.473,-0.794 m 261.237,-7.695 c -0.609,0 -1.201,0.315 -1.528,0.881 -0.584,1.011 -1.179,2.012 -1.785,3.009 -0.506,0.831 -0.241,1.915 0.59,2.421 0.835,0.505 1.918,0.241 2.422,-0.59 0.62,-1.017 1.229,-2.043 1.826,-3.077 0.487,-0.843 0.198,-1.921 -0.645,-2.408 -0.278,-0.16 -0.58,-0.236 -0.88,-0.236 m -267.612,-2.874 c -0.287,0 -0.578,0.071 -0.846,0.217 -0.854,0.47 -1.166,1.54 -0.697,2.394 0.573,1.043 1.158,2.077 1.753,3.105 0.487,0.84 1.563,1.132 2.41,0.64 0.841,-0.489 1.129,-1.566 0.64,-2.41 -0.582,-1.003 -1.153,-2.013 -1.712,-3.032 -0.322,-0.583 -0.925,-0.914 -1.548,-0.914 m 273.367,-8.084 c -0.661,0 -1.292,0.372 -1.593,1.007 -0.501,1.055 -1.012,2.101 -1.537,3.141 -0.439,0.869 -0.09,1.929 0.778,2.368 0.867,0.443 1.927,0.09 2.368,-0.778 0.539,-1.067 1.063,-2.141 1.575,-3.22 0.418,-0.879 0.043,-1.931 -0.837,-2.347 -0.244,-0.116 -0.501,-0.171 -0.754,-0.171 m -278.867,-2.957 c -0.241,0 -0.486,0.05 -0.721,0.155 -0.888,0.4 -1.284,1.443 -0.885,2.331 0.487,1.084 0.985,2.161 1.496,3.23 0.416,0.88 1.466,1.255 2.347,0.833 0.88,-0.418 1.253,-1.47 0.833,-2.347 -0.497,-1.049 -0.984,-2.102 -1.461,-3.162 -0.294,-0.652 -0.936,-1.04 -1.609,-1.04 m 283.719,-8.436 c -0.711,0 -1.382,0.433 -1.649,1.139 -0.413,1.091 -0.84,2.177 -1.278,3.258 -0.367,0.9 0.068,1.929 0.97,2.296 0.895,0.361 1.928,-0.067 2.296,-0.971 0.449,-1.105 0.886,-2.218 1.31,-3.337 0.344,-0.909 -0.115,-1.927 -1.026,-2.272 -0.205,-0.077 -0.415,-0.113 -0.623,-0.113 m -288.314,-3.021 c -0.197,0 -0.396,0.033 -0.591,0.102 -0.917,0.327 -1.396,1.335 -1.07,2.251 0.401,1.124 0.81,2.241 1.234,3.353 0.346,0.91 1.365,1.368 2.273,1.02 0.911,-0.346 1.367,-1.363 1.021,-2.273 -0.413,-1.088 -0.816,-2.181 -1.207,-3.281 -0.258,-0.722 -0.936,-1.172 -1.66,-1.172 m 292.224,-8.722 c -0.766,0 -1.47,0.501 -1.693,1.274 -0.324,1.118 -0.658,2.234 -1.007,3.344 -0.291,0.929 0.225,1.919 1.153,2.209 0.935,0.295 1.921,-0.227 2.21,-1.153 0.356,-1.137 0.7,-2.277 1.031,-3.423 0.27,-0.934 -0.27,-1.912 -1.205,-2.182 -0.163,-0.047 -0.327,-0.069 -0.489,-0.069 m -295.877,-3.082 c -0.149,0 -0.302,0.018 -0.454,0.058 -0.941,0.251 -1.501,1.217 -1.251,2.157 0.306,1.153 0.626,2.301 0.959,3.442 0.27,0.934 1.251,1.478 2.184,1.199 0.934,-0.272 1.471,-1.249 1.199,-2.184 -0.325,-1.117 -0.635,-2.237 -0.934,-3.363 -0.21,-0.788 -0.923,-1.309 -1.703,-1.309 m 298.815,-8.924 c -0.821,0 -1.556,0.576 -1.726,1.413 -0.231,1.143 -0.473,2.279 -0.732,3.411 -0.216,0.95 0.377,1.893 1.326,2.11 0.95,0.222 1.895,-0.373 2.11,-1.325 0.265,-1.16 0.514,-2.327 0.752,-3.497 0.193,-0.954 -0.425,-1.883 -1.379,-2.078 -0.117,-0.024 -0.236,-0.034 -0.351,-0.034 m -301.505,-3.139 c -0.105,0 -0.211,0.008 -0.318,0.029 -0.957,0.174 -1.592,1.091 -1.416,2.05 0.213,1.172 0.437,2.34 0.676,3.504 0.194,0.953 1.129,1.564 2.079,1.373 0.954,-0.194 1.57,-1.125 1.373,-2.079 -0.232,-1.139 -0.452,-2.284 -0.662,-3.432 -0.155,-0.85 -0.897,-1.445 -1.732,-1.445 m 303.465,-9.062 c -0.881,0 -1.641,0.659 -1.748,1.554 -0.138,1.159 -0.289,2.312 -0.455,3.461 -0.137,0.962 0.532,1.856 1.496,1.995 0.96,0.141 1.854,-0.532 1.995,-1.495 0.168,-1.178 0.323,-2.358 0.464,-3.544 0.116,-0.967 -0.574,-1.843 -1.542,-1.959 -0.07,-0.008 -0.141,-0.012 -0.21,-0.012 m -305.168,-3.179 c -0.057,0 -0.116,0.004 -0.174,0.009 -0.969,0.095 -1.677,0.957 -1.582,1.926 0.117,1.187 0.246,2.37 0.389,3.55 0.117,0.968 0.997,1.653 1.962,1.539 0.966,-0.117 1.654,-0.996 1.539,-1.962 -0.141,-1.153 -0.269,-2.311 -0.382,-3.471 -0.09,-0.911 -0.856,-1.591 -1.752,-1.591 m 306.143,-9.14 c -0.942,0 -1.722,0.743 -1.759,1.693 -0.047,1.165 -0.105,2.329 -0.176,3.489 -0.06,0.972 0.68,1.807 1.651,1.867 0.994,0.018 1.808,-0.68 1.867,-1.65 0.074,-1.188 0.132,-2.375 0.179,-3.568 0.038,-0.972 -0.719,-1.792 -1.692,-1.829 -0.022,-0.002 -0.046,-0.002 -0.07,-0.002 m -306.865,-3.191 h -0.032 c -0.974,0.019 -1.749,0.823 -1.73,1.795 0.022,1.191 0.059,2.38 0.107,3.564 0.039,0.973 0.862,1.789 1.833,1.689 0.972,-0.04 1.728,-0.861 1.688,-1.833 -0.048,-1.16 -0.081,-2.322 -0.103,-3.485 -0.019,-0.962 -0.804,-1.73 -1.763,-1.73 m 306.861,-9.165 c -0.024,0 -0.048,0 -0.072,0.002 -0.973,0.038 -1.73,0.857 -1.69,1.831 0.046,1.159 0.079,2.322 0.1,3.485 0.017,0.973 0.824,1.742 1.793,1.732 0.972,-0.017 1.749,-0.821 1.731,-1.794 -0.02,-1.191 -0.056,-2.378 -0.103,-3.564 -0.038,-0.948 -0.819,-1.692 -1.759,-1.692 m -306.602,-3.194 c -0.925,0 -1.701,0.721 -1.758,1.657 -0.072,1.186 -0.13,2.375 -0.175,3.566 -0.038,0.973 0.721,1.792 1.693,1.828 0.949,0.06 1.79,-0.719 1.828,-1.693 0.045,-1.167 0.103,-2.329 0.172,-3.491 0.059,-0.97 -0.681,-1.805 -1.654,-1.864 -0.034,-10e-4 -0.07,-0.003 -0.106,-0.003 m 305.616,-9.123 c -0.071,0 -0.141,0.003 -0.213,0.012 -0.966,0.117 -1.654,0.996 -1.539,1.962 0.139,1.153 0.267,2.309 0.379,3.469 0.092,0.968 0.929,1.666 1.924,1.584 0.969,-0.093 1.678,-0.955 1.583,-1.924 -0.115,-1.188 -0.243,-2.372 -0.385,-3.553 -0.109,-0.895 -0.87,-1.55 -1.749,-1.55 m -304.374,-3.171 c -0.864,0 -1.618,0.636 -1.743,1.515 -0.167,1.177 -0.32,2.356 -0.461,3.542 -0.116,0.967 0.574,1.843 1.542,1.958 0.97,0.121 1.843,-0.576 1.958,-1.542 0.138,-1.158 0.288,-2.313 0.451,-3.462 0.136,-0.964 -0.533,-1.856 -1.497,-1.993 -0.085,-0.012 -0.167,-0.018 -0.25,-0.018 m 302.398,-9.028 c -0.117,0 -0.234,0.012 -0.353,0.036 -0.953,0.193 -1.569,1.124 -1.375,2.077 0.231,1.14 0.451,2.282 0.658,3.432 0.175,0.957 1.089,1.595 2.048,1.422 0.958,-0.174 1.593,-1.092 1.421,-2.048 -0.213,-1.174 -0.437,-2.345 -0.674,-3.508 -0.169,-0.835 -0.904,-1.411 -1.725,-1.411 m -300.169,-3.129 c -0.805,0 -1.532,0.554 -1.718,1.373 -0.263,1.162 -0.511,2.327 -0.747,3.497 -0.191,0.956 0.427,1.885 1.381,2.076 0.946,0.195 1.883,-0.427 2.075,-1.38 0.229,-1.143 0.474,-2.281 0.73,-3.415 0.215,-0.948 -0.38,-1.893 -1.33,-2.108 -0.131,-0.029 -0.262,-0.043 -0.391,-0.043 m 297.212,-8.872 c -0.161,0 -0.327,0.022 -0.49,0.069 -0.935,0.272 -1.473,1.249 -1.203,2.184 0.323,1.115 0.635,2.235 0.933,3.363 0.249,0.943 1.227,1.497 2.153,1.254 0.941,-0.248 1.502,-1.213 1.254,-2.153 -0.304,-1.155 -0.623,-2.303 -0.953,-3.445 -0.224,-0.771 -0.928,-1.272 -1.694,-1.272 m -294.007,-3.062 c -0.752,0 -1.448,0.484 -1.684,1.239 -0.352,1.136 -0.695,2.275 -1.024,3.42 -0.268,0.936 0.272,1.912 1.207,2.18 0.943,0.267 1.912,-0.271 2.18,-1.206 0.322,-1.12 0.658,-2.236 1.004,-3.347 0.289,-0.93 -0.231,-1.918 -1.16,-2.207 -0.174,-0.053 -0.351,-0.079 -0.523,-0.079 m 290.092,-8.66 c -0.208,0 -0.42,0.036 -0.627,0.115 -0.91,0.346 -1.366,1.363 -1.02,2.273 0.413,1.086 0.814,2.178 1.201,3.277 0.324,0.919 1.334,1.394 2.248,1.078 0.919,-0.324 1.401,-1.331 1.077,-2.248 -0.397,-1.127 -0.809,-2.246 -1.232,-3.36 -0.267,-0.703 -0.936,-1.135 -1.647,-1.135 M -139,-210.977 c -0.697,0 -1.356,0.415 -1.633,1.102 -0.448,1.105 -0.883,2.218 -1.307,3.337 -0.344,0.91 0.116,1.928 1.026,2.272 0.904,0.346 1.926,-0.114 2.272,-1.026 0.413,-1.095 0.838,-2.181 1.275,-3.261 0.365,-0.902 -0.07,-1.93 -0.972,-2.295 -0.217,-0.087 -0.441,-0.129 -0.661,-0.129 m 281.074,-8.338 c -0.253,0 -0.511,0.055 -0.756,0.172 -0.879,0.418 -1.253,1.47 -0.833,2.347 0.498,1.047 0.983,2.098 1.456,3.159 0.393,0.888 1.431,1.292 2.327,0.891 0.888,-0.396 1.289,-1.437 0.892,-2.327 -0.484,-1.088 -0.983,-2.167 -1.494,-3.237 -0.301,-0.635 -0.933,-1.005 -1.592,-1.005 m -275.971,-2.943 c -0.647,0 -1.269,0.356 -1.578,0.972 -0.534,1.067 -1.057,2.139 -1.568,3.217 -0.418,0.879 -0.043,1.931 0.836,2.347 0.881,0.419 1.931,0.043 2.348,-0.836 0.501,-1.057 1.013,-2.105 1.537,-3.148 0.435,-0.871 0.082,-1.929 -0.787,-2.366 -0.255,-0.126 -0.523,-0.186 -0.788,-0.186 m 270.226,-7.979 c -0.3,0 -0.604,0.076 -0.883,0.237 -0.842,0.489 -1.129,1.567 -0.64,2.41 0.582,1.002 1.151,2.014 1.709,3.032 0.466,0.854 1.538,1.169 2.392,0.699 0.854,-0.466 1.167,-1.538 0.699,-2.392 -0.571,-1.043 -1.155,-2.079 -1.75,-3.108 -0.327,-0.563 -0.919,-0.878 -1.527,-0.878 m -264.23,-2.848 c -0.595,0 -1.175,0.301 -1.508,0.846 -0.619,1.017 -1.227,2.045 -1.824,3.079 -0.487,0.844 -0.198,1.921 0.646,2.408 0.839,0.487 1.92,0.201 2.407,-0.645 0.584,-1.011 1.177,-2.014 1.783,-3.011 0.506,-0.831 0.241,-1.915 -0.59,-2.421 -0.286,-0.174 -0.602,-0.256 -0.914,-0.256 m 257.623,-7.58 c -0.346,0 -0.694,0.101 -1,0.311 -0.8,0.555 -1.002,1.651 -0.449,2.453 0.661,0.957 1.311,1.919 1.951,2.891 0.537,0.811 1.63,1.036 2.441,0.503 0.812,-0.535 1.038,-1.628 0.502,-2.441 -0.654,-0.993 -1.318,-1.979 -1.993,-2.956 -0.342,-0.496 -0.893,-0.761 -1.452,-0.761 m -250.778,-2.724 c -0.546,0 -1.085,0.252 -1.429,0.728 -0.7,0.967 -1.387,1.939 -2.065,2.922 -0.552,0.8 -0.351,1.898 0.451,2.451 0.798,0.552 1.897,0.349 2.451,-0.451 0.661,-0.959 1.334,-1.911 2.017,-2.854 0.571,-0.788 0.396,-1.891 -0.393,-2.461 -0.313,-0.227 -0.674,-0.335 -1.032,-0.335 m 243.351,-7.146 c -0.39,0 -0.786,0.13 -1.113,0.397 -0.754,0.616 -0.866,1.726 -0.25,2.48 0.735,0.9 1.462,1.809 2.177,2.726 0.598,0.768 1.704,0.906 2.474,0.305 0.767,-0.599 0.903,-1.707 0.304,-2.473 -0.733,-0.938 -1.473,-1.867 -2.225,-2.788 -0.348,-0.427 -0.855,-0.647 -1.367,-0.647 m -235.705,-2.573 c -0.497,0 -0.991,0.21 -1.34,0.618 -0.773,0.905 -1.537,1.82 -2.291,2.745 -0.614,0.753 -0.501,1.864 0.253,2.48 0.757,0.616 1.866,0.499 2.48,-0.253 0.737,-0.904 1.484,-1.799 2.239,-2.683 0.632,-0.741 0.544,-1.854 -0.196,-2.486 -0.332,-0.282 -0.738,-0.421 -1.145,-0.421 m 227.513,-6.673 c -0.439,0 -0.879,0.164 -1.222,0.492 -0.7,0.675 -0.723,1.79 -0.048,2.492 0.805,0.839 1.602,1.687 2.387,2.544 0.658,0.716 1.771,0.766 2.49,0.109 0.718,-0.658 0.766,-1.773 0.109,-2.491 -0.806,-0.878 -1.62,-1.747 -2.446,-2.605 -0.346,-0.36 -0.807,-0.541 -1.27,-0.541 m -219.115,-2.397 c -0.45,0 -0.901,0.17 -1.245,0.513 -0.843,0.841 -1.678,1.693 -2.502,2.554 -0.673,0.702 -0.649,1.819 0.055,2.492 0.7,0.671 1.814,0.649 2.492,-0.055 0.804,-0.84 1.618,-1.672 2.444,-2.492 0.688,-0.689 0.692,-1.804 0.005,-2.494 -0.346,-0.345 -0.797,-0.518 -1.249,-0.518 m 210.202,-6.17 c -0.486,0 -0.971,0.199 -1.319,0.593 -0.645,0.728 -0.58,1.842 0.15,2.487 0.871,0.773 1.733,1.556 2.585,2.348 0.711,0.659 1.826,0.619 2.492,-0.093 0.661,-0.714 0.62,-1.83 -0.093,-2.492 -0.872,-0.809 -1.755,-1.609 -2.647,-2.399 -0.335,-0.298 -0.752,-0.444 -1.168,-0.444 m -201.11,-2.198 c -0.405,0 -0.811,0.138 -1.141,0.42 -0.909,0.773 -1.807,1.552 -2.695,2.34 -0.728,0.648 -0.794,1.761 -0.148,2.489 0.648,0.73 1.76,0.793 2.488,0.148 0.871,-0.774 1.749,-1.537 2.637,-2.292 0.742,-0.63 0.831,-1.744 0.201,-2.484 -0.349,-0.411 -0.845,-0.621 -1.342,-0.621 m 191.539,-5.631 c -0.535,0 -1.064,0.242 -1.41,0.702 -0.585,0.778 -0.43,1.883 0.348,2.468 0.931,0.7 1.854,1.411 2.766,2.134 0.767,0.6 1.876,0.471 2.476,-0.291 0.603,-0.764 0.472,-1.873 -0.29,-2.477 -0.937,-0.736 -1.88,-1.464 -2.832,-2.182 -0.316,-0.239 -0.69,-0.354 -1.058,-0.354 m -181.812,-1.98 c -0.356,0 -0.716,0.109 -1.027,0.332 -0.969,0.696 -1.926,1.401 -2.876,2.119 -0.776,0.587 -0.929,1.692 -0.342,2.47 0.585,0.776 1.69,0.931 2.469,0.342 0.926,-0.7 1.862,-1.389 2.807,-2.07 0.79,-0.568 0.971,-1.67 0.401,-2.46 -0.344,-0.478 -0.884,-0.733 -1.432,-0.733 m 171.64,-5.058 c -0.583,0 -1.154,0.289 -1.49,0.819 -0.521,0.821 -0.277,1.911 0.546,2.432 0.984,0.625 1.962,1.258 2.931,1.905 0.81,0.541 1.903,0.322 2.443,-0.488 0.541,-0.811 0.322,-1.904 -0.488,-2.444 -0.993,-0.661 -1.992,-1.312 -3,-1.95 -0.293,-0.186 -0.62,-0.274 -0.942,-0.274 m -161.339,-1.745 c -0.312,0 -0.625,0.083 -0.911,0.255 -1.018,0.616 -2.027,1.242 -3.029,1.879 -0.822,0.522 -1.065,1.611 -0.542,2.432 0.522,0.821 1.613,1.062 2.432,0.542 0.981,-0.623 1.969,-1.236 2.964,-1.838 0.833,-0.504 1.1,-1.587 0.595,-2.42 -0.33,-0.547 -0.912,-0.85 -1.509,-0.85 m 150.629,-4.452 c -0.633,0 -1.246,0.342 -1.561,0.943 -0.454,0.86 -0.122,1.926 0.74,2.378 1.033,0.544 2.057,1.098 3.076,1.664 0.857,0.477 1.924,0.166 2.397,-0.683 0.474,-0.852 0.167,-1.924 -0.683,-2.397 -1.043,-0.58 -2.095,-1.148 -3.151,-1.702 -0.262,-0.138 -0.542,-0.203 -0.818,-0.203 M -65.08,-290.91 c -0.264,0 -0.534,0.06 -0.785,0.186 -1.064,0.53 -2.12,1.074 -3.17,1.626 -0.861,0.455 -1.191,1.52 -0.737,2.382 0.454,0.861 1.518,1.191 2.382,0.737 1.026,-0.542 2.058,-1.072 3.098,-1.592 0.871,-0.434 1.225,-1.492 0.79,-2.363 -0.308,-0.618 -0.931,-0.976 -1.578,-0.976 m 128.634,-3.819 c -0.685,0 -1.336,0.401 -1.621,1.072 -0.383,0.895 0.036,1.931 0.931,2.312 1.075,0.458 2.142,0.929 3.204,1.411 0.887,0.403 1.931,0.009 2.334,-0.878 0.401,-0.886 0.009,-1.931 -0.878,-2.333 -1.086,-0.493 -2.18,-0.975 -3.28,-1.443 -0.226,-0.096 -0.46,-0.141 -0.69,-0.141 m -117.382,-1.236 c -0.22,0 -0.442,0.042 -0.659,0.128 -1.1,0.444 -2.196,0.898 -3.286,1.365 -0.895,0.382 -1.309,1.418 -0.926,2.313 0.382,0.895 1.422,1.313 2.313,0.926 1.066,-0.456 2.138,-0.9 3.217,-1.334 0.902,-0.363 1.339,-1.391 0.976,-2.294 -0.277,-0.687 -0.938,-1.104 -1.635,-1.104 m 105.801,-3.158 c -0.739,0 -1.427,0.467 -1.673,1.207 -0.307,0.922 0.193,1.92 1.117,2.229 1.108,0.368 2.211,0.75 3.308,1.146 0.917,0.332 1.926,-0.148 2.256,-1.062 0.329,-0.917 -0.146,-1.926 -1.062,-2.256 -1.124,-0.403 -2.254,-0.796 -3.39,-1.174 -0.185,-0.06 -0.372,-0.09 -0.556,-0.09 m -94.158,-0.981 c -0.172,0 -0.348,0.026 -0.523,0.079 -1.138,0.353 -2.272,0.72 -3.401,1.098 -0.923,0.312 -1.418,1.31 -1.108,2.234 0.311,0.919 1.304,1.413 2.234,1.109 1.101,-0.372 2.208,-0.728 3.321,-1.074 0.93,-0.289 1.449,-1.275 1.16,-2.207 -0.234,-0.755 -0.931,-1.239 -1.683,-1.239 m 82.281,-2.451 c -0.792,0 -1.513,0.539 -1.711,1.343 -0.231,0.946 0.348,1.9 1.292,2.132 1.131,0.277 2.26,0.568 3.381,0.871 0.932,0.251 1.905,-0.301 2.161,-1.242 0.253,-0.94 -0.303,-1.907 -1.242,-2.162 -1.148,-0.31 -2.301,-0.608 -3.46,-0.892 -0.141,-0.034 -0.282,-0.05 -0.421,-0.05 m -70.335,-0.733 c -0.127,0 -0.258,0.014 -0.387,0.043 -1.164,0.26 -2.324,0.534 -3.477,0.82 -0.945,0.234 -1.521,1.189 -1.287,2.134 0.232,0.945 1.184,1.514 2.134,1.287 1.129,-0.279 2.261,-0.546 3.401,-0.802 0.95,-0.213 1.547,-1.155 1.334,-2.105 -0.185,-0.819 -0.911,-1.377 -1.718,-1.377 m 58.224,-1.726 c -0.851,0 -1.599,0.616 -1.739,1.482 -0.155,0.962 0.499,1.866 1.46,2.02 1.151,0.186 2.299,0.384 3.44,0.596 0.947,0.182 1.876,-0.454 2.053,-1.413 0.178,-0.957 -0.456,-1.876 -1.413,-2.053 -1.168,-0.215 -2.34,-0.42 -3.519,-0.61 -0.095,-0.015 -0.19,-0.022 -0.282,-0.022 m -46.063,-0.473 c -0.079,0 -0.162,0.005 -0.243,0.017 -1.184,0.163 -2.363,0.342 -3.537,0.534 -0.96,0.156 -1.612,1.063 -1.456,2.023 0.155,0.961 1.052,1.618 2.024,1.457 1.147,-0.188 2.296,-0.364 3.451,-0.524 0.964,-0.132 1.639,-1.022 1.504,-1.986 -0.122,-0.883 -0.876,-1.521 -1.743,-1.521 m 33.793,-1 c -0.91,0 -1.681,0.7 -1.755,1.623 -0.076,0.971 0.648,1.819 1.617,1.896 1.164,0.092 2.322,0.197 3.477,0.317 0.959,0.086 1.833,-0.604 1.934,-1.573 0.1,-0.969 -0.604,-1.835 -1.573,-1.934 -1.182,-0.121 -2.368,-0.229 -3.559,-0.324 -0.048,-0.003 -0.094,-0.005 -0.141,-0.005 m -21.496,-0.22 c -0.034,0 -0.069,10e-4 -0.105,0.003 -1.193,0.069 -2.38,0.153 -3.564,0.25 -0.971,0.08 -1.692,0.931 -1.613,1.901 0.081,0.969 0.929,1.682 1.902,1.613 1.156,-0.096 2.316,-0.177 3.481,-0.246 0.971,-0.057 1.713,-0.89 1.656,-1.862 -0.055,-0.937 -0.831,-1.659 -1.757,-1.659 m 9.149,-0.269 -0.325,0.002 c -0.974,0 -1.763,0.788 -1.763,1.762 0,0.974 0.789,1.763 1.763,1.763 l 0.353,-0.002 c 1.139,0 2.304,0.014 3.468,0.039 0.988,-0.022 1.779,-0.752 1.8,-1.724 0.02,-0.973 -0.751,-1.778 -1.725,-1.8 -1.187,-0.026 -2.376,-0.04 -3.571,-0.04"
         style="fill:#9dc5fa;fill-opacity:1;fill-rule:nonzero;stroke:none"
         transform="matrix(1.3333333,0,0,-1.3333333,186.2304,325.72373)"
         clip-path="url(#clipPath5)"
         id="path6" />
    </g>
    <g
       opacity="0.270004"
       id="g9"
       clip-path="url(#clipPath10)">
      <path
         d="m 0,0 v -33.076 c 69.578,-0.26 125.905,-56.733 125.905,-126.372 0,-69.639 -56.327,-126.112 -125.905,-126.373 v -33.075 c 88.061,0 159.448,71.387 159.448,159.448 C 159.448,-71.387 88.061,0 0,0"
         style="fill:#9dc5fa;fill-opacity:1;fill-rule:nonzero;stroke:none"
         transform="matrix(1.3333333,0,0,-1.3333333,-1.0018667,315.40227)"
         clip-path="url(#clipPath8)"
         id="path9" />
    </g>
    <text
       id="text10"
       xml:space="preserve"
       transform="matrix(1.3333333,0,0,1.3333333,321.3516,947.44667)"><tspan
         style="font-variant:normal;font-weight:bold;font-stretch:normal;font-size:15px;font-family:Bahnschrift;writing-mode:lr-tb;fill:#ffffff;fill-opacity:1;fill-rule:nonzero;stroke:none"
         x="0 11.4 22.799999 34.200001 37.904999 41.220001 48.435001 60.615002 68.610001 74.010002 82.019997 89.849998 98.025002 101.73 109.44 117.45"
         y="0"
         sodipodi:role="line"
         id="tspan10">www.lymgroup.com</tspan></text>
    <path
       id="path11"
       d="m 0,0 h 2.787 v -16.928 h 8.763 v -2.536 H 0 Z"
       style="fill:#ffffff;fill-opacity:1;fill-rule:nonzero;stroke:none"
       transform="matrix(1.3333333,0,0,-1.3333333,161.98467,110.28453)" />
    <path
       id="path12"
       d="M 0,0 H 11.035 V -2.48 H 2.787 v -5.935 h 7.969 v -2.494 H 2.787 v -6.047 h 8.512 v -2.48 H 0 Z"
       style="fill:#ffffff;fill-opacity:1;fill-rule:nonzero;stroke:none"
       transform="matrix(1.3333333,0,0,-1.3333333,180.63613,110.28453)" />
    <path
       id="path13"
       d="M 0,0 H 6.535 V -8.248 C 4.138,-9.289 1.76,-9.809 -0.599,-9.809 c -3.223,0 -5.798,0.941 -7.726,2.822 -1.927,1.881 -2.891,4.201 -2.891,6.959 0,2.907 0.999,5.327 2.996,7.259 1.997,1.932 4.5,2.898 7.509,2.898 1.096,0 2.137,-0.118 3.121,-0.355 C 3.395,9.537 4.64,9.103 6.144,8.471 V 5.629 c -2.322,1.347 -4.625,2.02 -6.91,2.02 -2.127,0 -3.92,-0.724 -5.378,-2.173 -1.459,-1.449 -2.188,-3.228 -2.188,-5.337 0,-2.21 0.729,-4.017 2.188,-5.42 1.458,-1.402 3.334,-2.103 5.628,-2.103 1.115,0 2.448,0.255 3.999,0.766 l 0.265,0.084 V -2.48 L 0,-2.48 Z"
       style="fill:#ffffff;fill-opacity:1;fill-rule:nonzero;stroke:none"
       transform="matrix(1.3333333,0,0,-1.3333333,213.68453,123.4556)"
       clip-path="url(#clipPath14)" />
    <path
       id="path15"
       d="m 0,0 v -3.065 c -2.043,-1.115 -4.403,-1.672 -7.078,-1.672 -2.173,0 -4.017,0.436 -5.531,1.31 -1.514,0.873 -2.712,2.076 -3.595,3.608 -0.882,1.533 -1.323,3.191 -1.323,4.974 0,2.833 1.01,5.216 3.03,7.148 2.02,1.932 4.512,2.898 7.475,2.898 2.043,0 4.314,-0.534 6.813,-1.603 v -2.995 c -2.276,1.3 -4.5,1.95 -6.674,1.95 -2.229,0 -4.08,-0.703 -5.552,-2.11 -1.472,-1.408 -2.208,-3.17 -2.208,-5.288 0,-2.136 0.724,-3.892 2.173,-5.266 1.449,-1.375 3.302,-2.062 5.559,-2.062 2.36,0 4.663,0.724 6.911,2.173"
       style="fill:#ffffff;fill-opacity:1;fill-rule:nonzero;stroke:none"
       transform="matrix(1.3333333,0,0,-1.3333333,274.04147,130.21773)"
       clip-path="url(#clipPath16)" />
    <path
       id="path17"
       d="m 0,0 h 3.372 l -7.19,-9.168 V -19.464 H -6.674 V -9.168 L -13.863,0 h 3.372 l 5.21,-6.716 z"
       style="fill:#ffffff;fill-opacity:1;fill-rule:nonzero;stroke:none"
       transform="matrix(1.3333333,0,0,-1.3333333,294.23467,110.28453)"
       clip-path="url(#clipPath18)" />
    <path
       id="path19"
       d="m 0,0 3.289,-7.287 c -1.115,-0.619 -2.13,-0.934 -3.103,-0.935 -1.009,10e-4 -2.069,0.341 -3.239,1.009 z m 6.918,-15.347 h 2.87 L 1.005,4.351 h -1.97 l -8.419,-19.698 h 2.887 l 2.41,5.692 c 1.299,-0.594 2.819,-1.021 4.269,-1.022 v 0 H 0.186 0.19 v 0 c 1.419,10e-4 2.906,0.41 4.186,0.984 z"
       style="fill:#ffffff;fill-opacity:1;fill-rule:nonzero;stroke:none"
       transform="matrix(1.3333333,0,0,-1.3333333,237.7084,114.8568)"
       clip-path="url(#clipPath20)" />
    <path
       id="path21"
       d="m 0,0 c 0.294,0 0.493,0.116 0.493,0.36 0,0.217 -0.175,0.355 -0.427,0.355 h -0.617 l 0,-0.715 z m -0.936,1.04 h 1.051 c 0.587,0 0.786,-0.367 0.786,-0.623 0,-0.386 -0.275,-0.664 -0.679,-0.686 v -0.012 c 0.205,-0.072 0.355,-0.277 0.552,-0.595 l 0.29,-0.463 H 0.595 l -0.211,0.373 c -0.299,0.534 -0.413,0.635 -0.707,0.635 h -0.228 v -1.008 h -0.385 z m 0.965,0.69 c -1.02,0 -1.842,-0.823 -1.842,-1.844 0,-1.02 0.822,-1.848 1.842,-1.848 1.024,0 1.852,0.828 1.852,1.848 0,1.021 -0.828,1.844 -1.852,1.844 m 0,-4.057 c -1.222,0 -2.207,0.988 -2.207,2.213 0,1.225 0.985,2.209 2.207,2.209 1.226,0 2.218,-0.984 2.218,-2.209 0,-1.225 -0.992,-2.213 -2.218,-2.213"
       style="fill:#ffffff;fill-opacity:1;fill-rule:nonzero;stroke:none"
       transform="matrix(1.3333333,0,0,-1.3333333,276.84093,144.50533)"
       clip-path="url(#clipPath22)" />
    <path
       id="path23"
       d="M 0,0 H 1.516 V -11.145 H 0.144 l -7.452,8.576 v -8.576 h -1.5 V 0 h 1.293 L 0,-8.648 Z"
       style="fill:#ffffff;fill-opacity:1;fill-rule:nonzero;stroke:none"
       transform="matrix(1.3333333,0,0,-1.3333333,203.36013,142.0556)"
       clip-path="url(#clipPath24)" />
    <path
       id="path25"
       d="m 0,0 h -5.162 c 0.038,-0.702 0.273,-1.26 0.706,-1.675 0.434,-0.415 0.994,-0.623 1.68,-0.623 0.957,0 1.84,0.298 2.648,0.894 v -1.42 C -0.574,-3.122 -1.017,-3.335 -1.456,-3.462 -1.895,-3.59 -2.409,-3.654 -3,-3.654 c -0.808,0 -1.462,0.168 -1.962,0.503 -0.5,0.335 -0.9,0.786 -1.201,1.352 -0.3,0.566 -0.451,1.222 -0.451,1.967 0,1.116 0.317,2.025 0.95,2.724 0.633,0.699 1.454,1.049 2.465,1.049 0.973,0 1.75,-0.34 2.329,-1.021 C -0.29,2.239 0,1.327 0,0.183 Z m -5.13,0.87 h 3.694 C -1.473,1.449 -1.646,1.896 -1.955,2.21 -2.263,2.524 -2.678,2.681 -3.199,2.681 -3.72,2.681 -4.147,2.524 -4.48,2.21 -4.812,1.896 -5.029,1.449 -5.13,0.87"
       style="fill:#ffffff;fill-opacity:1;fill-rule:nonzero;stroke:none"
       transform="matrix(1.3333333,0,0,-1.3333333,216.6352,152.19267)"
       clip-path="url(#clipPath26)" />
    <path
       id="path27"
       d="M 0,0 2.728,2.681 V 1.165 H 5.05 V -0.144 H 2.728 v -3.598 c 0,-0.84 0.349,-1.26 1.045,-1.26 0.522,0 1.072,0.175 1.652,0.526 V -5.832 C 4.866,-6.146 4.257,-6.302 3.598,-6.302 2.933,-6.302 2.38,-6.108 1.939,-5.72 1.8,-5.603 1.686,-5.471 1.596,-5.325 1.505,-5.179 1.429,-4.987 1.368,-4.751 1.307,-4.514 1.276,-4.063 1.276,-3.399 v 3.255 l -1.276,0 z"
       style="fill:#ffffff;fill-opacity:1;fill-rule:nonzero;stroke:none"
       transform="matrix(1.3333333,0,0,-1.3333333,217.35853,148.6824)"
       clip-path="url(#clipPath28)" />
    <path
       id="path29"
       d="m 0,0 h 1.556 l -3.239,-7.467 h -0.455 l -2.178,5.114 -2.138,-5.114 H -6.925 L -10.196,0 H -8.64 L -6.717,-4.452 -4.85,0 h 1.077 l 1.858,-4.452 z"
       style="fill:#ffffff;fill-opacity:1;fill-rule:nonzero;stroke:none"
       transform="matrix(1.3333333,0,0,-1.3333333,238.2072,147.12947)"
       clip-path="url(#clipPath30)" />
    <path
       id="path31"
       d="m 0,0 c 1.117,0 2.045,-0.36 2.784,-1.081 0.739,-0.721 1.109,-1.626 1.109,-2.716 0,-1.059 -0.375,-1.938 -1.125,-2.637 -0.75,-0.699 -1.694,-1.049 -2.832,-1.049 -1.101,0 -2.021,0.355 -2.76,1.065 -0.739,0.71 -1.109,1.597 -1.109,2.66 0,1.075 0.374,1.97 1.121,2.685 C -2.065,-0.358 -1.128,0 0,0 m -0.08,-1.308 c -0.697,0 -1.268,-0.229 -1.715,-0.686 -0.447,-0.458 -0.67,-1.04 -0.67,-1.748 0,-0.702 0.229,-1.275 0.686,-1.719 0.457,-0.444 1.045,-0.666 1.763,-0.666 0.713,0 1.296,0.225 1.751,0.674 0.455,0.45 0.682,1.025 0.682,1.727 0,0.697 -0.236,1.274 -0.71,1.732 -0.473,0.457 -1.069,0.686 -1.787,0.686"
       style="fill:#ffffff;fill-opacity:1;fill-rule:nonzero;stroke:none"
       transform="matrix(1.3333333,0,0,-1.3333333,245.89787,147.10827)"
       clip-path="url(#clipPath32)" />
    <path
       id="path33"
       d="m 0,0 v -1.683 l 0.08,0.127 c 0.702,1.133 1.404,1.7 2.106,1.7 0.548,0 1.119,-0.277 1.715,-0.83 L 3.135,-1.963 C 2.63,-1.484 2.162,-1.245 1.731,-1.245 1.263,-1.245 0.858,-1.468 0.515,-1.915 0.171,-2.361 0,-2.891 0,-3.502 V -7.34 H -1.46 V 0 Z"
       style="fill:#ffffff;fill-opacity:1;fill-rule:nonzero;stroke:none"
       transform="matrix(1.3333333,0,0,-1.3333333,255.3116,147.12947)"
       clip-path="url(#clipPath34)" />
    <path
       id="path35"
       d="M 0,0 H 1.731 L -1.404,-3.598 2.369,-7.34 H 0.423 l -3.678,3.742 z m -4.771,3.805 h 1.452 V -7.34 h -1.452 z"
       style="fill:#ffffff;fill-opacity:1;fill-rule:nonzero;stroke:none"
       transform="matrix(1.3333333,0,0,-1.3333333,268.22507,147.12947)"
       clip-path="url(#clipPath36)" />
    <path
       id="path37"
       d="M 0,0 C -0.02,3.238 2.587,5.877 5.823,5.897 9.059,5.917 11.701,3.311 11.721,0.073 11.742,-3.164 9.132,-5.803 5.897,-5.823 2.66,-5.844 0.02,-3.238 0,0"
       style="fill:#ffffff;fill-opacity:1;fill-rule:nonzero;stroke:none"
       transform="matrix(1.3333333,0,0,-1.3333333,127.91387,136.5444)"
       clip-path="url(#clipPath38)" />
    <path
       id="path39"
       d="M 0,0 C -0.02,3.238 2.587,5.877 5.824,5.897 9.06,5.917 11.698,3.311 11.718,0.073 11.738,-3.163 9.13,-5.803 5.897,-5.823 2.66,-5.844 0.02,-3.237 0,0"
       style="fill:#ffffff;fill-opacity:1;fill-rule:nonzero;stroke:none"
       transform="matrix(1.3333333,0,0,-1.3333333,127.36147,153.77413)"
       clip-path="url(#clipPath40)" />
    <path
       id="path41"
       d="M 0,0 C -0.02,3.235 2.588,5.876 5.824,5.897 9.061,5.917 11.7,3.308 11.72,0.073 11.741,-3.165 9.135,-5.803 5.897,-5.823 2.661,-5.844 0.02,-3.238 0,0"
       style="fill:#ffffff;fill-opacity:1;fill-rule:nonzero;stroke:none"
       transform="matrix(1.3333333,0,0,-1.3333333,85.142933,113.18467)"
       clip-path="url(#clipPath42)" />
    <path
       id="path43"
       d="M 0,0 C -0.02,3.237 2.587,5.877 5.822,5.898 9.061,5.918 11.699,3.31 11.719,0.073 11.739,-3.163 9.135,-5.803 5.896,-5.823 2.66,-5.843 0.02,-3.237 0,0"
       style="fill:#ffffff;fill-opacity:1;fill-rule:nonzero;stroke:none"
       transform="matrix(1.3333333,0,0,-1.3333333,85.244267,129.088)"
       clip-path="url(#clipPath44)" />
    <path
       id="path45"
       d="M 0,0 C -0.02,3.238 2.587,5.875 5.822,5.896 9.061,5.916 11.699,3.311 11.719,0.073 11.739,-3.163 9.133,-5.803 5.896,-5.823 2.66,-5.844 0.02,-3.237 0,0"
       style="fill:#ffffff;fill-opacity:1;fill-rule:nonzero;stroke:none"
       transform="matrix(1.3333333,0,0,-1.3333333,85.343733,144.99093)"
       clip-path="url(#clipPath46)" />
    <path
       id="path47"
       d="M 0,0 C -0.02,3.235 2.584,5.876 5.819,5.897 9.057,5.917 11.697,3.308 11.718,0.073 11.738,-3.164 9.13,-5.805 5.893,-5.825 2.658,-5.845 0.02,-3.237 0,0"
       style="fill:#ffffff;fill-opacity:1;fill-rule:nonzero;stroke:none"
       transform="matrix(1.3333333,0,0,-1.3333333,99.450533,105.00573)"
       clip-path="url(#clipPath48)" />
    <path
       id="path49"
       d="M 0,0 C -0.02,3.235 2.584,5.875 5.82,5.895 9.057,5.915 11.697,3.309 11.718,0.073 11.738,-3.165 9.13,-5.805 5.893,-5.825 2.658,-5.845 0.02,-3.238 0,0"
       style="fill:#ffffff;fill-opacity:1;fill-rule:nonzero;stroke:none"
       transform="matrix(1.3333333,0,0,-1.3333333,99.55,120.908)"
       clip-path="url(#clipPath50)" />
    <path
       id="path51"
       d="M 0,0 C -0.02,3.237 2.584,5.876 5.82,5.896 9.057,5.916 11.697,3.31 11.718,0.073 11.738,-3.164 9.13,-5.803 5.893,-5.823 2.658,-5.844 0.02,-3.238 0,0"
       style="fill:#ffffff;fill-opacity:1;fill-rule:nonzero;stroke:none"
       transform="matrix(1.3333333,0,0,-1.3333333,99.649467,136.81067)"
       clip-path="url(#clipPath52)" />
    <path
       id="path53"
       d="M 0,0 C -0.02,3.235 2.588,5.876 5.823,5.897 9.06,5.917 11.7,3.308 11.72,0.073 11.741,-3.165 9.133,-5.803 5.897,-5.823 2.661,-5.844 0.02,-3.238 0,0"
       style="fill:#ffffff;fill-opacity:1;fill-rule:nonzero;stroke:none"
       transform="matrix(1.3333333,0,0,-1.3333333,113.85427,113.00507)"
       clip-path="url(#clipPath54)" />
    <path
       id="path55"
       d="M 0,0 C -0.02,3.237 2.588,5.877 5.823,5.898 9.06,5.918 11.7,3.31 11.72,0.073 11.741,-3.163 9.133,-5.803 5.897,-5.823 2.661,-5.843 0.02,-3.237 0,0"
       style="fill:#ffffff;fill-opacity:1;fill-rule:nonzero;stroke:none"
       transform="matrix(1.3333333,0,0,-1.3333333,113.95373,128.90853)"
       clip-path="url(#clipPath56)" />
    <path
       id="path57"
       d="M 0,0 C -0.02,3.238 2.588,5.875 5.823,5.896 9.06,5.916 11.7,3.311 11.72,0.073 11.741,-3.163 9.132,-5.803 5.897,-5.823 2.659,-5.844 0.02,-3.237 0,0"
       style="fill:#ffffff;fill-opacity:1;fill-rule:nonzero;stroke:none"
       transform="matrix(1.3333333,0,0,-1.3333333,114.0532,144.81133)"
       clip-path="url(#clipPath58)" />
    <path
       id="path59"
       d="M 0,0 C -0.02,3.235 2.588,5.877 5.822,5.897 9.06,5.917 11.7,3.308 11.72,0.073 11.741,-3.165 9.133,-5.802 5.895,-5.822 2.661,-5.843 0.02,-3.237 0,0"
       style="fill:#ffffff;fill-opacity:1;fill-rule:nonzero;stroke:none"
       transform="matrix(1.3333333,0,0,-1.3333333,71.3832,137.55773)"
       clip-path="url(#clipPath60)" />
    <path
       id="path61"
       d="M 0,0 C -0.02,3.238 2.587,5.877 5.824,5.897 9.059,5.917 11.7,3.311 11.72,0.073 11.741,-3.163 9.132,-5.803 5.897,-5.822 2.659,-5.843 0.02,-3.237 0,0"
       style="fill:#ffffff;fill-opacity:1;fill-rule:nonzero;stroke:none"
       transform="matrix(1.3333333,0,0,-1.3333333,72.1484,154.11947)"
       clip-path="url(#clipPath62)" />
    <path
       id="path63"
       d="M 0,0 C -0.02,3.237 2.588,5.878 5.822,5.898 9.061,5.918 11.699,3.31 11.719,0.073 11.74,-3.162 9.135,-5.801 5.896,-5.821 2.661,-5.841 0.02,-3.235 0,0"
       style="fill:#ffffff;fill-opacity:1;fill-rule:nonzero;stroke:none"
       transform="matrix(1.3333333,0,0,-1.3333333,140.8896,162.63267)"
       clip-path="url(#clipPath64)" />
    <path
       id="path65"
       d="M 0,0 C -0.02,3.238 2.587,5.878 5.823,5.898 9.059,5.918 11.699,3.311 11.719,0.073 11.739,-3.161 9.132,-5.801 5.897,-5.821 2.66,-5.841 0.02,-3.234 0,0"
       style="fill:#ffffff;fill-opacity:1;fill-rule:nonzero;stroke:none"
       transform="matrix(1.3333333,0,0,-1.3333333,58.730533,163.14653)"
       clip-path="url(#clipPath66)" />
    <path
       id="path67"
       d="M 0,0 H 15.076 V -2.299 H 8.785 V -18.073 H 6.188 v 15.774 l -6.188,0 z"
       style="fill:#ffffff;fill-opacity:1;fill-rule:nonzero;stroke:none"
       transform="matrix(1.3333333,0,0,-1.3333333,659.08987,139.54173)"
       clip-path="url(#clipPath68)" />
    <path
       id="path69"
       d="m 0,0 h -8.358 c 0.06,-1.137 0.441,-2.041 1.143,-2.713 0.702,-0.672 1.608,-1.008 2.719,-1.008 1.551,0 2.98,0.483 4.289,1.447 v -2.299 c -0.723,-0.483 -1.44,-0.827 -2.151,-1.034 -0.71,-0.206 -1.543,-0.31 -2.499,-0.31 -1.31,0 -2.369,0.271 -3.178,0.814 -0.81,0.543 -1.458,1.273 -1.945,2.19 -0.486,0.917 -0.73,1.979 -0.73,3.184 0,1.809 0.513,3.28 1.538,4.412 1.025,1.133 2.355,1.699 3.992,1.699 1.576,0 2.833,-0.551 3.772,-1.654 C -0.469,3.626 0,2.149 0,0.297 Z m -8.307,1.408 h 5.982 c -0.061,0.939 -0.341,1.662 -0.84,2.17 -0.5,0.509 -1.171,0.763 -2.015,0.763 -0.844,0 -1.536,-0.254 -2.074,-0.763 C -7.792,3.07 -8.143,2.347 -8.307,1.408"
       style="fill:#ffffff;fill-opacity:1;fill-rule:nonzero;stroke:none"
       transform="matrix(1.3333333,0,0,-1.3333333,690.2328,155.9916)"
       clip-path="url(#clipPath70)" />
    <path
       id="path71"
       d="M 0,0 V 2.532 C 0.663,2.067 1.341,1.69 2.035,1.402 2.728,1.113 3.312,0.969 3.785,0.969 c 0.491,0 0.913,0.121 1.266,0.362 0.353,0.241 0.53,0.529 0.53,0.865 0,0.345 -0.114,0.631 -0.342,0.859 C 5.01,3.284 4.517,3.613 3.759,4.044 2.244,4.888 1.251,5.609 0.782,6.208 0.312,6.806 0.078,7.458 0.078,8.165 c 0,0.913 0.355,1.658 1.065,2.235 0.711,0.577 1.626,0.865 2.746,0.865 1.162,0 2.355,-0.327 3.578,-0.982 V 7.958 C 6.072,8.802 4.931,9.224 4.044,9.224 3.587,9.224 3.219,9.127 2.939,8.933 2.659,8.74 2.519,8.483 2.519,8.165 2.519,7.889 2.646,7.626 2.9,7.377 3.154,7.127 3.6,6.825 4.237,6.472 L 5.077,5.994 C 7.058,4.875 8.048,3.635 8.048,2.274 8.048,1.301 7.667,0.502 6.905,-0.123 6.143,-0.747 5.163,-1.059 3.966,-1.059 3.26,-1.059 2.631,-0.984 2.08,-0.833 1.529,-0.682 0.835,-0.405 0,0"
       style="fill:#ffffff;fill-opacity:1;fill-rule:nonzero;stroke:none"
       transform="matrix(1.3333333,0,0,-1.3333333,692.85093,162.50267)"
       clip-path="url(#clipPath72)" />
    <path
       id="path73"
       d="M 0,0 4.418,4.341 V 1.886 h 3.76 v -2.119 h -3.76 v -5.826 c 0,-1.361 0.564,-2.041 1.693,-2.041 0.844,0 1.735,0.284 2.674,0.853 v -2.197 c -0.905,-0.508 -1.891,-0.762 -2.959,-0.762 -1.076,0 -1.972,0.315 -2.687,0.943 -0.224,0.19 -0.409,0.403 -0.555,0.64 -0.147,0.237 -0.269,0.547 -0.369,0.93 -0.099,0.383 -0.148,1.113 -0.148,2.19 v 5.27 l -2.067,0 z"
       style="fill:#ffffff;fill-opacity:1;fill-rule:nonzero;stroke:none"
       transform="matrix(1.3333333,0,0,-1.3333333,704.97733,150.30733)"
       clip-path="url(#clipPath74)" />
    <path
       id="path75"
       d="m 0,0 h 2.617 v -15.898 h 8.231 V -18.28 H 0 Z"
       style="fill:#ffffff;fill-opacity:1;fill-rule:nonzero;stroke:none"
       transform="matrix(1.3333333,0,0,-1.3333333,623.67627,110.0828)"
       clip-path="url(#clipPath76)" />
    <path
       id="path77"
       d="M 0,0 H 10.364 V -2.329 H 2.617 v -5.575 h 7.485 v -2.342 H 2.617 v -5.679 h 7.995 v -2.329 H 0 Z"
       style="fill:#ffffff;fill-opacity:1;fill-rule:nonzero;stroke:none"
       transform="matrix(1.3333333,0,0,-1.3333333,641.19307,110.0828)"
       clip-path="url(#clipPath78)" />
    <path
       id="path79"
       d="m 0,0 h 6.137 v -7.747 c -2.251,-0.977 -4.484,-1.465 -6.7,-1.465 -3.027,0 -5.445,0.883 -7.255,2.65 -1.811,1.766 -2.716,3.945 -2.716,6.536 0,2.73 0.938,5.003 2.814,6.817 1.875,1.815 4.226,2.722 7.053,2.722 1.029,0 2.006,-0.111 2.931,-0.334 C 3.188,8.957 4.357,8.549 5.771,7.956 V 5.286 C 3.59,6.551 1.426,7.184 -0.72,7.184 -2.717,7.184 -4.401,6.503 -5.771,5.143 -7.14,3.782 -7.825,2.111 -7.825,0.131 c 0,-2.076 0.685,-3.773 2.054,-5.09 1.37,-1.318 3.132,-1.976 5.287,-1.976 1.047,0 2.299,0.24 3.755,0.719 l 0.249,0.079 v 3.808 H 0 Z"
       style="fill:#ffffff;fill-opacity:1;fill-rule:nonzero;stroke:none"
       transform="matrix(1.3333333,0,0,-1.3333333,672.23133,122.45267)"
       clip-path="url(#clipPath80)" />
    <path
       id="path81"
       d="m 0,0 v -2.879 c -1.919,-1.047 -4.135,-1.57 -6.647,-1.57 -2.042,0 -3.773,0.41 -5.195,1.23 -1.422,0.82 -2.547,1.95 -3.376,3.389 -0.829,1.439 -1.243,2.997 -1.243,4.672 0,2.66 0.948,4.898 2.846,6.712 1.897,1.815 4.237,2.722 7.02,2.722 1.919,0 4.052,-0.502 6.399,-1.505 V 9.958 c -2.137,1.221 -4.227,1.832 -6.268,1.832 -2.094,0 -3.832,-0.661 -5.215,-1.983 -1.382,-1.321 -2.074,-2.976 -2.074,-4.965 0,-2.007 0.681,-3.656 2.042,-4.947 1.361,-1.291 3.101,-1.936 5.221,-1.936 2.215,0 4.379,0.68 6.49,2.041"
       style="fill:#ffffff;fill-opacity:1;fill-rule:nonzero;stroke:none"
       transform="matrix(1.3333333,0,0,-1.3333333,728.9168,128.80347)"
       clip-path="url(#clipPath82)" />
    <path
       id="path83"
       d="m 0,0 h 3.167 l -6.752,-8.61 v -9.67 h -2.683 v 9.67 L -13.02,0 h 3.167 l 4.894,-6.307 z"
       style="fill:#ffffff;fill-opacity:1;fill-rule:nonzero;stroke:none"
       transform="matrix(1.3333333,0,0,-1.3333333,747.88187,110.0828)"
       clip-path="url(#clipPath84)" />
    <path
       id="path85"
       d="M 0,0 3.089,-6.844 C 2.042,-7.425 1.088,-7.721 0.175,-7.722 c -0.948,0.001 -1.944,0.321 -3.042,0.948 z m 6.497,-14.414 h 2.695 l -8.248,18.5 h -1.851 l -7.906,-18.5 h 2.711 l 2.264,5.347 c 1.22,-0.559 2.647,-0.959 4.009,-0.96 v -0.001 h 0.004 0.003 v 0.001 c 1.333,10e-4 2.729,0.384 3.931,0.924 z"
       style="fill:#ffffff;fill-opacity:1;fill-rule:nonzero;stroke:none"
       transform="matrix(1.3333333,0,0,-1.3333333,694.79387,114.37693)"
       clip-path="url(#clipPath86)" />
    <path
       id="path87"
       d="m 0,0 c 0.272,0 0.455,0.107 0.455,0.332 0,0.2 -0.162,0.328 -0.394,0.328 H -0.508 V 0 Z m -0.864,0.96 h 0.97 c 0.542,0 0.725,-0.339 0.725,-0.576 0,-0.355 -0.253,-0.612 -0.627,-0.632 v -0.011 c 0.19,-0.067 0.328,-0.256 0.511,-0.549 L 0.981,-1.235 H 0.549 l -0.194,0.343 c -0.276,0.494 -0.382,0.587 -0.653,0.587 h -0.21 v -0.93 h -0.356 z m 0.891,0.637 c -0.942,0 -1.7,-0.76 -1.7,-1.702 0,-0.942 0.758,-1.706 1.7,-1.706 0.944,0 1.709,0.764 1.709,1.706 0,0.942 -0.765,1.702 -1.709,1.702 m 0,-3.745 c -1.128,0 -2.037,0.913 -2.037,2.043 0,1.131 0.909,2.039 2.037,2.039 1.131,0 2.046,-0.908 2.046,-2.039 0,-1.13 -0.915,-2.043 -2.046,-2.043"
       style="fill:#ffffff;fill-opacity:1;fill-rule:nonzero;stroke:none"
       transform="matrix(1.3333333,0,0,-1.3333333,757.60573,111.50693)"
       clip-path="url(#clipPath88)" />
    <path
       id="path89"
       d="M 0,0 C 2.616,0.016 4.751,-2.093 4.768,-4.709 4.784,-7.327 2.675,-9.46 0.059,-9.477 -2.559,-9.493 -4.692,-7.386 -4.708,-4.768 -4.725,-2.152 -2.618,-0.016 0,0"
       style="fill:#ffffff;fill-opacity:1;fill-rule:nonzero;stroke:none"
       transform="matrix(1.3333333,0,0,-1.3333333,601.80613,104.13653)"
       clip-path="url(#clipPath90)" />
    <path
       id="path91"
       d="M 0,0 C 2.617,0.016 4.752,-2.091 4.768,-4.708 4.785,-7.327 2.677,-9.459 0.059,-9.475 -2.558,-9.492 -4.692,-7.386 -4.708,-4.767 -4.724,-2.151 -2.617,-0.016 0,0"
       style="fill:#ffffff;fill-opacity:1;fill-rule:nonzero;stroke:none"
       transform="matrix(1.3333333,0,0,-1.3333333,588.94733,104.21853)"
       clip-path="url(#clipPath92)" />
    <path
       id="path93"
       d="M 0,0 C 2.616,0.016 4.751,-2.09 4.768,-4.705 4.784,-7.323 2.675,-9.458 0.059,-9.474 -2.558,-9.491 -4.693,-7.382 -4.71,-4.765 -4.726,-2.149 -2.617,-0.016 0,0"
       style="fill:#ffffff;fill-opacity:1;fill-rule:nonzero;stroke:none"
       transform="matrix(1.3333333,0,0,-1.3333333,608.4192,115.70493)"
       clip-path="url(#clipPath94)" />
    <path
       id="path95"
       d="M 0,0 C 2.616,0.016 4.75,-2.09 4.767,-4.705 4.783,-7.323 2.675,-9.458 0.059,-9.474 -2.559,-9.491 -4.693,-7.382 -4.71,-4.765 -4.726,-2.149 -2.618,-0.016 0,0"
       style="fill:#ffffff;fill-opacity:1;fill-rule:nonzero;stroke:none"
       transform="matrix(1.3333333,0,0,-1.3333333,595.56147,115.78547)"
       clip-path="url(#clipPath96)" />
    <path
       id="path97"
       d="M 0,0 C 2.617,0.016 4.751,-2.09 4.767,-4.705 4.784,-7.323 2.676,-9.458 0.059,-9.474 -2.559,-9.491 -4.692,-7.382 -4.708,-4.765 -4.725,-2.149 -2.618,-0.016 0,0"
       style="fill:#ffffff;fill-opacity:1;fill-rule:nonzero;stroke:none"
       transform="matrix(1.3333333,0,0,-1.3333333,582.7032,115.86587)"
       clip-path="url(#clipPath98)" />
    <path
       id="path99"
       d="M 0,0 C 2.616,0.016 4.751,-2.093 4.768,-4.708 4.784,-7.325 2.675,-9.46 0.059,-9.477 -2.559,-9.493 -4.692,-7.385 -4.708,-4.768 -4.725,-2.152 -2.618,-0.016 0,0"
       style="fill:#ffffff;fill-opacity:1;fill-rule:nonzero;stroke:none"
       transform="matrix(1.3333333,0,0,-1.3333333,601.9512,127.3512)"
       clip-path="url(#clipPath100)" />
    <path
       id="path101"
       d="M 0,0 C 2.617,0.016 4.752,-2.093 4.768,-4.708 4.785,-7.325 2.677,-9.46 0.059,-9.477 -2.558,-9.493 -4.692,-7.385 -4.708,-4.768 -4.724,-2.152 -2.617,-0.016 0,0"
       style="fill:#ffffff;fill-opacity:1;fill-rule:nonzero;stroke:none"
       transform="matrix(1.3333333,0,0,-1.3333333,589.09253,127.4316)"
       clip-path="url(#clipPath102)" />
  </g>
</svg>
