<?xml version="1.0" encoding="UTF-8" standalone="no"?>
<!-- Created with Inkscape (http://www.inkscape.org/) -->

<svg
   version="1.1"
   id="svg1"
   width="816"
   height="1056"
   viewBox="0 0 816 1056"
   sodipodi:docname="brochure2.svg"
   inkscape:version="1.3.2 (091e20e, 2023-11-25, custom)"
   xmlns:inkscape="http://www.inkscape.org/namespaces/inkscape"
   xmlns:sodipodi="http://sodipodi.sourceforge.net/DTD/sodipodi-0.dtd"
   xmlns="http://www.w3.org/2000/svg"
   xmlns:svg="http://www.w3.org/2000/svg">
  <defs
     id="defs1">
    <clipPath
       clipPathUnits="userSpaceOnUse"
       id="clipPath1">
      <path
         d="M -3.68701,796.977 H 93.6492 V -5.03821 H -3.68701 Z"
         id="path1" />
    </clipPath>
    <clipPath
       clipPathUnits="userSpaceOnUse"
       id="clipPath3">
      <path
         d="M 0,792 H 612 V 0 H 0 Z"
         transform="matrix(1.3333333,0,0,-1.3333333,0,1056)"
         id="path3" />
    </clipPath>
    <clipPath
       clipPathUnits="userSpaceOnUse"
       id="clipPath5">
      <path
         d="M -347.4,-3.955 H -30.899 V 798.06 H -347.4 Z"
         transform="translate(167.70171,-204.16321)"
         id="path5" />
    </clipPath>
    <clipPath
       clipPathUnits="userSpaceOnUse"
       id="clipPath7">
      <path
         d="M 0,792 H 612 V 0 H 0 Z"
         transform="translate(-271.13131,-68.143899)"
         id="path7" />
    </clipPath>
    <clipPath
       clipPathUnits="userSpaceOnUse"
       id="clipPath9">
      <path
         d="M 0,792 H 612 V 0 H 0 Z"
         transform="translate(-37.573601,-51.872904)"
         id="path9" />
    </clipPath>
    <clipPath
       clipPathUnits="userSpaceOnUse"
       id="clipPath11">
      <path
         d="M 0,792 H 612 V 0 H 0 Z"
         transform="translate(-52.170202,-51.872904)"
         id="path11" />
    </clipPath>
    <clipPath
       clipPathUnits="userSpaceOnUse"
       id="clipPath13">
      <path
         d="M 0,792 H 612 V 0 H 0 Z"
         transform="translate(-78.034104,-41.565226)"
         id="path13" />
    </clipPath>
    <clipPath
       clipPathUnits="userSpaceOnUse"
       id="clipPath15">
      <path
         d="M 0,792 H 612 V 0 H 0 Z"
         transform="translate(-125.26941,-36.273226)"
         id="path15" />
    </clipPath>
    <clipPath
       clipPathUnits="userSpaceOnUse"
       id="clipPath17">
      <path
         d="M 0,792 H 612 V 0 H 0 Z"
         transform="translate(-141.0726,-51.872904)"
         id="path17" />
    </clipPath>
    <clipPath
       clipPathUnits="userSpaceOnUse"
       id="clipPath19">
      <path
         d="M 0,792 H 612 V 0 H 0 Z"
         transform="translate(-96.835105,-48.294601)"
         id="path19" />
    </clipPath>
    <clipPath
       clipPathUnits="userSpaceOnUse"
       id="clipPath21">
      <path
         d="M 0,792 H 612 V 0 H 0 Z"
         transform="translate(-215.87071,-44.001601)"
         id="path21" />
    </clipPath>
    <clipPath
       clipPathUnits="userSpaceOnUse"
       id="clipPath23">
      <path
         d="M 0,792 H 612 V 0 H 0 Z"
         transform="translate(-159.618,-42.794701)"
         id="path23" />
    </clipPath>
    <clipPath
       clipPathUnits="userSpaceOnUse"
       id="clipPath25">
      <path
         d="M 0,792 H 612 V 0 H 0 Z"
         transform="translate(-170.007,-34.861426)"
         id="path25" />
    </clipPath>
    <clipPath
       clipPathUnits="userSpaceOnUse"
       id="clipPath27">
      <path
         d="M 0,792 H 612 V 0 H 0 Z"
         transform="translate(-170.5731,-37.608526)"
         id="path27" />
    </clipPath>
    <clipPath
       clipPathUnits="userSpaceOnUse"
       id="clipPath29">
      <path
         d="M 0,792 H 612 V 0 H 0 Z"
         transform="translate(-186.8893,-38.823901)"
         id="path29" />
    </clipPath>
    <clipPath
       clipPathUnits="userSpaceOnUse"
       id="clipPath31">
      <path
         d="M 0,792 H 612 V 0 H 0 Z"
         transform="translate(-192.90801,-38.840476)"
         id="path31" />
    </clipPath>
    <clipPath
       clipPathUnits="userSpaceOnUse"
       id="clipPath33">
      <path
         d="M 0,792 H 612 V 0 H 0 Z"
         transform="translate(-200.2753,-38.823901)"
         id="path33" />
    </clipPath>
    <clipPath
       clipPathUnits="userSpaceOnUse"
       id="clipPath35">
      <path
         d="M 0,792 H 612 V 0 H 0 Z"
         transform="translate(-210.38131,-38.823901)"
         id="path35" />
    </clipPath>
    <clipPath
       clipPathUnits="userSpaceOnUse"
       id="clipPath37">
      <path
         d="M 0,792 H 612 V 0 H 0 Z"
         transform="translate(-41.463801,-64.968902)"
         id="path37" />
    </clipPath>
    <clipPath
       clipPathUnits="userSpaceOnUse"
       id="clipPath39">
      <path
         d="M 0,792 H 612 V 0 H 0 Z"
         transform="translate(-54.457001,-60.651602)"
         id="path39" />
    </clipPath>
    <clipPath
       clipPathUnits="userSpaceOnUse"
       id="clipPath41">
      <path
         d="M 0,792 H 612 V 0 H 0 Z"
         transform="translate(-63.882602,-59.339401)"
         id="path41" />
    </clipPath>
    <clipPath
       clipPathUnits="userSpaceOnUse"
       id="clipPath43">
      <path
         d="M 0,792 H 612 V 0 H 0 Z"
         transform="translate(-69.453602,-60.651602)"
         id="path43" />
    </clipPath>
    <clipPath
       clipPathUnits="userSpaceOnUse"
       id="clipPath45">
      <path
         d="M 0,792 H 612 V 0 H 0 Z"
         transform="translate(-74.239602,-64.922102)"
         id="path45" />
    </clipPath>
    <clipPath
       clipPathUnits="userSpaceOnUse"
       id="clipPath47">
      <path
         d="M 0,792 H 612 V 0 H 0 Z"
         transform="translate(-84.877802,-59.339401)"
         id="path47" />
    </clipPath>
    <clipPath
       clipPathUnits="userSpaceOnUse"
       id="clipPath49">
      <path
         d="M 0,792 H 612 V 0 H 0 Z"
         transform="translate(-87.1741,-62.127804)"
         id="path49" />
    </clipPath>
    <clipPath
       clipPathUnits="userSpaceOnUse"
       id="clipPath51">
      <path
         d="M 0,792 H 612 V 0 H 0 Z"
         transform="translate(-96.693505,-62.139504)"
         id="path51" />
    </clipPath>
    <clipPath
       clipPathUnits="userSpaceOnUse"
       id="clipPath53">
      <path
         d="M 0,792 H 612 V 0 H 0 Z"
         transform="translate(-100.8585,-62.127804)"
         id="path53" />
    </clipPath>
    <clipPath
       clipPathUnits="userSpaceOnUse"
       id="clipPath54">
      <path
         d="M -4.60284,582.329 H 182.926 V 209.671 H -4.60284 Z"
         transform="translate(-128.3512,-527.75461)"
         id="path54" />
    </clipPath>
    <clipPath
       clipPathUnits="userSpaceOnUse"
       id="clipPath56">
      <path
         d="M 0,792 H 612 V 0 H 0 Z"
         transform="matrix(1.3333333,0,0,-1.3333333,0,1056)"
         id="path56" />
    </clipPath>
    <clipPath
       clipPathUnits="userSpaceOnUse"
       id="clipPath57">
      <path
         d="M -11.3915,551.268 H 299.094 V 240.731 H -11.3915 Z"
         transform="translate(-140.4808,-547.70722)"
         id="path57" />
    </clipPath>
    <clipPath
       clipPathUnits="userSpaceOnUse"
       id="clipPath59">
      <path
         d="M 0,792 H 612 V 0 H 0 Z"
         transform="matrix(1.3333333,0,0,-1.3333333,0,1056)"
         id="path59" />
    </clipPath>
    <clipPath
       clipPathUnits="userSpaceOnUse"
       id="clipPath60">
      <path
         d="M 0.0565338,555.448 H 159.505 V 236.552 H 0.0565338 Z"
         transform="translate(-0.0565,-555.44831)"
         id="path60" />
    </clipPath>
    <clipPath
       clipPathUnits="userSpaceOnUse"
       id="clipPath62">
      <path
         d="M 0,792 H 612 V 0 H 0 Z"
         transform="matrix(1.3333333,0,0,-1.3333333,0,1056)"
         id="path62" />
    </clipPath>
    <clipPath
       clipPathUnits="userSpaceOnUse"
       id="clipPath64">
      <path
         d="M 0,792 H 612 V 0 H 0 Z"
         transform="translate(-353.37051,-721.28922)"
         id="path64" />
    </clipPath>
    <clipPath
       clipPathUnits="userSpaceOnUse"
       id="clipPath66">
      <path
         d="M 0,792 H 612 V 0 H 0 Z"
         transform="translate(-378.89801,-707.80542)"
         id="path66" />
    </clipPath>
    <clipPath
       clipPathUnits="userSpaceOnUse"
       id="clipPath68">
      <path
         d="M 0,792 H 612 V 0 H 0 Z"
         transform="translate(-381.04411,-702.46832)"
         id="path68" />
    </clipPath>
    <clipPath
       clipPathUnits="userSpaceOnUse"
       id="clipPath70">
      <path
         d="M 0,792 H 612 V 0 H 0 Z"
         transform="translate(-390.98401,-712.46472)"
         id="path70" />
    </clipPath>
    <clipPath
       clipPathUnits="userSpaceOnUse"
       id="clipPath72">
      <path
         d="M 0,792 H 612 V 0 H 0 Z"
         transform="translate(-324.34221,-745.43632)"
         id="path72" />
    </clipPath>
    <clipPath
       clipPathUnits="userSpaceOnUse"
       id="clipPath74">
      <path
         d="M 0,792 H 612 V 0 H 0 Z"
         transform="translate(-338.70061,-745.43642)"
         id="path74" />
    </clipPath>
    <clipPath
       clipPathUnits="userSpaceOnUse"
       id="clipPath76">
      <path
         d="M 0,792 H 612 V 0 H 0 Z"
         transform="translate(-364.14241,-735.29692)"
         id="path76" />
    </clipPath>
    <clipPath
       clipPathUnits="userSpaceOnUse"
       id="clipPath78">
      <path
         d="M 0,792 H 612 V 0 H 0 Z"
         transform="translate(-410.60701,-730.09122)"
         id="path78" />
    </clipPath>
    <clipPath
       clipPathUnits="userSpaceOnUse"
       id="clipPath80">
      <path
         d="M 0,792 H 612 V 0 H 0 Z"
         transform="translate(-426.15241,-745.43642)"
         id="path80" />
    </clipPath>
    <clipPath
       clipPathUnits="userSpaceOnUse"
       id="clipPath82">
      <path
         d="M 0,792 H 612 V 0 H 0 Z"
         transform="translate(-382.63671,-741.91652)"
         id="path82" />
    </clipPath>
    <clipPath
       clipPathUnits="userSpaceOnUse"
       id="clipPath84">
      <path
         d="M 0,792 H 612 V 0 H 0 Z"
         transform="translate(-434.12311,-744.26902)"
         id="path84" />
    </clipPath>
    <clipPath
       clipPathUnits="userSpaceOnUse"
       id="clipPath86">
      <path
         d="M 0,792 H 612 V 0 H 0 Z"
         transform="translate(-306.41541,-750.31052)"
         id="path86" />
    </clipPath>
    <clipPath
       clipPathUnits="userSpaceOnUse"
       id="clipPath88">
      <path
         d="M 0,792 H 612 V 0 H 0 Z"
         transform="translate(-295.87521,-750.24332)"
         id="path88" />
    </clipPath>
    <clipPath
       clipPathUnits="userSpaceOnUse"
       id="clipPath90">
      <path
         d="M 0,792 H 612 V 0 H 0 Z"
         transform="translate(-311.83611,-740.82792)"
         id="path90" />
    </clipPath>
    <clipPath
       clipPathUnits="userSpaceOnUse"
       id="clipPath92">
      <path
         d="M 0,792 H 612 V 0 H 0 Z"
         transform="translate(-301.29681,-740.76202)"
         id="path92" />
    </clipPath>
    <clipPath
       clipPathUnits="userSpaceOnUse"
       id="clipPath94">
      <path
         d="M 0,792 H 612 V 0 H 0 Z"
         transform="translate(-290.75701,-740.69602)"
         id="path94" />
    </clipPath>
    <clipPath
       clipPathUnits="userSpaceOnUse"
       id="clipPath96">
      <path
         d="M 0,792 H 612 V 0 H 0 Z"
         transform="translate(-306.53451,-731.28162)"
         id="path96" />
    </clipPath>
    <clipPath
       clipPathUnits="userSpaceOnUse"
       id="clipPath98">
      <path
         d="M 0,792 H 612 V 0 H 0 Z"
         transform="translate(-295.9942,-731.21572)"
         id="path98" />
    </clipPath>
  </defs>
  <sodipodi:namedview
     id="namedview1"
     pagecolor="#ffffff"
     bordercolor="#000000"
     borderopacity="0.25"
     inkscape:showpageshadow="2"
     inkscape:pageopacity="0.0"
     inkscape:pagecheckerboard="0"
     inkscape:deskcolor="#d1d1d1"
     inkscape:zoom="0.75662879"
     inkscape:cx="408.39049"
     inkscape:cy="528"
     inkscape:window-width="1920"
     inkscape:window-height="1013"
     inkscape:window-x="2391"
     inkscape:window-y="-9"
     inkscape:window-maximized="1"
     inkscape:current-layer="layer-MC0">
    <inkscape:page
       x="0"
       y="0"
       inkscape:label="2"
       id="page1"
       width="816"
       height="1056"
       margin="0"
       bleed="0" />
  </sodipodi:namedview>
  <g
     id="layer-MC0"
     inkscape:groupmode="layer"
     inkscape:label="Capa 1">
    <g
       opacity="0.699997"
       id="g2"
       clip-path="url(#clipPath3)">
      <path
         d="M -3.687,-5.038 H 93.649 V 796.977 H -3.687 Z"
         style="fill:#496c9d;fill-opacity:1;fill-rule:nonzero;stroke:none"
         transform="matrix(1.3333333,0,0,-1.3333333,0,1056)"
         clip-path="url(#clipPath1)"
         id="path2" />
    </g>
    <path
       id="path6"
       d="m 0,0 c -2.913,12.435 -14.065,21.697 -27.387,21.697 h -248.755 v -94.862 h 248.755 c 4.408,0 8.577,1.016 12.292,2.823 v -0.946 H 345.88 V 0 Z"
       style="fill:#496c9d;fill-opacity:1;fill-rule:nonzero;stroke:none"
       transform="matrix(1.3333333,0,0,-1.3333333,361.5084,965.14147)"
       clip-path="url(#clipPath7)" />
    <path
       id="path8"
       d="m 0,0 h 2.908 v -17.664 h 9.144 V -20.31 L 0,-20.31 Z"
       style="fill:#ffffff;fill-opacity:1;fill-rule:nonzero;stroke:none"
       transform="matrix(1.3333333,0,0,-1.3333333,50.098133,986.83613)"
       clip-path="url(#clipPath9)" />
    <path
       id="path10"
       d="M 0,0 H 11.514 V -2.588 H 2.908 v -6.193 h 8.316 v -2.603 H 2.908 v -6.309 h 8.883 v -2.588 H 0 Z"
       style="fill:#ffffff;fill-opacity:1;fill-rule:nonzero;stroke:none"
       transform="matrix(1.3333333,0,0,-1.3333333,69.560267,986.83613)"
       clip-path="url(#clipPath11)" />
    <path
       id="path12"
       d="m 0,0 h 6.818 v -8.607 c -2.5,-1.085 -4.981,-1.628 -7.443,-1.628 -3.363,0 -6.051,0.981 -8.062,2.944 -2.011,1.963 -3.016,4.383 -3.016,7.262 0,3.034 1.041,5.558 3.125,7.574 2.084,2.016 4.696,3.024 7.837,3.024 1.143,0 2.229,-0.123 3.256,-0.37 C 3.543,9.952 4.841,9.498 6.411,8.839 V 5.874 C 3.988,7.279 1.585,7.982 -0.8,7.982 -3.019,7.982 -4.89,7.226 -6.411,5.714 -7.933,4.202 -8.694,2.346 -8.694,0.145 c 0,-2.306 0.761,-4.192 2.283,-5.655 1.521,-1.464 3.479,-2.195 5.873,-2.195 1.163,0 2.554,0.266 4.173,0.799 l 0.276,0.087 v 4.231 H 0 Z"
       style="fill:#ffffff;fill-opacity:1;fill-rule:nonzero;stroke:none"
       transform="matrix(1.3333333,0,0,-1.3333333,104.04547,1000.5797)"
       clip-path="url(#clipPath13)" />
    <path
       id="path14"
       d="m 0,0 v -3.198 c -2.132,-1.164 -4.594,-1.745 -7.386,-1.745 -2.268,0 -4.191,0.455 -5.771,1.367 -1.58,0.911 -2.83,2.166 -3.751,3.765 -0.921,1.599 -1.381,3.329 -1.381,5.19 0,2.956 1.054,5.442 3.162,7.458 2.108,2.016 4.708,3.024 7.8,3.024 2.132,0 4.502,-0.557 7.109,-1.672 v -3.125 c -2.375,1.357 -4.696,2.035 -6.964,2.035 -2.326,0 -4.257,-0.734 -5.794,-2.202 -1.536,-1.469 -2.304,-3.308 -2.304,-5.518 0,-2.229 0.756,-4.061 2.268,-5.495 1.512,-1.435 3.446,-2.152 5.801,-2.152 2.462,0 4.865,0.756 7.211,2.268"
       style="fill:#ffffff;fill-opacity:1;fill-rule:nonzero;stroke:none"
       transform="matrix(1.3333333,0,0,-1.3333333,167.02587,1007.6357)"
       clip-path="url(#clipPath15)" />
    <path
       id="path16"
       d="M 0,0 H 3.518 L -3.984,-9.566 V -20.31 h -2.98 V -9.566 L -14.466,0 h 3.519 l 5.437,-7.008 z"
       style="fill:#ffffff;fill-opacity:1;fill-rule:nonzero;stroke:none"
       transform="matrix(1.3333333,0,0,-1.3333333,188.0968,986.83613)"
       clip-path="url(#clipPath17)" />
    <path
       id="path18"
       d="M 0,0 3.432,-7.604 C 2.269,-8.25 1.209,-8.579 0.194,-8.579 c -1.053,0 -2.159,0.356 -3.38,1.053 z m 7.219,-16.014 h 2.994 L 1.049,4.54 h -2.056 l -8.785,-20.554 h 3.012 l 2.516,5.94 c 1.355,-0.621 2.94,-1.066 4.454,-1.067 v 0 h 0.004 0.004 v 0 c 1.481,10e-4 3.032,0.427 4.368,1.027 z"
       style="fill:#ffffff;fill-opacity:1;fill-rule:nonzero;stroke:none"
       transform="matrix(1.3333333,0,0,-1.3333333,129.11347,991.6072)"
       clip-path="url(#clipPath19)" />
    <path
       id="path20"
       d="m 0,0 c 0.223,0 0.373,0.088 0.373,0.273 0,0.164 -0.132,0.269 -0.323,0.269 h -0.468 l 0,-0.542 z m -0.71,0.788 h 0.797 c 0.445,0 0.596,-0.278 0.596,-0.472 0,-0.292 -0.208,-0.503 -0.515,-0.52 v -0.009 c 0.156,-0.055 0.269,-0.21 0.419,-0.451 l 0.219,-0.35 H 0.451 l -0.16,0.281 c -0.226,0.406 -0.313,0.482 -0.536,0.482 H -0.418 V -1.014 H -0.71 Z m 0.732,0.524 c -0.773,0 -1.396,-0.625 -1.396,-1.398 0,-0.774 0.623,-1.401 1.396,-1.401 0.776,0 1.404,0.627 1.404,1.401 0,0.773 -0.628,1.398 -1.404,1.398 m 0,-3.076 c -0.926,0 -1.673,0.75 -1.673,1.678 0,0.928 0.747,1.674 1.673,1.674 0.929,0 1.681,-0.746 1.681,-1.674 0,-0.928 -0.752,-1.678 -1.681,-1.678"
       style="fill:#ffffff;fill-opacity:1;fill-rule:nonzero;stroke:none"
       transform="matrix(1.3333333,0,0,-1.3333333,287.8276,997.3312)"
       clip-path="url(#clipPath21)" />
    <path
       id="path22"
       d="M 0,0 H 1.582 V -11.629 H 0.15 l -7.775,8.948 v -8.948 H -9.19 V 0 h 1.348 L 0,-9.024 Z"
       style="fill:#ffffff;fill-opacity:1;fill-rule:nonzero;stroke:none"
       transform="matrix(1.3333333,0,0,-1.3333333,212.824,998.9404)"
       clip-path="url(#clipPath23)" />
    <path
       id="path24"
       d="m 0,0 h -5.386 c 0.039,-0.733 0.284,-1.315 0.737,-1.748 0.452,-0.433 1.036,-0.649 1.752,-0.649 0.999,0 1.92,0.31 2.764,0.932 v -1.482 c -0.466,-0.311 -0.928,-0.533 -1.386,-0.666 -0.458,-0.133 -0.995,-0.2 -1.611,-0.2 -0.844,0 -1.526,0.175 -2.048,0.525 -0.522,0.349 -0.939,0.82 -1.253,1.411 -0.313,0.591 -0.47,1.275 -0.47,2.052 0,1.165 0.33,2.113 0.991,2.843 0.66,0.729 1.517,1.094 2.572,1.094 1.015,0 1.826,-0.355 2.431,-1.065 C -0.302,2.336 0,1.385 0,0.191 Z m -5.353,0.907 h 3.855 C -1.537,1.512 -1.718,1.978 -2.04,2.306 -2.361,2.633 -2.794,2.797 -3.338,2.797 -3.882,2.797 -4.327,2.633 -4.674,2.306 -5.021,1.978 -5.247,1.512 -5.353,0.907"
       style="fill:#ffffff;fill-opacity:1;fill-rule:nonzero;stroke:none"
       transform="matrix(1.3333333,0,0,-1.3333333,226.676,1009.5181)"
       clip-path="url(#clipPath25)" />
    <path
       id="path26"
       d="M 0,0 2.847,2.797 V 1.215 H 5.269 V -0.15 H 2.847 v -3.754 c 0,-0.877 0.364,-1.316 1.091,-1.316 0.543,0 1.118,0.184 1.723,0.55 V -6.085 C 5.078,-6.413 4.443,-6.576 3.754,-6.576 c -0.693,0 -1.27,0.202 -1.731,0.607 -0.144,0.122 -0.264,0.26 -0.358,0.412 -0.094,0.153 -0.173,0.353 -0.237,0.6 C 1.364,-4.71 1.332,-4.24 1.332,-3.546 V -0.15 L 0,-0.15 Z"
       style="fill:#ffffff;fill-opacity:1;fill-rule:nonzero;stroke:none"
       transform="matrix(1.3333333,0,0,-1.3333333,227.4308,1005.8553)"
       clip-path="url(#clipPath27)" />
    <path
       id="path28"
       d="m 0,0 h 1.623 l -3.379,-7.792 h -0.475 l -2.273,5.336 -2.231,-5.336 H -7.226 L -10.639,0 h 1.623 L -7.009,-4.645 -5.061,0 h 1.123 l 1.94,-4.645 z"
       style="fill:#ffffff;fill-opacity:1;fill-rule:nonzero;stroke:none"
       transform="matrix(1.3333333,0,0,-1.3333333,249.18573,1004.2348)"
       clip-path="url(#clipPath29)" />
    <path
       id="path30"
       d="m 0,0 c 1.165,0 2.134,-0.376 2.905,-1.128 0.772,-0.752 1.157,-1.697 1.157,-2.835 0,-1.104 -0.391,-2.021 -1.173,-2.751 -0.783,-0.73 -1.768,-1.094 -2.956,-1.094 -1.148,0 -2.108,0.37 -2.88,1.111 -0.771,0.741 -1.157,1.666 -1.157,2.776 0,1.121 0.39,2.055 1.17,2.801 C -2.155,-0.373 -1.177,0 0,0 m -0.083,-1.365 c -0.727,0 -1.324,-0.239 -1.79,-0.716 -0.466,-0.477 -0.699,-1.085 -0.699,-1.823 0,-0.733 0.238,-1.331 0.716,-1.794 0.477,-0.464 1.09,-0.695 1.839,-0.695 0.744,0 1.353,0.234 1.828,0.703 0.474,0.469 0.711,1.07 0.711,1.802 0,0.727 -0.247,1.33 -0.741,1.807 -0.494,0.477 -1.115,0.716 -1.864,0.716"
       style="fill:#ffffff;fill-opacity:1;fill-rule:nonzero;stroke:none"
       transform="matrix(1.3333333,0,0,-1.3333333,257.21067,1004.2127)"
       clip-path="url(#clipPath31)" />
    <path
       id="path32"
       d="m 0,0 v -1.756 l 0.083,0.133 c 0.733,1.182 1.465,1.773 2.198,1.773 0.572,0 1.168,-0.289 1.79,-0.866 L 3.272,-2.048 c -0.528,0.5 -1.016,0.749 -1.466,0.749 -0.488,0 -0.911,-0.233 -1.269,-0.699 C 0.179,-2.464 0,-3.016 0,-3.654 V -7.659 H -1.523 V 0 Z"
       style="fill:#ffffff;fill-opacity:1;fill-rule:nonzero;stroke:none"
       transform="matrix(1.3333333,0,0,-1.3333333,267.03373,1004.2348)"
       clip-path="url(#clipPath33)" />
    <path
       id="path34"
       d="M 0,0 H 1.806 L -1.465,-3.754 2.472,-7.659 H 0.441 l -3.837,3.905 z m -4.978,3.971 h 1.515 V -7.658 h -1.515 z"
       style="fill:#ffffff;fill-opacity:1;fill-rule:nonzero;stroke:none"
       transform="matrix(1.3333333,0,0,-1.3333333,280.5084,1004.2348)"
       clip-path="url(#clipPath35)" />
    <path
       id="path36"
       d="M 0,0 H 0.826 L 4.487,-8.231 H 3.286 l -1.089,2.426 h -3.48 l -1.031,-2.426 h -1.201 z m 1.716,-4.763 -1.318,2.965 -1.224,-2.965 z"
       style="fill:#ffffff;fill-opacity:1;fill-rule:nonzero;stroke:none"
       transform="matrix(1.3333333,0,0,-1.3333333,55.285067,969.3748)"
       clip-path="url(#clipPath37)" />
    <path
       id="path38"
       d="m 0,0 v -3.913 h -1.072 v 2.999 c 0,0.598 -0.08,1.015 -0.24,1.251 -0.16,0.236 -0.44,0.354 -0.838,0.354 -0.223,0 -0.427,-0.051 -0.612,-0.152 C -2.948,0.437 -3.159,0.258 -3.398,0 v -3.913 h -1.066 v 5.389 h 1.066 V 0.767 c 0.543,0.543 1.074,0.815 1.594,0.815 0.683,0 1.212,-0.324 1.587,-0.973 0.57,0.656 1.166,0.984 1.787,0.984 0.523,0 0.954,-0.191 1.292,-0.574 C 3.199,0.637 3.368,0.053 3.368,-0.732 V -3.913 H 2.302 v 3.192 C 2.302,-0.271 2.21,0.072 2.027,0.31 1.843,0.549 1.58,0.668 1.236,0.668 0.795,0.668 0.383,0.445 0,0"
       style="fill:#ffffff;fill-opacity:1;fill-rule:nonzero;stroke:none"
       transform="matrix(1.3333333,0,0,-1.3333333,72.609333,975.1312)"
       clip-path="url(#clipPath39)" />
    <path
       id="path40"
       d="m 0,0 h -3.79 c 0.027,-0.516 0.2,-0.926 0.518,-1.23 0.319,-0.305 0.73,-0.457 1.233,-0.457 0.703,0 1.352,0.219 1.945,0.656 v -1.043 c -0.328,-0.218 -0.653,-0.375 -0.975,-0.468 -0.322,-0.094 -0.7,-0.141 -1.134,-0.141 -0.593,0 -1.074,0.123 -1.441,0.369 -0.367,0.246 -0.661,0.577 -0.881,0.993 -0.221,0.416 -0.331,0.897 -0.331,1.444 0,0.82 0.232,1.487 0.697,2.001 0.465,0.513 1.068,0.77 1.81,0.77 0.715,0 1.285,-0.25 1.71,-0.75 C -0.213,1.644 0,0.974 0,0.135 Z m -3.767,0.639 h 2.713 c -0.028,0.425 -0.155,0.753 -0.381,0.984 -0.227,0.23 -0.531,0.345 -0.914,0.345 -0.383,0 -0.696,-0.115 -0.94,-0.345 C -3.533,1.392 -3.693,1.064 -3.767,0.639"
       style="fill:#ffffff;fill-opacity:1;fill-rule:nonzero;stroke:none"
       transform="matrix(1.3333333,0,0,-1.3333333,85.1768,976.8808)"
       clip-path="url(#clipPath41)" />
    <path
       id="path42"
       d="m 0,0 v -3.913 h -1.072 v 2.999 c 0,0.598 -0.08,1.015 -0.24,1.251 -0.16,0.236 -0.44,0.354 -0.838,0.354 -0.223,0 -0.427,-0.051 -0.612,-0.152 C -2.948,0.437 -3.159,0.258 -3.398,0 v -3.913 h -1.066 v 5.389 h 1.066 V 0.767 c 0.543,0.543 1.074,0.815 1.594,0.815 0.683,0 1.212,-0.324 1.587,-0.973 0.57,0.656 1.166,0.984 1.787,0.984 0.523,0 0.954,-0.191 1.292,-0.574 C 3.199,0.637 3.368,0.053 3.368,-0.732 V -3.913 H 2.302 v 3.192 C 2.302,-0.271 2.21,0.072 2.027,0.31 1.843,0.549 1.58,0.668 1.236,0.668 0.795,0.668 0.383,0.445 0,0"
       style="fill:#ffffff;fill-opacity:1;fill-rule:nonzero;stroke:none"
       transform="matrix(1.3333333,0,0,-1.3333333,92.6048,975.1312)"
       clip-path="url(#clipPath43)" />
    <path
       id="path44"
       d="m 0,0 h 1.066 v -3.181 c 0.461,0.336 0.953,0.504 1.476,0.504 0.684,0 1.242,-0.258 1.676,-0.773 0.433,-0.516 0.65,-1.178 0.65,-1.986 0,-0.867 -0.259,-1.558 -0.776,-2.071 -0.518,-0.514 -1.21,-0.77 -2.077,-0.77 -0.347,0 -0.714,0.037 -1.098,0.111 C 0.532,-8.092 0.227,-7.998 0,-7.885 Z m 1.066,-4.2 v -2.918 c 0.363,-0.109 0.736,-0.164 1.119,-0.164 0.473,0 0.858,0.168 1.157,0.504 0.299,0.336 0.448,0.768 0.448,1.295 0,0.535 -0.139,0.97 -0.419,1.306 -0.279,0.336 -0.643,0.504 -1.092,0.504 -0.399,0 -0.803,-0.176 -1.213,-0.527"
       style="fill:#ffffff;fill-opacity:1;fill-rule:nonzero;stroke:none"
       transform="matrix(1.3333333,0,0,-1.3333333,98.986133,969.4372)"
       clip-path="url(#clipPath45)" />
    <path
       id="path46"
       d="m 0,0 h -3.79 c 0.027,-0.516 0.2,-0.926 0.518,-1.23 0.319,-0.305 0.73,-0.457 1.233,-0.457 0.703,0 1.352,0.219 1.945,0.656 v -1.043 c -0.328,-0.218 -0.653,-0.375 -0.975,-0.468 -0.322,-0.094 -0.7,-0.141 -1.134,-0.141 -0.593,0 -1.074,0.123 -1.441,0.369 -0.367,0.246 -0.661,0.577 -0.881,0.993 -0.221,0.416 -0.331,0.897 -0.331,1.444 0,0.82 0.232,1.487 0.697,2.001 0.465,0.513 1.068,0.77 1.81,0.77 0.715,0 1.285,-0.25 1.71,-0.75 C -0.213,1.644 0,0.974 0,0.135 Z m -3.767,0.639 h 2.713 c -0.028,0.425 -0.155,0.753 -0.381,0.984 -0.227,0.23 -0.531,0.345 -0.914,0.345 -0.383,0 -0.696,-0.115 -0.94,-0.345 C -3.533,1.392 -3.693,1.064 -3.767,0.639"
       style="fill:#ffffff;fill-opacity:1;fill-rule:nonzero;stroke:none"
       transform="matrix(1.3333333,0,0,-1.3333333,113.1704,976.8808)"
       clip-path="url(#clipPath47)" />
    <path
       id="path48"
       d="m 0,0 v -1.236 l 0.059,0.094 c 0.515,0.832 1.031,1.247 1.546,1.247 0.402,0 0.822,-0.203 1.26,-0.609 L 2.302,-1.441 C 1.931,-1.09 1.588,-0.914 1.271,-0.914 0.928,-0.914 0.63,-1.078 0.378,-1.406 0.126,-1.734 0,-2.123 0,-2.572 V -5.389 H -1.072 V 0 Z"
       style="fill:#ffffff;fill-opacity:1;fill-rule:nonzero;stroke:none"
       transform="matrix(1.3333333,0,0,-1.3333333,116.23213,973.16293)"
       clip-path="url(#clipPath49)" />
    <path
       id="path50"
       d="m 0,0 c 0.82,0 1.502,-0.265 2.044,-0.794 0.543,-0.529 0.815,-1.194 0.815,-1.994 0,-0.778 -0.276,-1.423 -0.826,-1.937 -0.551,-0.513 -1.244,-0.77 -2.08,-0.77 -0.808,0 -1.484,0.261 -2.027,0.782 -0.543,0.522 -0.814,1.173 -0.814,1.954 0,0.789 0.274,1.446 0.823,1.971 C -1.516,-0.263 -0.828,0 0,0 m -0.059,-0.961 c -0.511,0 -0.931,-0.168 -1.259,-0.504 -0.328,-0.335 -0.492,-0.763 -0.492,-1.282 0,-0.516 0.168,-0.937 0.504,-1.263 0.336,-0.326 0.767,-0.489 1.294,-0.489 0.524,0 0.952,0.165 1.286,0.495 0.334,0.33 0.501,0.753 0.501,1.268 0,0.512 -0.174,0.936 -0.521,1.271 -0.348,0.336 -0.785,0.504 -1.313,0.504"
       style="fill:#ffffff;fill-opacity:1;fill-rule:nonzero;stroke:none"
       transform="matrix(1.3333333,0,0,-1.3333333,128.92467,973.14733)"
       clip-path="url(#clipPath51)" />
    <path
       id="path52"
       d="M 0,0 V 0.322 C 0,1.189 0.185,1.836 0.554,2.261 0.923,2.687 1.365,2.9 1.88,2.9 2.103,2.9 2.367,2.865 2.671,2.794 V 1.752 C 2.499,1.814 2.335,1.845 2.179,1.845 1.761,1.845 1.471,1.734 1.309,1.511 1.147,1.289 1.066,0.892 1.066,0.322 V 0 H 2.027 V -0.961 H 1.066 V -5.389 H 0 v 4.428 H -0.773 V 0 Z"
       style="fill:#ffffff;fill-opacity:1;fill-rule:nonzero;stroke:none"
       transform="matrix(1.3333333,0,0,-1.3333333,134.478,973.16293)"
       clip-path="url(#clipPath53)" />
    <text
       id="text53"
       xml:space="preserve"
       transform="matrix(1.3333333,0,0,1.3333333,150.5352,248.5924)"><tspan
         style="font-variant:normal;font-weight:100;font-stretch:normal;font-size:40px;font-family:Bahnschrift;writing-mode:lr-tb;fill:#233d6f;fill-opacity:1;fill-rule:nonzero;stroke:none"
         x="0 21.48 40.560001 61 68.959999 88.040001 95.120003 115.56 135.67999"
         y="0"
         sodipodi:role="line"
         id="tspan53">Tabla de </tspan></text>
    <text
       id="text54"
       xml:space="preserve"
       transform="matrix(1.3333333,0,0,1.3333333,150.5352,290.92053)"><tspan
         style="font-variant:normal;font-weight:500;font-stretch:normal;font-size:35px;font-family:Bahnschrift;writing-mode:lr-tb;fill:#233d6f;fill-opacity:1;fill-rule:nonzero;stroke:none"
         x="0 20.440001 39.060001 57.224998 69.334999 87.290001 105.455 113.575 132.125 150.745"
         y="0"
         sodipodi:role="line"
         id="tspan54">Contenidos</tspan></text>
    <g
       opacity="0.270004"
       id="g55"
       clip-path="url(#clipPath56)">
      <path
         d="m 0,0 c -35.193,35.193 -81.984,54.575 -131.754,54.575 h -1.2 v -3.891 h 1.2 c 100.597,0 182.439,-81.841 182.439,-182.439 0,-100.597 -81.842,-182.438 -182.439,-182.438 h -1.2 v -3.891 h 1.2 c 49.771,0 96.561,19.382 131.754,54.576 35.193,35.192 54.575,81.984 54.575,131.753 C 54.575,-81.984 35.193,-35.193 0,0"
         style="fill:#9dc5fa;fill-opacity:1;fill-rule:nonzero;stroke:none"
         transform="matrix(1.3333333,0,0,-1.3333333,171.13493,352.3272)"
         clip-path="url(#clipPath54)"
         id="path55" />
    </g>
    <g
       opacity="0.270004"
       id="g58"
       clip-path="url(#clipPath59)">
      <path
         d="m 0,0 c -0.957,0 -1.742,0.764 -1.762,1.725 -0.021,0.972 0.752,1.779 1.724,1.8 1.133,0.024 2.268,0.036 3.406,0.036 0.974,0 1.845,-0.79 1.845,-1.764 0,-0.973 -0.706,-1.763 -1.68,-1.763 -0.019,0 -0.201,0.002 -0.22,0.002 C 2.255,0.036 1.146,0.024 0.038,0 Z m 15.885,-0.466 c -0.048,0 -0.094,0.001 -0.144,0.005 -1.157,0.094 -2.318,0.174 -3.484,0.242 -0.97,0.057 -1.712,0.89 -1.655,1.863 0.057,0.97 0.85,1.703 1.862,1.655 1.189,-0.069 2.378,-0.151 3.563,-0.246 0.969,-0.079 1.691,-0.929 1.614,-1.9 -0.076,-0.921 -0.847,-1.619 -1.756,-1.619 m -28.223,-0.291 c -0.894,0 -1.659,0.676 -1.752,1.585 -0.098,0.967 0.607,1.833 1.576,1.931 1.183,0.12 2.368,0.225 3.558,0.32 1,0.067 1.819,-0.649 1.896,-1.618 0.076,-0.97 -0.649,-1.819 -1.618,-1.896 -1.165,-0.092 -2.323,-0.197 -3.481,-0.314 -0.061,-0.005 -0.121,-0.008 -0.179,-0.008 m 40.491,-1.196 c -0.093,0 -0.187,0.007 -0.282,0.022 -1.148,0.186 -2.299,0.36 -3.454,0.52 -0.966,0.132 -1.639,1.022 -1.504,1.986 0.132,0.964 1.006,1.647 1.986,1.504 1.182,-0.163 2.361,-0.341 3.533,-0.53 0.962,-0.155 1.614,-1.06 1.459,-2.021 -0.139,-0.865 -0.888,-1.481 -1.738,-1.481 m -52.721,-0.548 c -0.833,0 -1.575,0.594 -1.732,1.443 -0.177,0.956 0.456,1.876 1.413,2.053 1.169,0.215 2.343,0.418 3.523,0.606 0.966,0.161 1.864,-0.503 2.018,-1.463 0.153,-0.961 -0.501,-1.864 -1.463,-2.017 -1.15,-0.185 -2.296,-0.381 -3.437,-0.592 -0.109,-0.021 -0.215,-0.03 -0.322,-0.03 m 64.831,-1.926 c -0.142,0 -0.283,0.018 -0.426,0.052 -1.127,0.279 -2.259,0.544 -3.399,0.797 -0.95,0.212 -1.549,1.153 -1.339,2.103 0.214,0.95 1.166,1.54 2.104,1.339 1.166,-0.26 2.326,-0.532 3.481,-0.817 0.945,-0.234 1.522,-1.19 1.288,-2.135 -0.198,-0.802 -0.918,-1.339 -1.709,-1.339 m -76.889,-0.796 c -0.778,0 -1.489,0.518 -1.7,1.304 -0.253,0.942 0.304,1.907 1.244,2.16 1.148,0.308 2.301,0.604 3.461,0.888 0.931,0.229 1.898,-0.346 2.131,-1.294 0.23,-0.945 -0.348,-1.898 -1.295,-2.131 -1.132,-0.277 -2.261,-0.566 -3.381,-0.867 -0.154,-0.041 -0.309,-0.06 -0.46,-0.06 M 52.129,-7.87 c -0.186,0 -0.373,0.029 -0.559,0.091 -1.102,0.368 -2.21,0.726 -3.323,1.069 -0.93,0.287 -1.451,1.273 -1.166,2.204 0.286,0.931 1.262,1.453 2.205,1.165 1.141,-0.352 2.274,-0.717 3.403,-1.096 0.922,-0.31 1.421,-1.308 1.111,-2.23 C 53.554,-7.406 52.866,-7.87 52.129,-7.87 M -48.429,-8.922 c -0.723,0 -1.403,0.449 -1.659,1.169 -0.329,0.917 0.15,1.925 1.065,2.253 1.124,0.402 2.253,0.791 3.389,1.17 0.922,0.301 1.921,-0.193 2.229,-1.117 0.306,-0.923 -0.193,-1.921 -1.117,-2.229 -1.109,-0.368 -2.214,-0.75 -3.313,-1.143 -0.196,-0.07 -0.398,-0.103 -0.594,-0.103 m 112.098,-3.339 c -0.232,0 -0.468,0.045 -0.694,0.143 -1.063,0.454 -2.135,0.898 -3.211,1.329 -0.904,0.361 -1.344,1.387 -0.983,2.29 0.36,0.907 1.384,1.346 2.291,0.983 1.103,-0.44 2.199,-0.895 3.291,-1.363 0.895,-0.382 1.309,-1.418 0.926,-2.313 -0.286,-0.668 -0.937,-1.069 -1.62,-1.069 m -123.576,-1.31 c -0.673,0 -1.313,0.386 -1.607,1.038 -0.401,0.887 -0.007,1.931 0.881,2.331 1.088,0.49 2.179,0.97 3.279,1.438 0.896,0.384 1.929,-0.034 2.311,-0.931 0.382,-0.895 -0.036,-1.931 -0.931,-2.311 -1.076,-0.458 -2.146,-0.928 -3.21,-1.408 -0.236,-0.107 -0.482,-0.157 -0.723,-0.157 m 134.711,-3.994 c -0.277,0 -0.557,0.065 -0.821,0.203 -1.024,0.54 -2.056,1.07 -3.098,1.587 -0.87,0.433 -1.227,1.49 -0.793,2.363 0.434,0.871 1.489,1.229 2.363,0.793 1.065,-0.53 2.122,-1.07 3.174,-1.625 0.86,-0.454 1.191,-1.519 0.736,-2.381 -0.316,-0.599 -0.927,-0.94 -1.561,-0.94 m -145.772,-1.566 c -0.621,0 -1.224,0.328 -1.546,0.91 -0.469,0.854 -0.16,1.924 0.692,2.396 1.043,0.575 2.093,1.141 3.148,1.695 0.864,0.456 1.928,0.122 2.379,-0.74 0.454,-0.861 0.122,-1.926 -0.74,-2.378 -1.035,-0.544 -2.061,-1.1 -3.083,-1.665 -0.27,-0.148 -0.563,-0.218 -0.85,-0.218 m 156.452,-4.621 c -0.324,0 -0.651,0.089 -0.944,0.275 -0.981,0.621 -1.968,1.232 -2.963,1.833 -0.833,0.502 -1.102,1.587 -0.599,2.42 0.504,0.834 1.587,1.103 2.42,0.599 1.018,-0.615 2.03,-1.24 3.032,-1.878 0.823,-0.521 1.065,-1.611 0.542,-2.432 -0.335,-0.528 -0.905,-0.817 -1.488,-0.817 m -167.019,-1.811 c -0.57,0 -1.129,0.275 -1.47,0.787 -0.539,0.81 -0.319,1.905 0.492,2.443 0.993,0.66 1.993,1.309 3.002,1.947 0.827,0.518 1.912,0.272 2.431,-0.549 0.52,-0.823 0.274,-1.91 -0.549,-2.432 -0.984,-0.621 -1.963,-1.256 -2.932,-1.902 -0.3,-0.199 -0.639,-0.294 -0.974,-0.294 M 95.64,-30.779 c -0.369,0 -0.74,0.115 -1.059,0.354 -0.929,0.699 -1.864,1.389 -2.81,2.067 -0.79,0.568 -0.973,1.669 -0.405,2.459 0.566,0.792 1.666,0.975 2.46,0.405 0.967,-0.695 1.925,-1.399 2.875,-2.115 0.778,-0.585 0.933,-1.69 0.348,-2.468 -0.346,-0.46 -0.874,-0.702 -1.409,-0.702 m -187.19,-2.042 c -0.522,0 -1.038,0.231 -1.386,0.672 -0.602,0.765 -0.471,1.872 0.293,2.474 0.936,0.737 1.881,1.465 2.836,2.181 0.776,0.583 1.881,0.429 2.466,-0.353 0.586,-0.778 0.427,-1.883 -0.352,-2.466 -0.931,-0.699 -1.856,-1.41 -2.768,-2.129 -0.323,-0.255 -0.709,-0.379 -1.089,-0.379 m 196.754,-5.782 c -0.417,0 -0.835,0.146 -1.171,0.444 -0.869,0.772 -1.748,1.535 -2.636,2.287 -0.742,0.628 -0.835,1.74 -0.205,2.483 0.626,0.742 1.736,0.837 2.483,0.205 0.909,-0.769 1.809,-1.549 2.699,-2.339 0.728,-0.647 0.793,-1.76 0.148,-2.488 -0.35,-0.393 -0.833,-0.592 -1.318,-0.592 m -206.153,-2.252 c -0.473,0 -0.945,0.19 -1.293,0.565 -0.662,0.714 -0.619,1.829 0.095,2.49 0.874,0.809 1.756,1.608 2.647,2.398 0.725,0.647 1.84,0.583 2.487,-0.15 0.645,-0.728 0.58,-1.842 -0.15,-2.487 -0.871,-0.773 -1.735,-1.554 -2.588,-2.346 -0.339,-0.315 -0.769,-0.47 -1.198,-0.47 m 215.061,-6.312 c -0.463,0 -0.924,0.18 -1.27,0.54 -0.808,0.84 -1.623,1.671 -2.449,2.492 -0.689,0.688 -0.692,1.804 -0.006,2.494 0.687,0.685 1.804,0.692 2.494,0.005 0.844,-0.842 1.676,-1.69 2.501,-2.547 0.675,-0.702 0.652,-1.818 -0.048,-2.492 -0.343,-0.329 -0.783,-0.492 -1.222,-0.492 m -223.782,-2.444 c -0.426,0 -0.855,0.153 -1.192,0.466 -0.718,0.659 -0.763,1.773 -0.104,2.489 0.806,0.876 1.622,1.741 2.446,2.6 0.673,0.702 1.788,0.725 2.492,0.048 0.701,-0.674 0.723,-1.79 0.048,-2.492 -0.807,-0.838 -1.605,-1.686 -2.394,-2.543 -0.346,-0.377 -0.821,-0.568 -1.296,-0.568 m 231.983,-6.811 c -0.512,0 -1.019,0.221 -1.367,0.647 -0.737,0.902 -1.483,1.797 -2.242,2.684 -0.632,0.74 -0.544,1.851 0.196,2.485 0.738,0.628 1.85,0.545 2.485,-0.196 0.773,-0.907 1.537,-1.82 2.291,-2.742 0.616,-0.754 0.504,-1.864 -0.25,-2.48 -0.327,-0.267 -0.723,-0.398 -1.113,-0.398 m -239.975,-2.612 c -0.379,0 -0.763,0.122 -1.085,0.375 -0.765,0.599 -0.901,1.707 -0.301,2.473 0.732,0.936 1.475,1.866 2.229,2.787 0.614,0.75 1.723,0.865 2.48,0.246 0.752,-0.616 0.864,-1.727 0.246,-2.48 -0.736,-0.901 -1.463,-1.809 -2.18,-2.725 -0.348,-0.444 -0.866,-0.676 -1.389,-0.676 m 247.408,-7.27 c -0.559,0 -1.11,0.267 -1.453,0.762 -0.661,0.959 -1.335,1.909 -2.018,2.852 -0.572,0.787 -0.396,1.89 0.392,2.461 0.785,0.573 1.888,0.396 2.461,-0.392 0.7,-0.964 1.389,-1.938 2.067,-2.921 0.552,-0.8 0.351,-1.898 -0.451,-2.45 -0.305,-0.21 -0.654,-0.312 -0.998,-0.312 m -254.618,-2.759 c -0.332,0 -0.669,0.095 -0.967,0.291 -0.812,0.535 -1.038,1.628 -0.503,2.44 0.654,0.995 1.322,1.981 2,2.957 0.551,0.801 1.649,1.004 2.453,0.444 0.798,-0.554 0.998,-1.652 0.444,-2.452 -0.663,-0.954 -1.313,-1.916 -1.954,-2.886 -0.339,-0.515 -0.9,-0.794 -1.473,-0.794 m 261.237,-7.695 c -0.609,0 -1.201,0.315 -1.528,0.881 -0.584,1.011 -1.179,2.012 -1.785,3.009 -0.506,0.831 -0.241,1.915 0.59,2.421 0.835,0.505 1.918,0.241 2.422,-0.59 0.62,-1.017 1.229,-2.043 1.826,-3.077 0.487,-0.843 0.198,-1.921 -0.645,-2.408 -0.278,-0.16 -0.58,-0.236 -0.88,-0.236 m -267.612,-2.874 c -0.287,0 -0.578,0.071 -0.846,0.217 -0.854,0.47 -1.166,1.54 -0.697,2.394 0.573,1.043 1.158,2.077 1.753,3.105 0.487,0.84 1.563,1.132 2.41,0.64 0.841,-0.489 1.129,-1.566 0.64,-2.41 -0.582,-1.003 -1.153,-2.013 -1.712,-3.032 -0.322,-0.583 -0.925,-0.914 -1.548,-0.914 m 273.367,-8.084 c -0.661,0 -1.292,0.372 -1.593,1.007 -0.501,1.055 -1.012,2.101 -1.537,3.141 -0.439,0.869 -0.09,1.929 0.778,2.368 0.867,0.443 1.927,0.09 2.368,-0.778 0.539,-1.067 1.063,-2.141 1.575,-3.22 0.418,-0.879 0.043,-1.931 -0.837,-2.347 -0.244,-0.116 -0.501,-0.171 -0.754,-0.171 m -278.867,-2.957 c -0.241,0 -0.486,0.05 -0.721,0.155 -0.888,0.4 -1.284,1.443 -0.885,2.331 0.487,1.084 0.985,2.161 1.496,3.23 0.416,0.88 1.466,1.255 2.347,0.833 0.88,-0.418 1.253,-1.47 0.833,-2.347 -0.497,-1.049 -0.984,-2.102 -1.461,-3.162 -0.294,-0.652 -0.936,-1.04 -1.609,-1.04 m 283.719,-8.436 c -0.711,0 -1.382,0.433 -1.649,1.139 -0.413,1.091 -0.84,2.177 -1.279,3.258 -0.366,0.9 0.069,1.929 0.971,2.296 0.895,0.361 1.928,-0.067 2.296,-0.971 0.449,-1.105 0.886,-2.218 1.31,-3.337 0.344,-0.909 -0.116,-1.927 -1.026,-2.272 -0.205,-0.077 -0.415,-0.113 -0.623,-0.113 m -288.314,-3.021 c -0.197,0 -0.396,0.033 -0.591,0.102 -0.917,0.327 -1.396,1.335 -1.07,2.251 0.401,1.124 0.81,2.241 1.234,3.353 0.346,0.91 1.365,1.368 2.273,1.02 0.911,-0.346 1.367,-1.363 1.021,-2.273 -0.413,-1.088 -0.816,-2.181 -1.207,-3.281 -0.258,-0.722 -0.936,-1.172 -1.66,-1.172 m 292.224,-8.722 c -0.766,0 -1.469,0.501 -1.693,1.274 -0.324,1.118 -0.658,2.234 -1.007,3.344 -0.291,0.929 0.225,1.919 1.153,2.209 0.935,0.295 1.921,-0.227 2.21,-1.153 0.356,-1.137 0.7,-2.277 1.031,-3.423 0.27,-0.934 -0.27,-1.912 -1.205,-2.182 -0.163,-0.047 -0.327,-0.069 -0.489,-0.069 m -295.877,-3.082 c -0.149,0 -0.302,0.018 -0.454,0.058 -0.941,0.251 -1.501,1.217 -1.251,2.157 0.306,1.153 0.626,2.301 0.959,3.442 0.27,0.934 1.251,1.478 2.184,1.199 0.934,-0.272 1.471,-1.249 1.199,-2.184 -0.325,-1.117 -0.635,-2.237 -0.934,-3.363 -0.21,-0.788 -0.923,-1.309 -1.703,-1.309 m 298.815,-8.924 c -0.821,0 -1.556,0.576 -1.726,1.413 -0.231,1.143 -0.473,2.279 -0.732,3.411 -0.216,0.95 0.377,1.893 1.326,2.11 0.95,0.222 1.895,-0.373 2.11,-1.325 0.265,-1.16 0.514,-2.327 0.752,-3.497 0.193,-0.954 -0.425,-1.883 -1.379,-2.078 -0.117,-0.024 -0.236,-0.034 -0.351,-0.034 m -301.505,-3.139 c -0.105,0 -0.211,0.008 -0.318,0.029 -0.957,0.174 -1.592,1.091 -1.416,2.05 0.213,1.172 0.437,2.34 0.676,3.504 0.194,0.953 1.129,1.564 2.079,1.373 0.954,-0.194 1.57,-1.125 1.373,-2.079 -0.232,-1.139 -0.452,-2.284 -0.662,-3.432 -0.155,-0.85 -0.897,-1.445 -1.732,-1.445 m 303.465,-9.062 c -0.881,0 -1.641,0.659 -1.748,1.554 -0.138,1.159 -0.289,2.312 -0.455,3.461 -0.137,0.962 0.532,1.856 1.496,1.995 0.96,0.141 1.854,-0.532 1.995,-1.495 0.168,-1.178 0.323,-2.358 0.464,-3.544 0.116,-0.967 -0.574,-1.843 -1.542,-1.959 -0.07,-0.008 -0.141,-0.012 -0.21,-0.012 m -305.168,-3.179 c -0.057,0 -0.116,0.004 -0.174,0.009 -0.969,0.095 -1.677,0.957 -1.582,1.926 0.117,1.187 0.246,2.37 0.389,3.55 0.117,0.968 0.997,1.653 1.962,1.539 0.966,-0.117 1.654,-0.996 1.539,-1.962 -0.141,-1.153 -0.269,-2.311 -0.382,-3.471 -0.09,-0.911 -0.856,-1.591 -1.752,-1.591 m 306.143,-9.14 c -0.942,0 -1.721,0.743 -1.759,1.693 -0.047,1.165 -0.105,2.329 -0.176,3.489 -0.06,0.972 0.68,1.807 1.651,1.867 0.994,0.018 1.808,-0.68 1.867,-1.65 0.074,-1.188 0.132,-2.375 0.179,-3.568 0.038,-0.972 -0.719,-1.792 -1.692,-1.829 -0.022,-0.002 -0.046,-0.002 -0.07,-0.002 m -306.865,-3.191 h -0.032 c -0.974,0.019 -1.749,0.823 -1.73,1.795 0.022,1.191 0.059,2.38 0.107,3.564 0.039,0.973 0.862,1.789 1.833,1.689 0.972,-0.04 1.728,-0.861 1.688,-1.833 -0.048,-1.16 -0.081,-2.322 -0.103,-3.485 -0.019,-0.962 -0.804,-1.73 -1.763,-1.73 m 306.861,-9.165 c -0.024,0 -0.048,0 -0.072,0.002 -0.973,0.038 -1.73,0.857 -1.69,1.831 0.046,1.159 0.079,2.322 0.1,3.485 0.017,0.973 0.824,1.742 1.793,1.732 0.972,-0.017 1.749,-0.821 1.731,-1.794 -0.02,-1.191 -0.056,-2.378 -0.103,-3.564 -0.038,-0.948 -0.819,-1.692 -1.759,-1.692 m -306.602,-3.194 c -0.925,0 -1.701,0.721 -1.758,1.657 -0.072,1.186 -0.13,2.375 -0.175,3.566 -0.038,0.973 0.721,1.792 1.693,1.828 0.949,0.06 1.79,-0.719 1.828,-1.693 0.045,-1.167 0.103,-2.329 0.172,-3.491 0.059,-0.97 -0.681,-1.805 -1.654,-1.864 -0.034,-10e-4 -0.07,-0.003 -0.106,-0.003 m 305.616,-9.123 c -0.071,0 -0.141,0.003 -0.213,0.012 -0.966,0.117 -1.654,0.996 -1.539,1.962 0.139,1.153 0.267,2.309 0.379,3.469 0.092,0.968 0.929,1.666 1.924,1.584 0.969,-0.093 1.678,-0.955 1.583,-1.924 -0.115,-1.188 -0.243,-2.372 -0.385,-3.553 -0.109,-0.895 -0.87,-1.55 -1.749,-1.55 m -304.374,-3.171 c -0.864,0 -1.618,0.636 -1.743,1.515 -0.167,1.177 -0.32,2.356 -0.461,3.542 -0.116,0.967 0.574,1.843 1.542,1.958 0.97,0.121 1.843,-0.576 1.958,-1.542 0.138,-1.158 0.288,-2.313 0.451,-3.462 0.136,-0.964 -0.533,-1.856 -1.497,-1.993 -0.085,-0.012 -0.167,-0.018 -0.25,-0.018 m 302.398,-9.028 c -0.117,0 -0.234,0.012 -0.353,0.036 -0.953,0.193 -1.569,1.124 -1.375,2.077 0.231,1.14 0.451,2.282 0.658,3.432 0.175,0.957 1.089,1.595 2.048,1.422 0.958,-0.174 1.593,-1.092 1.421,-2.048 -0.213,-1.174 -0.437,-2.345 -0.674,-3.508 -0.169,-0.835 -0.904,-1.411 -1.725,-1.411 m -300.169,-3.129 c -0.805,0 -1.532,0.554 -1.718,1.373 -0.263,1.162 -0.511,2.327 -0.747,3.497 -0.191,0.956 0.427,1.885 1.381,2.076 0.946,0.195 1.883,-0.427 2.075,-1.38 0.229,-1.143 0.474,-2.281 0.73,-3.415 0.215,-0.948 -0.38,-1.893 -1.33,-2.108 -0.131,-0.029 -0.262,-0.043 -0.391,-0.043 m 297.212,-8.872 c -0.161,0 -0.327,0.022 -0.49,0.069 -0.935,0.272 -1.473,1.249 -1.203,2.184 0.323,1.115 0.635,2.235 0.933,3.363 0.249,0.943 1.227,1.497 2.153,1.254 0.941,-0.248 1.502,-1.213 1.254,-2.153 -0.304,-1.155 -0.623,-2.303 -0.953,-3.445 -0.224,-0.771 -0.928,-1.272 -1.694,-1.272 m -294.007,-3.062 c -0.752,0 -1.448,0.484 -1.684,1.239 -0.352,1.136 -0.695,2.275 -1.024,3.42 -0.268,0.936 0.272,1.912 1.207,2.18 0.943,0.267 1.912,-0.271 2.18,-1.206 0.322,-1.12 0.658,-2.236 1.004,-3.347 0.289,-0.93 -0.231,-1.918 -1.16,-2.207 -0.174,-0.053 -0.351,-0.079 -0.523,-0.079 m 290.092,-8.66 c -0.208,0 -0.42,0.036 -0.627,0.115 -0.91,0.346 -1.366,1.363 -1.02,2.273 0.413,1.086 0.814,2.178 1.201,3.277 0.324,0.919 1.334,1.394 2.248,1.078 0.919,-0.324 1.401,-1.331 1.077,-2.248 -0.397,-1.127 -0.809,-2.246 -1.232,-3.36 -0.267,-0.703 -0.936,-1.135 -1.647,-1.135 M -139,-210.977 c -0.697,0 -1.356,0.415 -1.633,1.102 -0.448,1.105 -0.883,2.218 -1.307,3.337 -0.344,0.91 0.116,1.928 1.026,2.272 0.904,0.346 1.926,-0.114 2.272,-1.026 0.413,-1.095 0.838,-2.181 1.275,-3.261 0.365,-0.902 -0.07,-1.93 -0.972,-2.295 -0.217,-0.087 -0.441,-0.129 -0.661,-0.129 m 281.074,-8.338 c -0.253,0 -0.511,0.055 -0.756,0.172 -0.879,0.418 -1.253,1.47 -0.833,2.347 0.498,1.047 0.983,2.098 1.456,3.159 0.393,0.888 1.431,1.292 2.327,0.891 0.888,-0.396 1.289,-1.437 0.892,-2.327 -0.484,-1.088 -0.983,-2.167 -1.494,-3.237 -0.301,-0.635 -0.933,-1.005 -1.592,-1.005 m -275.971,-2.943 c -0.647,0 -1.269,0.356 -1.578,0.972 -0.534,1.067 -1.057,2.139 -1.568,3.217 -0.418,0.879 -0.043,1.931 0.836,2.347 0.881,0.419 1.931,0.043 2.348,-0.836 0.501,-1.057 1.013,-2.105 1.537,-3.148 0.435,-0.871 0.082,-1.929 -0.787,-2.366 -0.255,-0.126 -0.523,-0.186 -0.788,-0.186 m 270.226,-7.979 c -0.299,0 -0.604,0.076 -0.883,0.237 -0.842,0.489 -1.129,1.567 -0.64,2.41 0.582,1.002 1.151,2.014 1.709,3.032 0.466,0.854 1.538,1.169 2.392,0.699 0.854,-0.466 1.167,-1.538 0.699,-2.392 -0.572,-1.043 -1.155,-2.079 -1.75,-3.108 -0.327,-0.563 -0.92,-0.878 -1.527,-0.878 m -264.23,-2.848 c -0.595,0 -1.175,0.301 -1.508,0.846 -0.619,1.017 -1.227,2.045 -1.824,3.079 -0.487,0.844 -0.198,1.921 0.646,2.408 0.839,0.487 1.92,0.201 2.407,-0.645 0.584,-1.011 1.177,-2.014 1.783,-3.011 0.506,-0.831 0.241,-1.915 -0.59,-2.421 -0.286,-0.174 -0.602,-0.256 -0.914,-0.256 m 257.623,-7.58 c -0.346,0 -0.694,0.101 -1,0.311 -0.8,0.555 -1.002,1.651 -0.449,2.453 0.661,0.957 1.311,1.919 1.951,2.891 0.537,0.811 1.63,1.036 2.441,0.503 0.812,-0.535 1.038,-1.628 0.502,-2.441 -0.654,-0.993 -1.318,-1.979 -1.993,-2.956 -0.342,-0.496 -0.893,-0.761 -1.452,-0.761 m -250.778,-2.724 c -0.546,0 -1.085,0.252 -1.429,0.728 -0.7,0.967 -1.387,1.939 -2.065,2.922 -0.552,0.8 -0.351,1.898 0.451,2.451 0.798,0.552 1.897,0.349 2.451,-0.451 0.661,-0.959 1.334,-1.911 2.017,-2.854 0.571,-0.788 0.396,-1.891 -0.393,-2.461 -0.313,-0.227 -0.674,-0.335 -1.032,-0.335 m 243.351,-7.146 c -0.39,0 -0.786,0.13 -1.113,0.397 -0.754,0.616 -0.866,1.726 -0.25,2.48 0.735,0.9 1.461,1.809 2.177,2.726 0.598,0.768 1.704,0.906 2.474,0.305 0.767,-0.599 0.903,-1.707 0.304,-2.473 -0.733,-0.938 -1.473,-1.867 -2.225,-2.788 -0.348,-0.427 -0.855,-0.647 -1.367,-0.647 m -235.705,-2.573 c -0.497,0 -0.991,0.21 -1.34,0.618 -0.773,0.905 -1.537,1.82 -2.291,2.745 -0.614,0.753 -0.501,1.864 0.253,2.48 0.757,0.616 1.866,0.499 2.48,-0.253 0.737,-0.904 1.484,-1.799 2.239,-2.683 0.632,-0.741 0.544,-1.854 -0.196,-2.486 -0.332,-0.282 -0.738,-0.421 -1.145,-0.421 m 227.513,-6.673 c -0.439,0 -0.879,0.164 -1.222,0.492 -0.7,0.675 -0.723,1.79 -0.048,2.492 0.805,0.839 1.602,1.687 2.387,2.544 0.658,0.716 1.771,0.766 2.49,0.109 0.718,-0.658 0.766,-1.773 0.109,-2.491 -0.806,-0.878 -1.62,-1.747 -2.446,-2.605 -0.346,-0.36 -0.807,-0.541 -1.27,-0.541 m -219.115,-2.397 c -0.45,0 -0.901,0.17 -1.245,0.513 -0.843,0.841 -1.678,1.693 -2.502,2.554 -0.673,0.702 -0.649,1.819 0.055,2.492 0.7,0.671 1.814,0.649 2.492,-0.055 0.804,-0.84 1.618,-1.672 2.444,-2.492 0.688,-0.689 0.692,-1.804 0.005,-2.494 -0.346,-0.345 -0.797,-0.518 -1.249,-0.518 m 210.202,-6.17 c -0.486,0 -0.971,0.199 -1.319,0.593 -0.645,0.728 -0.58,1.842 0.15,2.487 0.871,0.773 1.733,1.556 2.585,2.348 0.711,0.659 1.826,0.619 2.492,-0.093 0.661,-0.714 0.62,-1.83 -0.093,-2.492 -0.872,-0.809 -1.755,-1.609 -2.647,-2.399 -0.335,-0.298 -0.752,-0.444 -1.168,-0.444 m -201.11,-2.198 c -0.405,0 -0.811,0.138 -1.141,0.42 -0.909,0.773 -1.807,1.552 -2.695,2.34 -0.728,0.648 -0.794,1.761 -0.148,2.489 0.648,0.73 1.76,0.793 2.488,0.148 0.871,-0.774 1.749,-1.537 2.637,-2.292 0.742,-0.63 0.831,-1.744 0.201,-2.484 -0.349,-0.411 -0.845,-0.621 -1.342,-0.621 m 191.539,-5.631 c -0.535,0 -1.064,0.242 -1.41,0.702 -0.585,0.778 -0.43,1.883 0.348,2.468 0.931,0.7 1.854,1.411 2.766,2.134 0.767,0.6 1.876,0.471 2.476,-0.291 0.603,-0.764 0.472,-1.873 -0.29,-2.477 -0.937,-0.736 -1.88,-1.464 -2.832,-2.182 -0.316,-0.239 -0.69,-0.354 -1.058,-0.354 m -181.812,-1.98 c -0.356,0 -0.716,0.109 -1.027,0.332 -0.969,0.696 -1.926,1.401 -2.876,2.119 -0.776,0.587 -0.929,1.692 -0.343,2.47 0.586,0.776 1.691,0.931 2.47,0.342 0.926,-0.7 1.862,-1.389 2.807,-2.07 0.79,-0.568 0.971,-1.67 0.401,-2.46 -0.344,-0.478 -0.884,-0.733 -1.432,-0.733 m 171.64,-5.058 c -0.583,0 -1.154,0.289 -1.49,0.819 -0.522,0.821 -0.277,1.911 0.546,2.432 0.984,0.625 1.962,1.258 2.931,1.905 0.81,0.541 1.903,0.322 2.443,-0.488 0.541,-0.811 0.322,-1.904 -0.488,-2.444 -0.993,-0.661 -1.992,-1.312 -3,-1.95 -0.293,-0.186 -0.62,-0.274 -0.942,-0.274 m -161.339,-1.745 c -0.312,0 -0.625,0.083 -0.911,0.255 -1.018,0.616 -2.027,1.242 -3.029,1.879 -0.822,0.522 -1.065,1.611 -0.542,2.432 0.522,0.821 1.613,1.062 2.432,0.542 0.981,-0.623 1.969,-1.236 2.964,-1.838 0.833,-0.504 1.1,-1.587 0.595,-2.42 -0.33,-0.547 -0.912,-0.85 -1.509,-0.85 m 150.629,-4.452 c -0.633,0 -1.246,0.342 -1.561,0.943 -0.454,0.86 -0.122,1.926 0.74,2.378 1.033,0.544 2.057,1.098 3.076,1.664 0.857,0.477 1.924,0.166 2.397,-0.683 0.474,-0.852 0.167,-1.924 -0.683,-2.397 -1.043,-0.58 -2.095,-1.148 -3.151,-1.702 -0.262,-0.138 -0.542,-0.203 -0.818,-0.203 M -65.08,-290.91 c -0.264,0 -0.534,0.06 -0.785,0.186 -1.064,0.53 -2.12,1.074 -3.17,1.626 -0.861,0.455 -1.191,1.52 -0.737,2.382 0.454,0.861 1.518,1.191 2.382,0.737 1.026,-0.542 2.058,-1.072 3.098,-1.592 0.871,-0.434 1.225,-1.492 0.79,-2.363 -0.308,-0.618 -0.931,-0.976 -1.578,-0.976 m 128.634,-3.819 c -0.685,0 -1.336,0.401 -1.621,1.072 -0.383,0.895 0.036,1.931 0.931,2.312 1.075,0.458 2.142,0.929 3.204,1.411 0.887,0.403 1.931,0.009 2.334,-0.878 0.401,-0.886 0.009,-1.931 -0.878,-2.333 -1.086,-0.493 -2.18,-0.975 -3.28,-1.443 -0.226,-0.096 -0.46,-0.141 -0.69,-0.141 m -117.382,-1.236 c -0.22,0 -0.442,0.042 -0.659,0.128 -1.1,0.444 -2.196,0.898 -3.286,1.365 -0.895,0.382 -1.309,1.418 -0.926,2.313 0.382,0.895 1.422,1.313 2.313,0.926 1.066,-0.456 2.138,-0.9 3.217,-1.334 0.902,-0.363 1.339,-1.391 0.976,-2.294 -0.277,-0.687 -0.938,-1.104 -1.635,-1.104 m 105.801,-3.158 c -0.739,0 -1.427,0.467 -1.673,1.207 -0.307,0.922 0.193,1.92 1.117,2.229 1.108,0.368 2.211,0.75 3.308,1.146 0.917,0.332 1.926,-0.148 2.256,-1.062 0.329,-0.917 -0.146,-1.926 -1.062,-2.256 -1.124,-0.403 -2.254,-0.796 -3.39,-1.174 -0.185,-0.06 -0.372,-0.09 -0.556,-0.09 m -94.158,-0.981 c -0.172,0 -0.348,0.026 -0.523,0.079 -1.138,0.353 -2.272,0.72 -3.401,1.098 -0.923,0.312 -1.418,1.31 -1.108,2.234 0.311,0.919 1.304,1.413 2.234,1.109 1.101,-0.372 2.208,-0.728 3.321,-1.074 0.93,-0.289 1.449,-1.275 1.16,-2.207 -0.234,-0.755 -0.931,-1.239 -1.683,-1.239 m 82.281,-2.451 c -0.792,0 -1.513,0.539 -1.711,1.343 -0.231,0.946 0.348,1.9 1.292,2.132 1.131,0.277 2.26,0.568 3.381,0.871 0.932,0.251 1.905,-0.301 2.161,-1.242 0.253,-0.94 -0.303,-1.907 -1.242,-2.162 -1.148,-0.31 -2.301,-0.608 -3.46,-0.892 -0.141,-0.034 -0.282,-0.05 -0.421,-0.05 m -70.335,-0.733 c -0.127,0 -0.258,0.014 -0.387,0.043 -1.164,0.26 -2.324,0.534 -3.477,0.82 -0.945,0.234 -1.521,1.189 -1.287,2.134 0.232,0.945 1.184,1.514 2.134,1.287 1.129,-0.279 2.261,-0.546 3.401,-0.802 0.95,-0.213 1.547,-1.155 1.334,-2.105 -0.185,-0.819 -0.911,-1.377 -1.718,-1.377 m 58.224,-1.726 c -0.851,0 -1.599,0.616 -1.739,1.482 -0.155,0.962 0.499,1.866 1.46,2.02 1.151,0.186 2.299,0.384 3.44,0.596 0.947,0.182 1.876,-0.454 2.053,-1.413 0.178,-0.957 -0.456,-1.876 -1.413,-2.053 -1.168,-0.215 -2.34,-0.42 -3.519,-0.61 -0.095,-0.015 -0.19,-0.022 -0.282,-0.022 m -46.063,-0.473 c -0.079,0 -0.162,0.005 -0.243,0.017 -1.184,0.163 -2.363,0.342 -3.537,0.534 -0.96,0.156 -1.612,1.063 -1.456,2.023 0.155,0.961 1.052,1.618 2.024,1.457 1.147,-0.188 2.296,-0.364 3.451,-0.524 0.964,-0.132 1.639,-1.022 1.504,-1.986 -0.122,-0.883 -0.876,-1.521 -1.743,-1.521 m 33.793,-1 c -0.91,0 -1.681,0.7 -1.755,1.623 -0.076,0.971 0.648,1.819 1.617,1.896 1.164,0.092 2.322,0.197 3.477,0.317 0.959,0.086 1.833,-0.604 1.934,-1.573 0.1,-0.969 -0.604,-1.835 -1.573,-1.934 -1.182,-0.121 -2.368,-0.229 -3.559,-0.324 -0.048,-0.003 -0.094,-0.005 -0.141,-0.005 m -21.496,-0.22 c -0.034,0 -0.069,10e-4 -0.105,0.003 -1.193,0.069 -2.38,0.153 -3.564,0.25 -0.971,0.08 -1.692,0.931 -1.613,1.901 0.081,0.969 0.929,1.682 1.902,1.613 1.156,-0.096 2.316,-0.177 3.481,-0.246 0.971,-0.057 1.713,-0.89 1.656,-1.862 -0.055,-0.937 -0.831,-1.659 -1.757,-1.659 m 9.149,-0.269 -0.325,0.002 c -0.974,0 -1.763,0.788 -1.763,1.762 0,0.974 0.789,1.763 1.763,1.763 l 0.353,-0.002 c 1.139,0 2.304,0.014 3.468,0.039 0.988,-0.022 1.779,-0.752 1.8,-1.724 0.02,-0.973 -0.751,-1.778 -1.725,-1.8 -1.187,-0.026 -2.376,-0.04 -3.571,-0.04"
         style="fill:#9dc5fa;fill-opacity:1;fill-rule:nonzero;stroke:none"
         transform="matrix(1.3333333,0,0,-1.3333333,187.30773,325.72373)"
         clip-path="url(#clipPath57)"
         id="path58" />
    </g>
    <g
       opacity="0.270004"
       id="g61"
       clip-path="url(#clipPath62)">
      <path
         d="m 0,0 v -33.076 c 69.578,-0.26 125.905,-56.733 125.905,-126.372 0,-69.639 -56.327,-126.112 -125.905,-126.373 v -33.075 c 88.061,0 159.448,71.387 159.448,159.448 C 159.448,-71.387 88.061,0 0,0"
         style="fill:#9dc5fa;fill-opacity:1;fill-rule:nonzero;stroke:none"
         transform="matrix(1.3333333,0,0,-1.3333333,0.07533333,315.40227)"
         clip-path="url(#clipPath60)"
         id="path61" />
    </g>
    <path
       id="path63"
       d="M 0,0 H 16.477 V -2.513 H 9.601 v -17.24 H 6.763 v 17.24 l -6.763,0 z"
       style="fill:#496c9d;fill-opacity:1;fill-rule:nonzero;stroke:none"
       transform="matrix(1.3333333,0,0,-1.3333333,471.16067,94.281067)"
       clip-path="url(#clipPath64)" />
    <path
       id="path65"
       d="m 0,0 h -9.135 c 0.066,-1.242 0.482,-2.231 1.249,-2.965 0.768,-0.734 1.758,-1.101 2.972,-1.101 1.695,0 3.257,0.527 4.688,1.581 v -2.513 c -0.791,-0.527 -1.574,-0.904 -2.351,-1.13 -0.776,-0.226 -1.687,-0.339 -2.732,-0.339 -1.431,0 -2.588,0.297 -3.473,0.89 -0.885,0.593 -1.593,1.391 -2.125,2.393 -0.532,1.003 -0.798,2.163 -0.798,3.481 0,1.976 0.56,3.583 1.68,4.821 1.12,1.238 2.575,1.857 4.363,1.857 1.723,0 3.097,-0.603 4.123,-1.807 C -0.513,3.963 0,2.348 0,0.325 Z m -9.079,1.539 h 6.537 C -2.607,2.565 -2.913,3.356 -3.459,3.911 -4.005,4.466 -4.739,4.744 -5.662,4.744 -6.584,4.744 -7.34,4.466 -7.928,3.911 -8.516,3.356 -8.9,2.565 -9.079,1.539"
       style="fill:#496c9d;fill-opacity:1;fill-rule:nonzero;stroke:none"
       transform="matrix(1.3333333,0,0,-1.3333333,505.19733,112.25947)"
       clip-path="url(#clipPath66)" />
    <path
       id="path67"
       d="M 0,0 V 2.767 C 0.725,2.259 1.466,1.847 2.224,1.532 2.981,1.217 3.619,1.059 4.137,1.059 4.673,1.059 5.135,1.191 5.521,1.454 5.906,1.718 6.099,2.033 6.099,2.4 6.099,2.777 5.975,3.09 5.725,3.339 5.476,3.589 4.937,3.949 4.109,4.419 2.452,5.342 1.367,6.13 0.854,6.784 0.341,7.438 0.085,8.151 0.085,8.923 c 0,0.998 0.388,1.812 1.164,2.443 0.777,0.631 1.777,0.946 3.001,0.946 1.271,0 2.574,-0.358 3.911,-1.073 V 8.697 C 6.636,9.62 5.389,10.081 4.419,10.081 3.92,10.081 3.518,9.975 3.212,9.763 2.906,9.552 2.753,9.272 2.753,8.923 2.753,8.622 2.892,8.335 3.17,8.062 3.447,7.789 3.935,7.46 4.631,7.074 L 5.549,6.551 C 7.714,5.328 8.796,3.972 8.796,2.485 8.796,1.421 8.38,0.548 7.547,-0.134 6.714,-0.817 5.643,-1.158 4.335,-1.158 3.563,-1.158 2.876,-1.075 2.273,-0.911 1.671,-0.746 0.913,-0.442 0,0"
       style="fill:#496c9d;fill-opacity:1;fill-rule:nonzero;stroke:none"
       transform="matrix(1.3333333,0,0,-1.3333333,508.0588,119.3756)"
       clip-path="url(#clipPath68)" />
    <path
       id="path69"
       d="M 0,0 4.829,4.744 V 2.061 H 8.937 V -0.254 H 4.829 v -6.368 c 0,-1.487 0.616,-2.231 1.849,-2.231 0.923,0 1.897,0.311 2.923,0.932 v -2.4 c -0.988,-0.555 -2.066,-0.833 -3.233,-0.833 -1.177,0 -2.156,0.343 -2.937,1.031 -0.245,0.207 -0.447,0.44 -0.607,0.698 -0.16,0.259 -0.294,0.598 -0.403,1.017 -0.108,0.419 -0.162,1.217 -0.162,2.393 v 5.761 l -2.259,0 z"
       style="fill:#496c9d;fill-opacity:1;fill-rule:nonzero;stroke:none"
       transform="matrix(1.3333333,0,0,-1.3333333,521.312,106.04707)"
       clip-path="url(#clipPath70)" />
    <path
       id="path71"
       d="m 0,0 h 2.86 v -17.376 h 8.996 v -2.603 l -11.856,0 z"
       style="fill:#496c9d;fill-opacity:1;fill-rule:nonzero;stroke:none"
       transform="matrix(1.3333333,0,0,-1.3333333,432.45627,62.084933)"
       clip-path="url(#clipPath72)" />
    <path
       id="path73"
       d="M 0,0 H 11.327 V -2.546 H 2.86 v -6.092 h 8.181 v -2.56 H 2.86 v -6.207 h 8.738 V -19.95 L 0,-19.95 Z"
       style="fill:#496c9d;fill-opacity:1;fill-rule:nonzero;stroke:none"
       transform="matrix(1.3333333,0,0,-1.3333333,451.6008,62.0848)"
       clip-path="url(#clipPath74)" />
    <path
       id="path75"
       d="m 0,0 h 6.707 v -8.466 c -2.46,-1.068 -4.9,-1.602 -7.322,-1.602 -3.308,0 -5.952,0.965 -7.93,2.896 -1.978,1.931 -2.967,4.312 -2.967,7.143 0,2.985 1.024,5.468 3.074,7.451 2.05,1.983 4.62,2.975 7.709,2.975 1.125,0 2.193,-0.122 3.203,-0.365 C 3.485,9.789 4.762,9.343 6.307,8.695 V 5.778 C 3.923,7.16 1.559,7.851 -0.787,7.851 -2.97,7.851 -4.81,7.108 -6.307,5.62 -7.804,4.133 -8.552,2.307 -8.552,0.143 c 0,-2.269 0.748,-4.124 2.245,-5.563 1.497,-1.44 3.423,-2.16 5.778,-2.16 1.144,0 2.512,0.263 4.104,0.787 l 0.272,0.086 v 4.161 l -3.847,0 z"
       style="fill:#496c9d;fill-opacity:1;fill-rule:nonzero;stroke:none"
       transform="matrix(1.3333333,0,0,-1.3333333,485.5232,75.604133)"
       clip-path="url(#clipPath76)" />
    <path
       id="path77"
       d="m 0,0 v -3.146 c -2.098,-1.144 -4.519,-1.716 -7.265,-1.716 -2.231,0 -4.124,0.448 -5.678,1.344 -1.554,0.896 -2.784,2.131 -3.689,3.704 -0.906,1.573 -1.359,3.275 -1.359,5.105 0,2.908 1.037,5.354 3.111,7.337 2.073,1.983 4.631,2.975 7.672,2.975 2.098,0 4.429,-0.549 6.993,-1.645 v -3.075 c -2.335,1.335 -4.619,2.002 -6.85,2.002 -2.288,0 -4.188,-0.722 -5.699,-2.166 -1.511,-1.445 -2.267,-3.254 -2.267,-5.428 0,-2.192 0.744,-3.994 2.231,-5.405 1.488,-1.412 3.39,-2.117 5.707,-2.117 2.421,0 4.786,0.744 7.093,2.231"
       style="fill:#496c9d;fill-opacity:1;fill-rule:nonzero;stroke:none"
       transform="matrix(1.3333333,0,0,-1.3333333,547.476,82.545067)"
       clip-path="url(#clipPath78)" />
    <path
       id="path79"
       d="m 0,0 h 3.461 l -7.38,-9.41 V -19.979 H -6.85 V -9.41 L -14.23,0 h 3.461 l 5.349,-6.893 z"
       style="fill:#496c9d;fill-opacity:1;fill-rule:nonzero;stroke:none"
       transform="matrix(1.3333333,0,0,-1.3333333,568.2032,62.0848)"
       clip-path="url(#clipPath80)" />
    <path
       id="path81"
       d="M 0,0 3.376,-7.48 C 2.232,-8.115 1.189,-8.439 0.191,-8.439 c -1.036,0 -2.124,0.35 -3.325,1.035 z m 7.101,-15.753 h 2.946 L 1.032,4.466 h -2.023 l -8.641,-20.219 h 2.963 l 2.474,5.843 c 1.333,-0.61 2.893,-1.048 4.382,-1.049 v -0.001 h 0.004 0.004 v 0.001 c 1.457,10e-4 2.982,0.42 4.296,1.01 z"
       style="fill:#496c9d;fill-opacity:1;fill-rule:nonzero;stroke:none"
       transform="matrix(1.3333333,0,0,-1.3333333,510.18227,66.778)"
       clip-path="url(#clipPath82)" />
    <path
       id="path83"
       d="m 0,0 c 0.297,0 0.497,0.116 0.497,0.363 0,0.219 -0.177,0.358 -0.43,0.358 H -0.556 V 0 Z m -0.944,1.049 h 1.06 c 0.592,0 0.792,-0.37 0.792,-0.629 0,-0.389 -0.276,-0.669 -0.685,-0.691 V -0.284 C 0.431,-0.356 0.581,-0.562 0.781,-0.883 L 1.073,-1.35 H 0.6 l -0.212,0.375 c -0.302,0.54 -0.418,0.641 -0.714,0.641 h -0.23 V -1.35 H -0.944 Z M 0.03,1.745 c -1.03,0 -1.859,-0.83 -1.859,-1.86 0,-1.029 0.829,-1.864 1.859,-1.864 1.032,0 1.867,0.835 1.867,1.864 0,1.03 -0.835,1.86 -1.867,1.86 m 0,-4.092 c -1.233,0 -2.227,0.997 -2.227,2.232 0,1.236 0.994,2.228 2.227,2.228 1.235,0 2.236,-0.992 2.236,-2.228 0,-1.235 -1.001,-2.232 -2.236,-2.232"
       style="fill:#496c9d;fill-opacity:1;fill-rule:nonzero;stroke:none"
       transform="matrix(1.3333333,0,0,-1.3333333,578.8308,63.641333)"
       clip-path="url(#clipPath84)" />
    <path
       id="path85"
       d="m 0,0 c 2.859,0.018 5.193,-2.287 5.211,-5.146 0.018,-2.861 -2.287,-5.193 -5.146,-5.211 -2.862,-0.018 -5.193,2.285 -5.211,5.146 C -5.164,-2.352 -2.861,-0.018 0,0"
       style="fill:#142446;fill-opacity:1;fill-rule:nonzero;stroke:none"
       transform="matrix(1.3333333,0,0,-1.3333333,408.55387,55.586)"
       clip-path="url(#clipPath86)" />
    <path
       id="path87"
       d="m 0,0 c 2.861,0.018 5.194,-2.286 5.212,-5.145 0.017,-2.862 -2.287,-5.193 -5.147,-5.211 -2.86,-0.018 -5.193,2.284 -5.211,5.146 C -5.163,-2.351 -2.86,-0.018 0,0"
       style="fill:#233d6f;fill-opacity:1;fill-rule:nonzero;stroke:none"
       transform="matrix(1.3333333,0,0,-1.3333333,394.50027,55.6756)"
       clip-path="url(#clipPath88)" />
    <path
       id="path89"
       d="m 0,0 c 2.859,0.018 5.193,-2.284 5.211,-5.143 0.018,-2.86 -2.287,-5.194 -5.146,-5.212 -2.861,-0.017 -5.194,2.287 -5.212,5.148 C -5.165,-2.348 -2.861,-0.018 0,0"
       style="fill:#233d6f;fill-opacity:1;fill-rule:nonzero;stroke:none"
       transform="matrix(1.3333333,0,0,-1.3333333,415.78147,68.229467)"
       clip-path="url(#clipPath90)" />
    <path
       id="path91"
       d="m 0,0 c 2.859,0.018 5.192,-2.284 5.209,-5.143 0.018,-2.86 -2.285,-5.194 -5.144,-5.212 -2.862,-0.017 -5.194,2.287 -5.212,5.148 C -5.165,-2.348 -2.861,-0.018 0,0"
       style="fill:#142446;fill-opacity:1;fill-rule:nonzero;stroke:none"
       transform="matrix(1.3333333,0,0,-1.3333333,401.72907,68.317333)"
       clip-path="url(#clipPath92)" />
    <path
       id="path93"
       d="m 0,0 c 2.86,0.018 5.192,-2.284 5.21,-5.143 0.018,-2.86 -2.285,-5.194 -5.145,-5.212 -2.861,-0.017 -5.193,2.287 -5.211,5.148 C -5.164,-2.348 -2.861,-0.018 0,0"
       style="fill:#a0c5fa;fill-opacity:1;fill-rule:nonzero;stroke:none"
       transform="matrix(1.3333333,0,0,-1.3333333,387.676,68.405333)"
       clip-path="url(#clipPath94)" />
    <path
       id="path95"
       d="m 0,0 c 2.859,0.018 5.193,-2.287 5.211,-5.146 0.018,-2.86 -2.287,-5.193 -5.146,-5.211 -2.862,-0.018 -5.193,2.286 -5.211,5.146 C -5.164,-2.352 -2.861,-0.018 0,0"
       style="fill:#496c9d;fill-opacity:1;fill-rule:nonzero;stroke:none"
       transform="matrix(1.3333333,0,0,-1.3333333,408.71267,80.957867)"
       clip-path="url(#clipPath96)" />
    <path
       id="path97"
       d="m 0,0 c 2.861,0.018 5.194,-2.287 5.212,-5.146 0.017,-2.86 -2.287,-5.193 -5.147,-5.211 -2.86,-0.018 -5.193,2.286 -5.211,5.146 C -5.163,-2.352 -2.86,-0.018 0,0"
       style="fill:#82a8dd;fill-opacity:1;fill-rule:nonzero;stroke:none"
       transform="matrix(1.3333333,0,0,-1.3333333,394.65893,81.045733)"
       clip-path="url(#clipPath98)" />
  </g>
</svg>
