<?xml version="1.0" encoding="UTF-8" standalone="no"?>
<!-- Creator: CorelDRAW -->

<svg
   xml:space="preserve"
   width="215.9mm"
   height="279.4mm"
   version="1.1"
   style="shape-rendering:geometricPrecision; text-rendering:geometricPrecision; image-rendering:optimizeQuality; fill-rule:evenodd; clip-rule:evenodd"
   viewBox="0 0 21590 27940"
   id="svg39"
   sodipodi:docname="brochure2.svg"
   inkscape:version="1.3.2 (091e20e, 2023-11-25, custom)"
   xmlns:inkscape="http://www.inkscape.org/namespaces/inkscape"
   xmlns:sodipodi="http://sodipodi.sourceforge.net/DTD/sodipodi-0.dtd"
   xmlns="http://www.w3.org/2000/svg"
   xmlns:svg="http://www.w3.org/2000/svg"><sodipodi:namedview
   id="namedview39"
   pagecolor="#ffffff"
   bordercolor="#000000"
   borderopacity="0.25"
   inkscape:showpageshadow="2"
   inkscape:pageopacity="0.0"
   inkscape:pagecheckerboard="0"
   inkscape:deskcolor="#d1d1d1"
   inkscape:document-units="mm"
   inkscape:zoom="1.0132576"
   inkscape:cx="407.59625"
   inkscape:cy="527.99999"
   inkscape:window-width="2400"
   inkscape:window-height="1284"
   inkscape:window-x="-9"
   inkscape:window-y="-1"
   inkscape:window-maximized="1"
   inkscape:current-layer="Capa_x0020_1" />
 <defs
   id="defs1">
  <style
   type="text/css"
   id="style1">
   <![CDATA[
    .fil4 {fill:#142446;fill-rule:nonzero}
    .fil2 {fill:#233D6F;fill-rule:nonzero}
    .fil0 {fill:#496C9D;fill-rule:nonzero}
    .fil6 {fill:#82A8DD;fill-rule:nonzero}
    .fil3 {fill:#9DC5FA;fill-rule:nonzero}
    .fil5 {fill:#A0C5FA;fill-rule:nonzero}
    .fil1 {fill:white;fill-rule:nonzero}
   ]]>
  </style>
 </defs>
 <g
   id="Capa_x0020_1"
   inkscape:label="Capa 1">
  <metadata
   id="CorelCorpID_0Corel-Layer" />
  <g
   id="_2387569415184">
   <polygon
   class="fil0"
   points="3303.73,27940 3303.73,0 -0,0 -0,27940 "
   id="polygon1" />
  </g>
  <path
   class="fil0"
   d="M9564.91 25536.03c-102.76,-438.67 -496.18,-765.42 -966.15,-765.42l-8598.76 0 0 3169.39 21590 0 0 -2403.97 -12025.09 0z"
   id="path1" />
  <polygon
   class="fil1"
   points="1325.51,26110.04 1428.1,26110.04 1428.1,26733.19 1750.68,26733.19 1750.68,26826.53 1325.51,26826.53 "
   id="polygon2" />
  <polygon
   class="fil1"
   points="1840.45,26110.04 2246.64,26110.04 2246.64,26201.34 1943.04,26201.34 1943.04,26419.81 2236.41,26419.81 2236.41,26511.64 1943.04,26511.64 1943.04,26734.21 2256.41,26734.21 2256.41,26825.51 1840.45,26825.51 "
   id="polygon3" />
  <path
   class="fil1"
   d="M2752.87 26473.67l240.52 0 0 303.64c-88.19,38.27 -175.72,57.43 -262.57,57.43 -118.64,0 -213.46,-34.61 -284.41,-103.86 -70.94,-69.25 -106.4,-154.62 -106.4,-256.18 0,-107.04 36.73,-196.08 110.25,-267.2 73.52,-71.12 165.66,-106.68 276.47,-106.68 40.32,0 78.63,4.34 114.86,13.05 36.27,8.72 82.06,24.73 137.45,47.98l0 104.6c-85.48,-49.56 -170.26,-74.37 -254.39,-74.37 -78.28,0 -144.29,26.67 -197.95,80.01 -53.69,53.34 -80.54,118.82 -80.54,196.47 0,81.35 26.85,147.88 80.54,199.49 53.66,51.65 122.74,77.44 207.19,77.44 41.03,0 90.1,-9.39 147.21,-28.19l9.74 -3.07 0 -149.26 -137.97 0 0 -91.3z"
   id="path3" />
  <path
   class="fil1"
   d="M4419.23 26660.36l0 112.82c-75.22,41.06 -162.07,61.56 -260.57,61.56 -80.01,0 -147.84,-16.05 -203.58,-48.22 -55.74,-32.14 -99.84,-76.42 -132.33,-132.83 -32.49,-56.4 -48.72,-117.44 -48.72,-183.09 0,-104.28 37.18,-191.98 111.55,-263.1 74.36,-71.12 166.09,-106.68 275.17,-106.68 75.21,0 158.82,19.65 250.79,58.99l0 110.24c-83.79,-47.87 -165.67,-71.79 -245.68,-71.79 -82.06,0 -150.18,25.89 -204.4,77.68 -54.19,51.82 -81.28,116.7 -81.28,194.66 0,78.64 26.67,143.27 80.01,193.85 53.34,50.63 121.57,75.92 204.65,75.92 86.85,0 171.62,-26.67 254.39,-80.01z"
   id="path4" />
  <polygon
   class="fil1"
   points="4976.73,26110.04 5100.84,26110.04 4836.18,26447.51 4836.18,26826.53 4731.05,26826.53 4731.05,26447.51 4466.4,26110.04 4590.54,26110.04 4782.35,26357.27 "
   id="polygon4" />
  <path
   class="fil1"
   d="M3416.13 26236.27l121.07 268.26c-41.03,22.79 -78.42,34.39 -114.23,34.39 -37.15,0 -76.16,-12.56 -119.24,-37.15l112.4 -265.5zm254.67 564.94l105.62 0 -323.29 -725.1 -72.53 0 -309.91 725.1 106.25 0 88.76 -209.55c47.8,21.91 103.72,37.61 157.13,37.64l0 0 0.14 0 0.14 0 0 0c52.25,-0.03 106.96,-15.06 154.1,-36.23l93.59 208.14z"
   id="path5" />
  <path
   class="fil1"
   d="M7615.44 26387.72c7.87,0 13.16,-3.1 13.16,-9.63 0,-5.79 -4.66,-9.49 -11.4,-9.49l-16.51 0 0 19.12 14.75 0zm-25.05 -27.8l28.12 0c15.7,0 21.02,9.81 21.02,16.65 0,10.3 -7.33,17.75 -18.16,18.35l0 0.32c5.5,1.94 9.48,7.4 14.78,15.91l7.72 12.34 -12.52 0 -5.65 -9.91c-7.97,-14.32 -11.04,-17 -18.9,-17l-6.11 0 0 26.91 -10.3 0 0 -63.57zm25.82 -18.48c-27.27,0 -49.24,22.05 -49.24,49.32 0,27.3 21.97,49.42 49.24,49.42 27.38,0 49.53,-22.12 49.53,-49.42 0,-27.27 -22.15,-49.32 -49.53,-49.32zm0 108.51c-32.66,0 -59.02,-26.46 -59.02,-59.19 0,-32.74 26.36,-59.06 59.02,-59.06 32.78,0 59.31,26.32 59.31,59.06 0,32.73 -26.53,59.19 -59.31,59.19z"
   id="path6" />
  <polygon
   class="fil1"
   points="5630.97,26430.3 5686.78,26430.3 5686.78,26840.54 5636.26,26840.54 5361.98,26524.88 5361.98,26840.54 5306.77,26840.54 5306.77,26430.3 5354.32,26430.3 5630.97,26748.64 "
   id="polygon6" />
  <path
   class="fil1"
   d="M5997.47 26710.17l-190.01 0c1.38,25.86 10.02,46.39 26,61.66 15.95,15.28 36.55,22.9 61.81,22.9 35.24,0 67.73,-10.94 97.51,-32.88l0 52.28c-16.44,10.97 -32.74,18.8 -48.9,23.5 -16.15,4.69 -35.1,7.05 -56.83,7.05 -29.77,0 -53.83,-6.17 -72.25,-18.52 -18.41,-12.31 -33.12,-28.93 -44.2,-49.78 -11.04,-20.85 -16.58,-44.98 -16.58,-72.39 0,-41.09 11.64,-74.54 34.96,-100.29 23.28,-25.72 53.51,-38.59 90.73,-38.59 35.81,0 64.42,12.52 85.76,37.57 21.35,25.08 32,58.63 32,100.75l0 6.74zm-188.84 -32l135.99 0c-1.37,-21.34 -7.76,-37.78 -19.12,-49.35 -11.32,-11.54 -26.6,-17.32 -45.79,-17.32 -19.19,0 -34.89,5.78 -47.13,17.32 -12.24,11.57 -20.21,28.01 -23.95,49.35z"
   id="path7" />
  <path
   class="fil1"
   d="M6017.44 26613.26l100.44 -98.68 0 55.81 85.44 0 0 48.16 -85.44 0 0 132.43c0,30.94 12.84,46.43 38.48,46.43 19.16,0 39.44,-6.5 60.79,-19.41l0 49.92c-20.57,11.57 -42.97,17.32 -67.28,17.32 -24.44,0 -44.8,-7.12 -61.06,-21.41 -5.08,-4.31 -9.32,-9.17 -12.63,-14.54 -3.32,-5.39 -6.11,-12.45 -8.36,-21.16 -2.26,-8.72 -3.39,-25.3 -3.39,-49.78l0 -119.8 -46.99 0 0 -5.29z"
   id="path8" />
  <polygon
   class="fil1"
   points="6593.04,26570.38 6650.3,26570.38 6531.09,26845.26 6514.33,26845.26 6434.15,26657.02 6355.44,26845.26 6338.12,26845.26 6217.72,26570.38 6274.97,26570.38 6345.78,26734.24 6414.5,26570.38 6454.12,26570.38 6522.55,26734.24 "
   id="polygon8" />
  <path
   class="fil1"
   d="M6805.37 26569.79c41.09,0 75.28,13.27 102.48,39.8 27.23,26.53 40.81,59.86 40.81,100.01 0,38.95 -13.79,71.3 -41.38,97.05 -27.62,25.75 -62.37,38.59 -104.28,38.59 -40.5,0 -74.36,-13.05 -101.6,-39.19 -27.2,-26.14 -40.81,-58.77 -40.81,-97.93 0,-39.55 13.75,-72.5 41.27,-98.82 27.48,-26.35 61.98,-39.51 103.51,-39.51zm-2.93 48.16c-25.65,0 -46.71,8.43 -63.15,25.26 -16.44,16.82 -24.66,38.27 -24.66,64.31 0,25.86 8.4,46.95 25.26,63.29 16.83,16.37 38.45,24.51 64.88,24.51 26.24,0 47.73,-8.25 64.48,-24.8 16.73,-16.54 25.09,-37.74 25.09,-63.57 0,-25.64 -8.72,-46.92 -26.14,-63.74 -17.43,-16.83 -39.34,-25.26 -65.76,-25.26z"
   id="path9" />
  <path
   class="fil1"
   d="M7065.27 26570.38l0 61.95 2.93 -4.7c25.85,-41.69 51.68,-62.54 77.54,-62.54 20.18,0 41.2,10.19 63.14,30.55l-28.18 46.99c-18.63,-17.64 -35.85,-26.43 -51.72,-26.43 -17.22,0 -32.14,8.22 -44.77,24.66 -12.63,16.44 -18.94,35.92 -18.94,58.42l0 141.29 -53.73 0 0 -270.19 53.73 0z"
   id="path10" />
  <path
   class="fil1"
   d="M7421.78 26570.38l63.72 0 -115.4 132.43 138.89 137.76 -71.65 0 -135.36 -137.76 119.8 -132.43zm-175.61 -140.09l53.45 0 0 410.25 -53.45 0 0 -410.25z"
   id="path11" />
  <path
   class="fil1"
   d="M1462.75 25648.04l29.14 0 129.15 290.37 -42.37 0 -38.41 -85.58 -122.77 0 -36.37 85.58 -42.37 0 124 -290.37zm60.54 168.03l-46.5 -104.6 -43.18 104.6 89.68 0z"
   id="path12" />
  <path
   class="fil1"
   d="M1921.12 25800.35l0 138.04 -37.82 0 0 -105.8c0,-21.1 -2.82,-35.81 -8.46,-44.13 -5.65,-8.33 -15.52,-12.49 -29.57,-12.49 -7.86,0 -15.06,1.8 -21.59,5.36 -6.56,3.6 -14,9.91 -22.43,19.02l0 138.04 -37.61 0 0 -190.11 37.61 0 0 25.01c19.15,-19.16 37.89,-28.75 56.23,-28.75 24.1,0 42.76,11.43 55.99,34.32 20.1,-23.14 41.13,-34.71 63.04,-34.71 18.45,0 33.65,6.74 45.58,20.25 11.89,13.47 17.85,34.08 17.85,61.77l0 112.22 -37.61 0 0 -112.61c0,-15.87 -3.24,-27.97 -9.7,-36.37 -6.49,-8.43 -15.77,-12.63 -27.9,-12.63 -15.56,0 -30.1,7.87 -43.61,23.57z"
   id="path13" />
  <path
   class="fil1"
   d="M2253.64 25846.64l-133.71 0c0.96,18.2 7.06,32.67 18.28,43.39 11.25,10.76 25.75,16.12 43.49,16.12 24.81,0 47.7,-7.72 68.62,-23.14l0 36.79c-11.57,7.69 -23.04,13.23 -34.4,16.51 -11.36,3.32 -24.69,4.98 -40,4.98 -20.92,0 -37.89,-4.34 -50.84,-13.02 -12.94,-8.68 -23.31,-20.35 -31.08,-35.03 -7.79,-14.68 -11.67,-31.64 -11.67,-50.94 0,-28.93 8.18,-52.46 24.59,-70.59 16.4,-18.1 37.67,-27.17 63.85,-27.17 25.22,0 45.33,8.82 60.32,26.46 15.03,17.64 22.55,41.28 22.55,70.88l0 4.76zm-132.9 -22.54l95.71 0c-0.98,-15 -5.46,-26.57 -13.44,-34.72 -8.01,-8.11 -18.73,-12.17 -32.24,-12.17 -13.51,0 -24.55,4.06 -33.16,12.17 -8.61,8.15 -14.25,19.72 -16.87,34.72z"
   id="path14" />
  <path
   class="fil1"
   d="M2450.17 25800.35l0 138.04 -37.82 0 0 -105.8c0,-21.1 -2.82,-35.81 -8.47,-44.13 -5.64,-8.33 -15.52,-12.49 -29.56,-12.49 -7.87,0 -15.06,1.8 -21.59,5.36 -6.56,3.6 -14,9.91 -22.44,19.02l0 138.04 -37.6 0 0 -190.11 37.6 0 0 25.01c19.16,-19.16 37.89,-28.75 56.24,-28.75 24.09,0 42.75,11.43 55.98,34.32 20.11,-23.14 41.14,-34.71 63.04,-34.71 18.46,0 33.66,6.74 45.58,20.25 11.89,13.47 17.85,34.08 17.85,61.77l0 112.22 -37.6 0 0 -112.61c0,-15.87 -3.25,-27.97 -9.7,-36.37 -6.49,-8.43 -15.77,-12.63 -27.91,-12.63 -15.56,0 -30.09,7.87 -43.6,23.57z"
   id="path15" />
  <path
   class="fil1"
   d="M2619.01 25649.69l37.6 0 0 112.22c16.27,-11.85 33.62,-17.78 52.07,-17.78 24.13,0 43.82,9.1 59.13,27.27 15.28,18.2 22.93,41.56 22.93,70.06 0,30.59 -9.14,54.97 -27.38,73.06 -18.27,18.14 -42.68,27.17 -73.27,27.17 -12.24,0 -25.19,-1.31 -38.73,-3.92 -13.58,-2.61 -24.34,-5.93 -32.35,-9.91l0 -278.17zm37.6 148.17l0 102.94c12.81,3.85 25.97,5.79 39.48,5.79 16.69,0 30.27,-5.93 40.82,-17.78 10.54,-11.86 15.8,-27.1 15.8,-45.69 0,-18.87 -4.9,-34.22 -14.78,-46.07 -9.84,-11.86 -22.68,-17.78 -38.52,-17.78 -14.08,0 -28.33,6.21 -42.8,18.59z"
   id="path16" />
  <path
   class="fil1"
   d="M2994.3 25846.64l-133.7 0c0.95,18.2 7.05,32.67 18.27,43.39 11.25,10.76 25.75,16.12 43.5,16.12 24.8,0 47.69,-7.72 68.61,-23.14l0 36.79c-11.57,7.69 -23.03,13.23 -34.39,16.51 -11.36,3.32 -24.7,4.98 -40.01,4.98 -20.92,0 -37.89,-4.34 -50.83,-13.02 -12.95,-8.68 -23.32,-20.35 -31.08,-35.03 -7.8,-14.68 -11.68,-31.64 -11.68,-50.94 0,-28.93 8.19,-52.46 24.59,-70.59 16.4,-18.1 37.68,-27.17 63.85,-27.17 25.23,0 45.33,8.82 60.33,26.46 15.03,17.64 22.54,41.28 22.54,70.88l0 4.76zm-132.89 -22.54l95.71 0c-0.99,-15 -5.47,-26.57 -13.44,-34.72 -8.01,-8.11 -18.74,-12.17 -32.25,-12.17 -13.51,0 -24.55,4.06 -33.16,12.17 -8.61,8.15 -14.25,19.72 -16.86,34.72z"
   id="path17" />
  <path
   class="fil1"
   d="M3075.31 25748.27l0 43.6 2.08 -3.31c18.17,-29.35 36.37,-43.99 54.54,-43.99 14.18,0 29,7.16 44.45,21.48l-19.86 33.05c-13.09,-12.38 -25.19,-18.59 -36.37,-18.59 -12.1,0 -22.62,5.79 -31.51,17.36 -8.89,11.57 -13.33,25.29 -13.33,41.13l0 99.38 -37.82 0 0 -190.11 37.82 0z"
   id="path18" />
  <path
   class="fil1"
   d="M3411.13 25747.86c28.93,0 52.99,9.35 72.11,28.01 19.16,18.66 28.75,42.12 28.75,70.34 0,27.45 -9.74,50.2 -29.14,68.33 -19.44,18.1 -43.88,27.17 -73.38,27.17 -28.5,0 -52.35,-9.21 -71.5,-27.59 -19.16,-18.41 -28.72,-41.38 -28.72,-68.93 0,-27.84 9.67,-51.01 29.03,-69.53 19.37,-18.53 43.64,-27.8 72.85,-27.8zm-2.08 33.9c-18.03,0 -32.84,5.93 -44.41,17.78 -11.58,11.82 -17.36,26.92 -17.36,45.22 0,18.21 5.93,33.06 17.78,44.56 11.85,11.5 27.06,17.25 45.65,17.25 18.48,0 33.58,-5.82 45.37,-17.46 11.78,-11.64 17.67,-26.57 17.67,-44.73 0,-18.07 -6.14,-33.02 -18.38,-44.84 -12.28,-11.85 -27.69,-17.78 -46.32,-17.78z"
   id="path19" />
  <path
   class="fil1"
   d="M3558.06 25748.27l0 -11.36c0,-30.59 6.53,-53.41 19.55,-68.4 13.02,-15.03 28.61,-22.55 46.78,-22.55 7.86,0 17.18,1.24 27.9,3.74l0 36.76c-6.07,-2.18 -11.85,-3.28 -17.36,-3.28 -14.74,0 -24.97,3.92 -30.69,11.78 -5.71,7.84 -8.57,21.84 -8.57,41.95l0 11.36 33.9 0 0 33.9 -33.9 0 0 156.21 -37.61 0 0 -156.21 -27.27 0 0 -33.9 27.27 0z"
   id="path20" />
  <path
   class="fil2"
   d="M4685.64 5589.56c9.41,0 14.11,4.71 14.11,14.11l0 11.29c0,9.41 -4.7,14.11 -14.11,14.11l-287.86 0c-3.77,0 -5.65,1.89 -5.65,5.65l0 928.51c0,9.41 -4.7,14.11 -14.11,14.11l-14.11 0c-9.41,0 -14.11,-4.7 -14.11,-14.11l0 -928.51c0,-3.76 -1.88,-5.65 -5.65,-5.65l-273.75 0c-9.41,0 -14.11,-4.7 -14.11,-14.11l0 -11.29c0,-9.4 4.7,-14.11 14.11,-14.11l615.24 0zm407.81 269.53c79.96,0 139.7,20.93 179.21,62.79 39.51,41.86 59.27,99.01 59.27,171.45l0 469.9c0,9.41 -4.71,14.11 -14.11,14.11l-14.11 0c-9.41,0 -14.12,-4.7 -14.12,-14.11l0 -73.38c0,-1.88 -0.7,-3.29 -2.11,-4.23 -1.41,-0.94 -3.06,-0.47 -4.94,1.41 -23.52,32.92 -55.98,58.09 -97.37,75.49 -41.39,17.41 -86.55,26.11 -135.46,26.11 -63.98,0 -118.3,-15.76 -162.99,-47.27 -44.68,-31.52 -67.03,-80.67 -67.03,-147.46 0,-67.74 25.64,-121.12 76.91,-160.17 51.27,-39.04 122.06,-58.56 212.37,-58.56l174.98 0c3.76,0 5.64,-1.88 5.64,-5.64l0 -79.02c0,-58.33 -15.99,-104.9 -47.97,-139.7 -31.99,-34.81 -82.32,-52.21 -150.99,-52.21 -52.68,0 -96.43,10.81 -131.24,32.45 -34.8,21.64 -55.97,51.27 -63.5,88.9 -2.82,9.41 -8.46,13.17 -16.93,11.29l-14.11 -2.82c-9.41,-1.88 -13.64,-6.12 -12.7,-12.7 9.41,-47.04 35.75,-84.9 79.02,-113.6 43.28,-28.69 97.37,-43.03 162.28,-43.03zm-42.33 691.44c63.97,0 119.71,-15.52 167.21,-46.57 47.51,-31.04 71.26,-74.79 71.26,-131.23l0 -153.81c0,-3.76 -1.88,-5.65 -5.64,-5.65l-176.39 0c-73.38,0 -132.64,15.76 -177.8,47.28 -45.15,31.51 -67.73,75.49 -67.73,131.93 0,51.75 17.4,91.02 52.21,117.83 34.81,26.81 80.43,40.22 136.88,40.22zm993.42 -505.18c4.7,20.7 7.52,43.75 8.47,69.15 0.94,25.4 1.41,62.56 1.41,111.47 0,47.98 -0.47,84.2 -1.41,108.66 -0.95,24.46 -3.77,47.04 -8.47,67.73 -14.11,56.45 -42.81,101.6 -86.08,135.47 -43.27,33.87 -96.43,50.8 -159.45,50.8 -46.1,0 -86.55,-9.88 -121.36,-29.63 -34.81,-19.76 -62.09,-47.04 -81.84,-81.85 -1.89,-1.88 -3.53,-2.59 -4.94,-2.12 -1.41,0.47 -2.12,2.12 -2.12,4.94l0 83.26c0,9.41 -4.7,14.11 -14.11,14.11l-14.11 0c-9.41,0 -14.11,-4.7 -14.11,-14.11l0 -959.56c0,-9.4 4.7,-14.11 14.11,-14.11l14.11 0c9.41,0 14.11,4.71 14.11,14.11l0 364.07c0,2.82 0.71,4.47 2.12,4.94 1.41,0.47 3.05,-0.24 4.94,-2.12 19.75,-34.8 47.03,-62.09 81.84,-81.84 34.81,-19.76 75.26,-29.63 121.36,-29.63 63.02,0 116.65,17.16 160.86,51.5 44.22,34.34 72.44,79.26 84.67,134.76zm-40.92 342.9c2.82,-17.87 4.94,-36.45 6.35,-55.74 1.41,-19.28 2.11,-55.74 2.11,-109.36 0,-55.5 -0.7,-92.66 -2.11,-111.48 -1.41,-18.81 -4,-36.21 -7.76,-52.21 -9.41,-46.09 -32.93,-84.43 -70.56,-115 -37.63,-30.58 -83.26,-45.86 -136.88,-45.86 -52.68,0 -96.66,15.28 -131.94,45.86 -35.27,30.57 -57.15,68.91 -65.61,115 -2.83,17.88 -4.94,36.46 -6.35,55.74 -1.41,19.29 -2.12,55.74 -2.12,109.36 0,54.57 0.71,91.49 2.12,110.77 1.41,19.29 3.52,36.93 6.35,52.92 9.4,46.1 31.28,84.43 65.61,115.01 34.34,30.57 78.32,45.86 131.94,45.86 54.56,0 101.13,-15.05 139.7,-45.16 38.57,-30.1 61.62,-68.67 69.15,-115.71zm277.98 189.09c-9.41,0 -14.11,-4.7 -14.11,-14.11l0 -959.56c0,-9.4 4.7,-14.11 14.11,-14.11l14.11 0c9.41,0 14.11,4.71 14.11,14.11l0 959.56c0,9.41 -4.7,14.11 -14.11,14.11l-14.11 0zm486.83 -718.25c79.96,0 139.7,20.93 179.21,62.79 39.51,41.86 59.27,99.01 59.27,171.45l0 469.9c0,9.41 -4.71,14.11 -14.11,14.11l-14.11 0c-9.41,0 -14.12,-4.7 -14.12,-14.11l0 -73.38c0,-1.88 -0.7,-3.29 -2.11,-4.23 -1.41,-0.94 -3.06,-0.47 -4.94,1.41 -23.52,32.92 -55.98,58.09 -97.37,75.49 -41.39,17.41 -86.55,26.11 -135.46,26.11 -63.98,0 -118.3,-15.76 -162.99,-47.27 -44.68,-31.52 -67.03,-80.67 -67.03,-147.46 0,-67.74 25.64,-121.12 76.91,-160.17 51.27,-39.04 122.06,-58.56 212.37,-58.56l174.98 0c3.76,0 5.64,-1.88 5.64,-5.64l0 -79.02c0,-58.33 -15.99,-104.9 -47.97,-139.7 -31.99,-34.81 -82.32,-52.21 -150.99,-52.21 -52.68,0 -96.43,10.81 -131.24,32.45 -34.8,21.64 -55.97,51.27 -63.5,88.9 -2.82,9.41 -8.46,13.17 -16.93,11.29l-14.11 -2.82c-9.41,-1.88 -13.64,-6.12 -12.7,-12.7 9.41,-47.04 35.75,-84.9 79.02,-113.6 43.28,-28.69 97.37,-43.03 162.28,-43.03zm-42.33 691.44c63.97,0 119.71,-15.52 167.21,-46.57 47.51,-31.04 71.26,-74.79 71.26,-131.23l0 -153.81c0,-3.76 -1.88,-5.65 -5.64,-5.65l-176.39 0c-73.38,0 -132.64,15.76 -177.8,47.28 -45.15,31.51 -67.73,75.49 -67.73,131.93 0,51.75 17.4,91.02 52.21,117.83 34.81,26.81 80.43,40.22 136.88,40.22zm1250.24 -946.86c0,-9.4 4.71,-14.11 14.11,-14.11l14.12 0c9.4,0 14.11,4.71 14.11,14.11l0 959.56c0,9.41 -4.71,14.11 -14.11,14.11l-14.12 0c-9.4,0 -14.11,-4.7 -14.11,-14.11l0 -81.85c0,-2.82 -0.7,-4.46 -2.11,-4.93 -1.41,-0.47 -3.06,0.23 -4.94,2.11 -19.76,34.81 -47.04,61.86 -81.85,81.14 -34.8,19.29 -74.79,28.93 -119.94,28.93 -63.03,0 -116.42,-16.93 -160.16,-50.8 -43.75,-33.87 -72.2,-79.02 -85.37,-135.47 -4.71,-20.69 -7.77,-43.27 -9.18,-67.73 -1.41,-24.46 -2.11,-60.68 -2.11,-108.66 0,-48.91 0.47,-86.07 1.41,-111.47 0.94,-25.4 3.76,-48.45 8.46,-69.15 13.17,-56.44 41.63,-101.6 85.38,-135.47 43.74,-33.86 97.6,-50.79 161.57,-50.79 45.15,0 85.14,9.87 119.94,29.63 34.81,19.75 62.09,47.04 81.85,81.84 1.88,1.88 3.53,2.59 4.94,2.12 1.41,-0.47 2.11,-2.12 2.11,-4.94l0 -364.07zm-8.46 784.58c2.82,-15.99 4.94,-33.63 6.35,-52.92 1.41,-19.28 2.11,-56.2 2.11,-110.77 0,-53.62 -0.7,-90.07 -2.11,-109.36 -1.41,-19.28 -3.53,-37.86 -6.35,-55.74 -8.47,-46.09 -30.11,-84.43 -64.91,-115 -34.81,-30.58 -79.03,-45.86 -132.65,-45.86 -53.62,0 -99.25,15.28 -136.88,45.86 -37.63,30.57 -61.14,68.91 -70.55,115 -3.77,17.88 -6.35,36.46 -7.76,55.74 -1.41,19.29 -2.12,55.27 -2.12,107.95 0,54.56 0.71,91.49 2.12,110.77 1.41,19.29 3.99,37.4 7.76,54.33 7.52,47.04 30.57,85.61 69.14,115.71 38.57,30.11 84.67,45.16 138.29,45.16 53.62,0 97.6,-15.29 131.94,-45.86 34.34,-30.58 56.21,-68.91 65.62,-115.01zm527.74 160.87c49.86,0 93.14,-11.53 129.83,-34.57 36.69,-23.05 63.03,-54.33 79.02,-93.84 2.82,-8.47 8.47,-11.76 16.93,-9.88l11.29 2.82c9.41,2.82 12.7,8.47 9.88,16.93 -17.88,47.98 -48.68,86.32 -92.43,115.01 -43.74,28.69 -95.72,43.04 -155.93,43.04 -63.97,0 -117.82,-16.7 -161.57,-50.1 -43.74,-33.39 -73.14,-77.84 -88.19,-133.35 -5.65,-21.63 -9.18,-45.39 -10.59,-71.26 -1.41,-25.87 -2.11,-63.26 -2.11,-112.18 0,-44.21 0.7,-79.26 2.11,-105.13 1.41,-25.87 4.47,-49.15 9.18,-69.85 13.17,-56.44 42.09,-101.83 86.78,-136.17 44.68,-34.34 99.48,-51.5 164.39,-51.5 67.74,0 124.42,17.63 170.04,52.91 45.63,35.28 74.09,82.55 85.37,141.82 3.77,17.87 6.12,39.04 7.06,63.5 0.94,24.46 1.41,57.85 1.41,100.19 0,10.35 -4.7,15.52 -14.11,15.52l-464.26 0c-3.76,0 -5.64,1.88 -5.64,5.64 0,32.93 0.47,62.33 1.41,88.2 0.94,25.87 2.82,44.45 5.65,55.74 9.4,49.86 33.16,90.07 71.26,120.65 38.1,30.57 85.84,45.86 143.22,45.86zm-1.41 -650.52c-56.44,0 -103.71,15.28 -141.81,45.86 -38.1,30.57 -61.86,70.32 -71.26,119.24 -4.71,20.69 -7.06,63.03 -7.06,127 0,3.76 1.88,5.64 5.64,5.64l430.39 0c3.77,0 5.65,-1.88 5.65,-5.64 0,-63.97 -2.35,-105.84 -7.06,-125.59 -10.35,-49.86 -34.57,-90.08 -72.67,-120.65 -38.1,-30.58 -85.37,-45.86 -141.82,-45.86z"
   id="path21" />
  <path
   class="fil2"
   d="M4361.97 7708.38c-59.27,0 -111.74,-11.73 -157.43,-35.19 -45.68,-23.46 -81.08,-56.79 -106.18,-100.01 -25.11,-43.21 -37.66,-92.81 -37.66,-148.78l0 -319.8c0,-55.97 12.55,-105.15 37.66,-147.54 25.1,-42.4 60.5,-75.32 106.18,-98.78 45.69,-23.46 98.16,-35.19 157.43,-35.19 59.27,0 111.54,11.32 156.81,33.95 45.27,22.64 80.46,54.54 105.57,95.69 25.1,41.16 37.66,88.9 37.66,143.23l0 1.24c0,4.11 -1.24,7.4 -3.71,9.87 -2.47,2.47 -5.35,3.71 -8.64,3.71l-93.84 4.94c-8.23,0 -12.35,-3.71 -12.35,-11.12l0 -3.7c0,-52.68 -16.46,-95.07 -49.39,-127.18 -32.92,-32.1 -76.96,-48.15 -132.11,-48.15 -55.15,0 -99.4,16.05 -132.73,48.15 -33.34,32.11 -50.01,74.5 -50.01,127.18l0 328.44c0,52.68 16.67,95.07 50.01,127.17 33.33,32.1 77.58,48.16 132.73,48.16 55.15,0 99.19,-16.06 132.11,-48.16 32.93,-32.1 49.39,-74.49 49.39,-127.17l0 -2.47c0,-7.41 4.12,-11.12 12.35,-11.12l93.84 4.94c8.23,0 12.35,4.12 12.35,12.35 0,54.33 -12.56,102.28 -37.66,143.84 -25.11,41.57 -60.3,73.88 -105.57,96.93 -45.27,23.05 -97.54,34.57 -156.81,34.57zm684.03 -1.23c-60.91,0 -114,-15.44 -159.28,-46.3 -45.27,-30.87 -76.96,-73.88 -95.07,-129.03 -14.82,-44.45 -22.23,-94.66 -22.23,-150.64 0,-58.44 7,-107.83 21,-148.16 18.1,-54.33 49.8,-96.93 95.07,-127.8 45.27,-30.87 99.19,-46.3 161.75,-46.3 59.26,0 110.92,15.43 154.95,46.3 44.04,30.87 75.53,73.06 94.46,126.56 14.82,41.98 22.23,91.37 22.23,148.17 0,57.62 -7.41,108.24 -22.23,151.87 -18.11,55.15 -49.39,98.16 -93.84,129.03 -44.45,30.86 -96.72,46.3 -156.81,46.3zm0 -102.48c32.93,0 61.74,-9.26 86.43,-27.79 24.7,-18.52 42.39,-44.65 53.1,-78.4 9.05,-31.28 13.58,-69.97 13.58,-116.06 0,-46.1 -4.12,-84.38 -12.35,-114.83 -10.7,-33.75 -28.4,-59.89 -53.09,-78.41 -24.7,-18.52 -54.74,-27.78 -90.14,-27.78 -33.75,0 -62.97,9.26 -87.66,27.78 -24.7,18.52 -42.39,44.66 -53.1,78.41 -9.05,28.81 -13.58,67.08 -13.58,114.83 0,47.74 4.53,86.43 13.58,116.06 9.88,33.75 27.37,59.88 52.48,78.4 25.11,18.53 55.36,27.79 90.75,27.79zm680.33 -544.52c67.5,0 121,19.55 160.52,58.65 39.51,39.1 59.26,91.99 59.26,158.67l0 407.45c0,8.23 -4.11,12.35 -12.35,12.35l-93.83 0c-8.24,0 -12.35,-4.12 -12.35,-12.35l0 -384c0,-41.15 -11.94,-74.49 -35.81,-100.01 -23.87,-25.51 -55.56,-38.27 -95.07,-38.27 -38.69,0 -70.38,12.76 -95.07,38.27 -24.7,25.52 -37.05,58.45 -37.05,98.78l0 385.23c0,8.23 -4.11,12.35 -12.34,12.35l-93.84 0c-8.23,0 -12.35,-4.12 -12.35,-12.35l0 -603.78c0,-8.23 4.12,-12.34 12.35,-12.34l93.84 0c8.23,0 12.34,4.11 12.34,12.34l0 44.45c0,1.65 0.62,2.89 1.86,3.71 1.23,0.82 2.26,0.41 3.08,-1.24 35.4,-45.27 87.67,-67.91 156.81,-67.91zm670.46 93.84c0,8.23 -4.12,12.35 -12.35,12.35l-133.35 0c-3.29,0 -4.94,1.65 -4.94,4.94l0 327.2c0,34.57 7.82,59.47 23.46,74.7 15.64,15.23 39.92,22.84 72.85,22.84l35.8 0c8.24,0 12.35,4.12 12.35,12.35l0 76.55c0,8.23 -4.11,12.35 -12.35,12.35 -26.34,1.65 -45.27,2.47 -56.79,2.47 -62.56,0 -109.69,-11.32 -141.38,-33.96 -31.69,-22.63 -47.53,-64.41 -47.53,-125.32l0 -369.18c0,-3.29 -1.65,-4.94 -4.94,-4.94l-75.32 0c-8.23,0 -12.35,-4.12 -12.35,-12.35l0 -72.85c0,-8.23 4.12,-12.34 12.35,-12.34l75.32 0c3.29,0 4.94,-1.65 4.94,-4.94l0 -145.7c0,-8.23 4.11,-12.35 12.34,-12.35l88.9 0c8.23,0 12.35,4.12 12.35,12.35l0 145.7c0,3.29 1.65,4.94 4.94,4.94l133.35 0c8.23,0 12.35,4.11 12.35,12.34l0 72.85zm611.19 150.64c3.29,33.75 4.52,71.61 3.7,113.59 0,8.23 -4.12,12.35 -12.35,12.35l-393.87 0c-3.3,0 -4.94,1.65 -4.94,4.94 0,27.99 2.47,49.39 7.41,64.2 9.05,32.93 27.37,58.65 54.94,77.17 27.58,18.53 62.35,27.79 104.33,27.79 60.92,0 107.84,-25.11 140.76,-75.32 4.12,-8.23 9.47,-9.47 16.05,-3.71l70.38 46.92c5.77,4.94 7,10.29 3.71,16.05 -23.05,37.05 -55.77,66.27 -98.16,87.67 -42.4,21.4 -90.34,32.1 -143.85,32.1 -60.09,0 -110.71,-13.17 -151.87,-39.51 -41.16,-26.34 -72.02,-63.79 -92.6,-112.36 -19.76,-48.56 -29.64,-107.42 -29.64,-176.56 0,-60.09 4.53,-105.78 13.59,-137.06 14.81,-56.79 44.45,-101.66 88.9,-134.58 44.45,-32.93 98.36,-49.39 161.74,-49.39 83.14,0 145.29,20.78 186.45,62.35 41.15,41.57 66.26,102.69 75.32,183.36zm-261.77 -143.23c-35.39,0 -64.61,8.85 -87.66,26.55 -23.05,17.7 -38.69,41.36 -46.92,70.99 -5.76,18.11 -9.47,41.16 -11.11,69.15 0,3.29 1.64,4.94 4.94,4.94l282.75 0c3.29,0 4.94,-1.65 4.94,-4.94 -1.65,-27.17 -4.12,-47.33 -7.41,-60.5 -8.23,-32.11 -24.49,-57.83 -48.77,-77.17 -24.29,-19.35 -54.54,-29.02 -90.76,-29.02zm666.75 -101.25c67.5,0 121,19.55 160.52,58.65 39.51,39.1 59.26,91.99 59.26,158.67l0 407.45c0,8.23 -4.11,12.35 -12.35,12.35l-93.83 0c-8.24,0 -12.35,-4.12 -12.35,-12.35l0 -384c0,-41.15 -11.94,-74.49 -35.81,-100.01 -23.87,-25.51 -55.56,-38.27 -95.07,-38.27 -38.69,0 -70.38,12.76 -95.07,38.27 -24.7,25.52 -37.05,58.45 -37.05,98.78l0 385.23c0,8.23 -4.11,12.35 -12.34,12.35l-93.84 0c-8.23,0 -12.35,-4.12 -12.35,-12.35l0 -603.78c0,-8.23 4.12,-12.34 12.35,-12.34l93.84 0c8.23,0 12.34,4.11 12.34,12.34l0 44.45c0,1.65 0.62,2.89 1.86,3.71 1.23,0.82 2.26,0.41 3.08,-1.24 35.4,-45.27 87.67,-67.91 156.81,-67.91zm432.15 -90.13c-23.04,0 -41.98,-7.41 -56.79,-22.23 -14.82,-14.81 -22.23,-33.74 -22.23,-56.79 0,-23.05 7.41,-41.98 22.23,-56.8 14.81,-14.82 33.75,-22.22 56.79,-22.22 23.05,0 41.98,7.4 56.8,22.22 14.82,14.82 22.23,33.75 22.23,56.8 0,23.05 -7.41,41.98 -22.23,56.79 -14.82,14.82 -33.75,22.23 -56.8,22.23zm-49.38 726.02c-8.24,0 -12.35,-4.12 -12.35,-12.35l0 -602.55c0,-8.23 4.11,-12.34 12.35,-12.34l93.83 0c8.24,0 12.35,4.11 12.35,12.34l0 602.55c0,8.23 -4.11,12.35 -12.35,12.35l-93.83 0zm654.39 -850.73c0,-8.23 4.12,-12.34 12.35,-12.34l93.84 0c8.23,0 12.35,4.11 12.35,12.34l0 839.61c0,8.23 -4.12,12.35 -12.35,12.35l-93.84 0c-8.23,0 -12.35,-4.12 -12.35,-12.35l0 -40.74c0,-1.65 -0.62,-2.88 -1.85,-3.71 -1.23,-0.82 -2.68,-0.41 -4.32,1.24 -18.11,20.58 -39.51,36.63 -64.21,48.15 -24.69,11.53 -51.44,17.29 -80.25,17.29 -59.27,0 -108.45,-14.61 -147.55,-43.83 -39.1,-29.23 -67.71,-70.59 -85.82,-124.09 -15.64,-43.63 -23.46,-96.31 -23.46,-158.05 0,-57.62 6.59,-107.42 19.76,-149.4 17.29,-54.33 45.68,-96.72 85.2,-127.18 39.51,-30.45 90.13,-45.68 151.87,-45.68 27.98,0 54.53,5.56 79.64,16.67 25.1,11.11 46.71,26.96 64.82,47.54 1.64,1.64 3.09,2.05 4.32,1.23 1.23,-0.82 1.85,-2.06 1.85,-3.7l0 -275.35zm-30.87 692.68c18.94,-34.57 28.4,-86.43 28.4,-155.57 0,-69.15 -10.29,-121.83 -30.87,-158.05 -23.87,-41.98 -58.85,-62.97 -104.95,-62.97 -49.39,0 -86.02,19.76 -109.89,59.27 -26.34,41.16 -39.51,95.48 -39.51,162.98 0,63.38 10.29,114.42 30.87,153.11 23.87,45.27 62.97,67.91 117.3,67.91 47.74,0 83.96,-22.23 108.65,-66.68zm551.92 169.16c-60.91,0 -114,-15.44 -159.28,-46.3 -45.27,-30.87 -76.96,-73.88 -95.07,-129.03 -14.82,-44.45 -22.23,-94.66 -22.23,-150.64 0,-58.44 7,-107.83 21,-148.16 18.1,-54.33 49.8,-96.93 95.07,-127.8 45.27,-30.87 99.19,-46.3 161.75,-46.3 59.26,0 110.92,15.43 154.95,46.3 44.04,30.87 75.53,73.06 94.46,126.56 14.82,41.98 22.23,91.37 22.23,148.17 0,57.62 -7.41,108.24 -22.23,151.87 -18.11,55.15 -49.39,98.16 -93.84,129.03 -44.45,30.86 -96.72,46.3 -156.81,46.3zm0 -102.48c32.93,0 61.74,-9.26 86.43,-27.79 24.7,-18.52 42.39,-44.65 53.1,-78.4 9.05,-31.28 13.58,-69.97 13.58,-116.06 0,-46.1 -4.12,-84.38 -12.35,-114.83 -10.7,-33.75 -28.4,-59.89 -53.09,-78.41 -24.7,-18.52 -54.74,-27.78 -90.14,-27.78 -33.75,0 -62.97,9.26 -87.66,27.78 -24.7,18.52 -42.39,44.66 -53.1,78.41 -9.05,28.81 -13.58,67.08 -13.58,114.83 0,47.74 4.53,86.43 13.58,116.06 9.88,33.75 27.37,59.88 52.48,78.4 25.11,18.53 55.36,27.79 90.75,27.79zm621.07 100.01c-49.39,0 -92.81,-7.41 -130.27,-22.23 -37.45,-14.81 -66.47,-35.19 -87.05,-61.12 -20.57,-25.92 -30.86,-54.53 -30.86,-85.81l0 -13.58c0,-8.23 4.11,-12.35 12.34,-12.35l88.9 0c8.24,0 12.35,4.12 12.35,12.35l0 6.17c0,23.05 12.55,43.22 37.66,60.5 25.11,17.29 57,25.93 95.69,25.93 37.04,0 67.09,-8.02 90.14,-24.07 23.04,-16.05 34.57,-36.43 34.57,-61.12 0,-23.87 -10.7,-41.78 -32.11,-53.71 -21.4,-11.94 -55.97,-24.49 -103.71,-37.66 -46.92,-13.17 -86.23,-26.55 -117.92,-40.13 -31.69,-13.58 -58.44,-32.93 -80.25,-58.03 -21.82,-25.11 -32.72,-57.42 -32.72,-96.93 0,-55.15 21.6,-98.98 64.82,-131.49 43.21,-32.52 100.63,-48.78 172.24,-48.78 47.74,0 89.93,7.62 126.56,22.85 36.63,15.22 64.82,36.42 84.58,63.58 19.75,27.17 29.63,57.62 29.63,91.37l0 3.71c0,8.23 -4.11,12.34 -12.35,12.34l-86.43 0c-8.23,0 -12.34,-4.11 -12.34,-12.34l0 -3.71c0,-23.87 -11.73,-43.83 -35.19,-59.88 -23.46,-16.05 -55.36,-24.08 -95.69,-24.08 -36.22,0 -65.65,7 -88.29,20.99 -22.63,14 -33.95,32.93 -33.95,56.8 0,23.87 10.91,41.98 32.72,54.33 21.81,12.34 57,25.52 105.57,39.51 47.74,13.17 87.46,26.13 119.15,38.89 31.69,12.76 58.65,31.69 80.87,56.8 22.23,25.11 33.34,57.83 33.34,98.16 0,55.97 -22.02,100.42 -66.06,133.35 -44.04,32.93 -102.68,49.39 -175.94,49.39z"
   id="path22" />
  <g
   id="_2387569396800">
   <path
   class="fil3"
   d="M4527.95 9321.99c-1213.2,-1213.19 -2817.1,-1893.66 -4527.95,-1924.09l0 137.6c3493.63,64.28 6316,2925.77 6316,6434.51 0,3508.71 -2822.37,6370.2 -6316,6434.48l0 137.61c1710.89,-30.43 3314.75,-710.91 4527.95,-1924.13 1241.53,-1241.5 1925.28,-2892.22 1925.28,-4647.96 0,-1755.81 -683.75,-3406.49 -1925.28,-4648.02z"
   id="path23" />
  </g>
  <g
   id="_2387569382304">
   <path
   class="fil3"
   d="M4955.85 8618.11c-33.76,0 -61.45,-26.96 -62.16,-60.86 -0.74,-34.29 26.53,-62.76 60.82,-63.5 39.97,-0.84 80.01,-1.27 120.16,-1.27 34.36,0 65.08,27.87 65.08,62.23 0,34.33 -24.9,62.2 -59.26,62.2 -0.67,0 -7.09,-0.07 -7.76,-0.07 -37.33,0 -76.45,0.42 -115.54,1.27l-1.34 0zm-4955.85 7414.32l0 -211.97c27.38,-3 54.58,12.79 64.87,39.89 14.57,38.63 29.56,76.94 44.98,115.04 12.87,31.82 -2.47,68.09 -34.29,80.97 -7.66,3.07 -15.56,4.55 -23.32,4.55 -20.84,0 -40.72,-10.51 -52.24,-28.48zm0 -3819.36l0 -232.13c11.23,-2.34 23.24,-1.6 34.74,2.81 32.14,12.2 48.23,48.08 36.02,80.18 -14.57,38.39 -28.79,76.95 -42.58,115.75 -5.27,14.76 -15.52,26.3 -28.18,33.39zm5516.24 -3578.52c-1.7,0 -3.32,-0.04 -5.08,-0.18 -40.82,-3.32 -81.78,-6.14 -122.91,-8.54 -34.22,-2.01 -60.4,-31.39 -58.38,-65.72 2.01,-34.22 29.98,-60.08 65.68,-58.38 41.95,2.43 83.89,5.32 125.7,8.67 34.18,2.79 59.65,32.78 56.94,67.03 -2.69,32.49 -29.88,57.12 -61.95,57.12zm-995.65 10.26c-31.54,0 -58.52,-23.85 -61.8,-55.91 -3.46,-34.12 21.41,-64.67 55.59,-68.12 41.74,-4.24 83.54,-7.94 125.52,-11.29 35.28,-2.37 64.17,22.89 66.89,57.08 2.68,34.22 -22.9,64.17 -57.08,66.88 -41.1,3.25 -81.95,6.95 -122.8,11.08 -2.15,0.18 -4.27,0.28 -6.32,0.28zm1428.44 42.19c-3.29,0 -6.6,-0.24 -9.95,-0.77 -40.5,-6.56 -81.11,-12.7 -121.85,-18.35 -34.08,-4.65 -57.82,-36.05 -53.06,-70.06 4.66,-34.01 35.49,-58.1 70.06,-53.06 41.7,5.75 83.29,12.03 124.64,18.7 33.94,5.47 56.94,37.4 51.47,71.3 -4.91,30.51 -31.33,52.24 -61.31,52.24zm-1859.88 19.34c-29.39,0 -55.57,-20.96 -61.11,-50.91 -6.24,-33.72 16.09,-66.18 49.85,-72.42 41.24,-7.59 82.66,-14.75 124.29,-21.38 34.07,-5.68 65.75,17.74 71.19,51.61 5.39,33.9 -17.68,65.76 -51.61,71.15 -40.57,6.53 -81,13.44 -121.25,20.89 -3.85,0.74 -7.59,1.06 -11.36,1.06zm2287.09 67.94c-5.01,0 -9.98,-0.63 -15.03,-1.83 -39.76,-9.85 -79.69,-19.19 -119.91,-28.12 -33.51,-7.48 -54.64,-40.67 -47.23,-74.19 7.54,-33.51 41.13,-54.33 74.22,-47.24 41.13,9.18 82.06,18.77 122.8,28.83 33.34,8.25 53.69,41.98 45.44,75.31 -6.99,28.3 -32.39,47.24 -60.29,47.24zm-2712.47 28.08c-27.45,0 -52.53,-18.27 -59.98,-46 -8.92,-33.23 10.73,-67.27 43.89,-76.2 40.5,-10.86 81.17,-21.31 122.1,-31.33 32.84,-8.07 66.95,12.21 75.17,45.65 8.12,33.34 -12.27,66.96 -45.68,75.18 -39.94,9.77 -79.76,19.97 -119.28,30.59 -5.43,1.44 -10.9,2.11 -16.22,2.11zm3131.08 93.38c-6.57,0 -13.16,-1.02 -19.72,-3.21 -38.88,-12.98 -77.97,-25.61 -117.23,-37.71 -32.81,-10.12 -51.19,-44.91 -41.14,-77.75 10.09,-32.84 44.52,-51.26 77.79,-41.1 40.25,12.42 80.22,25.29 120.05,38.66 32.53,10.94 50.13,46.15 39.19,78.67 -8.67,26.07 -32.94,42.44 -58.94,42.44zm-3547.47 37.12c-25.5,0 -49.49,-15.84 -58.52,-41.24 -11.61,-32.35 5.29,-67.91 37.57,-79.49 39.65,-14.18 79.48,-27.9 119.55,-41.27 32.53,-10.62 67.77,6.81 78.64,39.41 10.79,32.56 -6.81,67.76 -39.41,78.63 -39.12,12.98 -78.1,26.46 -116.87,40.32 -6.92,2.47 -14.04,3.64 -20.96,3.64zm3954.57 117.79c-8.18,0 -16.51,-1.59 -24.48,-5.05 -37.5,-16.01 -75.32,-31.68 -113.28,-46.88 -31.89,-12.74 -47.41,-48.93 -34.68,-80.79 12.7,-31.99 48.83,-47.48 80.82,-34.68 38.92,15.53 77.58,31.58 116.1,48.09 31.58,13.47 46.18,50.02 32.67,81.6 -10.09,23.56 -33.05,37.71 -57.15,37.71zm-4359.49 46.21c-23.74,0 -46.32,-13.62 -56.69,-36.62 -14.14,-31.29 -0.24,-68.12 31.08,-82.23 38.39,-17.29 76.87,-34.22 115.68,-50.73 31.61,-13.55 68.05,1.2 81.53,32.85 13.47,31.57 -1.27,68.12 -32.85,81.52 -37.96,16.16 -75.7,32.74 -113.24,49.67 -8.33,3.78 -17,5.54 -25.51,5.54zm4752.31 140.9c-9.77,0 -19.65,-2.29 -28.96,-7.16 -36.13,-19.05 -72.53,-37.75 -109.29,-55.99 -30.7,-15.27 -43.29,-52.56 -27.98,-83.36 15.31,-30.72 52.53,-43.35 83.36,-27.97 37.57,18.69 74.86,37.74 111.97,57.32 30.34,16.02 42.02,53.59 25.97,84 -11.15,21.13 -32.7,33.16 -55.07,33.16zm-5142.51 55.25c-21.91,0 -43.18,-11.57 -54.54,-32.11 -16.55,-30.12 -5.65,-67.87 24.41,-84.52 36.79,-20.29 73.84,-40.25 111.05,-59.8 30.48,-16.08 68.02,-4.3 83.93,26.11 16.02,30.37 4.3,67.94 -26.11,83.89 -36.51,19.19 -72.7,38.8 -108.76,58.74 -9.52,5.22 -19.86,7.69 -29.98,7.69zm5519.28 163.01c-11.43,0 -22.97,-3.13 -33.31,-9.7 -34.6,-21.9 -69.42,-43.46 -104.52,-64.66 -29.39,-17.71 -38.88,-55.99 -21.14,-85.37 17.78,-29.42 55.99,-38.91 85.38,-21.13 35.91,21.69 71.61,43.74 106.96,66.25 29.03,18.38 37.57,56.83 19.12,85.79 -11.82,18.63 -31.93,28.82 -52.49,28.82zm-5892.06 63.89c-20.11,0 -39.83,-9.7 -51.86,-27.76 -19.02,-28.58 -11.26,-67.2 17.36,-86.18 35.03,-23.29 70.3,-46.18 105.9,-68.69 29.17,-18.27 67.45,-9.6 85.76,19.37 18.34,29.03 9.67,67.38 -19.37,85.79 -34.71,21.91 -69.25,44.31 -103.43,67.1 -10.59,7.02 -22.55,10.37 -34.36,10.37zm6250.34 184.01c-13.02,0 -26.11,-4.06 -37.36,-12.49 -32.78,-24.66 -65.76,-49 -99.13,-72.92 -27.87,-20.03 -34.33,-58.87 -14.29,-86.74 19.97,-27.94 58.77,-34.4 86.78,-14.29 34.12,24.52 67.91,49.35 101.43,74.61 27.44,20.64 32.91,59.62 12.27,87.07 -12.2,16.22 -30.83,24.76 -49.7,24.76zm-6603.65 72.04c-18.42,0 -36.62,-8.15 -48.9,-23.71 -21.23,-26.99 -16.61,-66.04 10.34,-87.27 33.02,-26 66.36,-51.69 100.05,-76.95 27.37,-20.56 66.36,-15.13 86.99,12.46 20.68,27.44 15.07,66.43 -12.41,86.99 -32.85,24.66 -65.48,49.74 -97.65,75.11 -11.4,8.99 -25.01,13.37 -38.42,13.37zm6941.04 203.98c-14.71,0 -29.45,-5.16 -41.31,-15.67 -30.65,-27.23 -61.66,-54.15 -92.99,-80.68 -26.17,-22.15 -29.46,-61.38 -7.23,-87.59 22.08,-26.18 61.24,-29.53 87.59,-7.24 32.07,27.13 63.82,54.65 95.22,82.52 25.68,22.82 27.97,62.09 5.22,87.77 -12.35,13.86 -29.39,20.89 -46.5,20.89zm-7272.62 79.44c-16.68,0 -33.33,-6.7 -45.61,-19.93 -23.35,-25.19 -21.84,-64.52 3.35,-87.84 30.83,-28.54 61.95,-56.73 93.38,-84.6 25.58,-22.82 64.91,-20.57 87.74,5.29 22.75,25.68 20.46,64.98 -5.29,87.74 -30.73,27.27 -61.21,54.82 -91.3,82.76 -11.96,11.11 -27.13,16.58 -42.27,16.58zm7586.88 222.67c-16.34,0 -32.6,-6.35 -44.8,-19.05 -28.51,-29.63 -57.26,-58.95 -86.4,-87.91 -24.31,-24.27 -24.41,-63.64 -0.21,-87.98 24.23,-24.17 63.64,-24.41 87.98,-0.18 29.78,29.71 59.13,59.62 88.23,89.86 23.81,24.76 23,64.13 -1.69,87.91 -12.1,11.6 -27.62,17.35 -43.11,17.35zm-7894.53 86.22c-15.03,0 -30.17,-5.39 -42.05,-16.44 -25.33,-23.24 -26.92,-62.54 -3.67,-87.8 28.43,-30.91 57.22,-61.42 86.29,-91.73 23.74,-24.76 63.07,-25.57 87.91,-1.69 24.73,23.78 25.5,63.15 1.69,87.91 -28.47,29.57 -56.62,59.48 -84.45,89.72 -12.21,13.29 -28.97,20.03 -45.72,20.03zm8183.84 240.28c-18.06,0 -35.95,-7.8 -48.22,-22.82 -26,-31.83 -52.32,-63.4 -79.1,-94.69 -22.29,-26.11 -19.19,-65.3 6.92,-87.67 26.03,-22.15 65.26,-19.22 87.66,6.92 27.27,32 54.23,64.2 80.82,96.73 21.74,26.6 17.78,65.76 -8.81,87.49 -11.54,9.42 -25.51,14.04 -39.27,14.04zm-8465.78 92.15c-13.37,0 -26.92,-4.31 -38.28,-13.23 -26.99,-21.14 -31.79,-60.22 -10.62,-87.25 25.82,-33.02 52.04,-65.82 78.64,-98.31 21.66,-26.46 60.78,-30.52 87.48,-8.68 26.53,21.73 30.48,60.92 8.68,87.49 -25.96,31.78 -51.61,63.81 -76.9,96.13 -12.28,15.66 -30.55,23.85 -49,23.85zm8728 256.46c-19.72,0 -39.16,-9.41 -51.26,-26.88 -23.32,-33.83 -47.09,-67.34 -71.19,-100.61 -20.18,-27.76 -13.97,-66.67 13.83,-86.82 27.69,-20.21 66.61,-13.97 86.82,13.83 24.69,34.01 49,68.37 72.92,103.05 19.47,28.22 12.38,66.95 -15.91,86.43 -10.76,7.41 -23.07,11 -35.21,11zm-8982.36 97.34c-11.71,0 -23.6,-3.36 -34.11,-10.27 -28.65,-18.87 -36.62,-57.43 -17.74,-86.08 23.07,-35.1 46.63,-69.88 70.55,-104.31 19.44,-28.26 58.17,-35.42 86.54,-15.67 28.15,19.55 35.2,58.28 15.66,86.5 -23.39,33.66 -46.32,67.6 -68.93,101.82 -11.96,18.16 -31.75,28.01 -51.97,28.01zm9215.86 271.46c-21.48,0 -42.36,-11.11 -53.9,-31.08 -20.6,-35.67 -41.59,-70.98 -62.97,-106.15 -17.85,-29.32 -8.5,-67.56 20.81,-85.41 29.46,-17.81 67.67,-8.5 85.45,20.81 21.87,35.88 43.35,72.08 64.41,108.55 17.18,29.74 6.99,67.77 -22.75,84.95 -9.81,5.65 -20.46,8.33 -31.05,8.33zm-9440.75 101.39c-10.13,0 -20.39,-2.51 -29.85,-7.66 -30.12,-16.58 -41.13,-54.33 -24.59,-84.45 20.22,-36.8 40.86,-73.28 61.85,-109.54 17.18,-29.63 55.14,-39.94 85.02,-22.58 29.66,17.25 39.82,55.25 22.57,85.02 -20.53,35.38 -40.67,71.02 -60.39,106.96 -11.36,20.57 -32.63,32.25 -54.61,32.25zm9643.78 285.18c-23.32,0 -45.58,-13.12 -56.2,-35.52 -17.67,-37.22 -35.7,-74.12 -54.22,-110.81 -15.49,-30.66 -3.18,-68.05 27.44,-83.54 30.59,-15.63 67.99,-3.17 83.54,27.45 19.02,37.64 37.5,75.53 55.57,113.59 14.74,31.01 1.51,68.12 -29.53,82.8 -8.61,4.09 -17.68,6.03 -26.6,6.03zm-9837.81 104.32c-8.5,0 -17.14,-1.76 -25.44,-5.47 -31.32,-14.11 -45.29,-50.9 -31.22,-82.23 17.18,-38.24 34.75,-76.24 52.78,-113.95 14.68,-31.04 51.72,-44.27 82.8,-29.39 31.04,14.75 44.2,51.86 29.38,82.8 -17.53,37.01 -34.71,74.16 -51.54,111.55 -10.37,23 -33.02,36.69 -56.76,36.69zm10008.98 297.6c-25.09,0 -48.76,-15.27 -58.18,-40.18 -14.57,-38.49 -29.63,-76.8 -45.12,-114.93 -12.91,-31.75 2.44,-68.05 34.26,-81 31.57,-12.74 68.01,2.36 81,34.25 15.83,38.98 31.25,78.25 46.21,117.72 12.13,32.07 -4.09,67.99 -36.2,80.16 -7.23,2.71 -14.64,3.98 -21.97,3.98zm137.93 414.27c-27.02,0 -51.82,-17.67 -59.72,-44.94 -11.43,-39.45 -23.22,-78.82 -35.53,-117.97 -10.26,-32.78 7.94,-67.7 40.68,-77.93 32.98,-10.41 67.77,8.01 77.96,40.67 12.56,40.11 24.7,80.33 36.37,120.76 9.53,32.95 -9.52,67.45 -42.51,76.98 -5.75,1.65 -11.53,2.43 -17.25,2.43zm103.65 423.54c-28.96,0 -54.89,-20.32 -60.89,-49.84 -8.15,-40.33 -16.69,-80.4 -25.82,-120.34 -7.62,-33.51 13.3,-66.78 46.77,-74.43 33.52,-7.83 66.86,13.16 74.44,46.74 9.35,40.92 18.13,82.09 26.53,123.37 6.81,33.65 -14.99,66.43 -48.65,73.3 -4.13,0.85 -8.32,1.2 -12.38,1.2zm69.14 430.43c-31.08,0 -57.89,-23.25 -61.66,-54.82 -4.87,-40.89 -10.2,-81.57 -16.05,-122.1 -4.84,-33.94 18.76,-65.48 52.77,-70.38 33.87,-4.97 65.41,18.77 70.38,52.74 5.93,41.56 11.4,83.19 16.37,125.03 4.09,34.11 -20.25,65.01 -54.4,69.11 -2.47,0.28 -4.97,0.42 -7.41,0.42zm34.4 434.59c-33.23,0 -60.71,-26.22 -62.06,-59.73 -1.65,-41.1 -3.7,-82.16 -6.2,-123.08 -2.12,-34.29 23.98,-63.75 58.24,-65.87 35.07,-0.63 63.78,23.99 65.86,58.21 2.61,41.91 4.66,83.79 6.32,125.87 1.34,34.29 -25.37,63.22 -59.69,64.52 -0.78,0.08 -1.62,0.08 -2.47,0.08zm-0.14 435.89c-0.85,0 -1.7,0 -2.54,-0.07 -34.33,-1.34 -61.03,-30.24 -59.62,-64.6 1.62,-40.88 2.78,-81.91 3.53,-122.94 0.6,-34.32 29.06,-61.45 63.25,-61.1 34.29,0.6 61.7,28.96 61.06,63.29 -0.7,42.01 -1.97,83.89 -3.63,125.73 -1.34,33.44 -28.89,59.69 -62.05,59.69zm-34.79 434.51c-2.5,0 -4.97,-0.1 -7.51,-0.42 -34.08,-4.13 -58.35,-35.14 -54.29,-69.21 4.9,-40.68 9.42,-81.46 13.37,-122.38 3.24,-34.15 32.77,-58.78 67.87,-55.88 34.19,3.28 59.2,33.69 55.85,67.87 -4.06,41.91 -8.58,83.68 -13.59,125.34 -3.84,31.58 -30.69,54.68 -61.7,54.68zm-69.71 430.36c-4.12,0 -8.25,-0.43 -12.45,-1.27 -33.62,-6.81 -55.35,-39.65 -48.51,-73.27 8.15,-40.22 15.91,-80.51 23.22,-121.08 6.17,-33.76 38.41,-56.27 72.25,-50.16 33.79,6.14 56.19,38.52 50.13,72.25 -7.52,41.41 -15.42,82.72 -23.78,123.75 -5.96,29.46 -31.89,49.78 -60.86,49.78zm-104.31 423.37c-5.68,0 -11.54,-0.78 -17.29,-2.44 -32.98,-9.59 -51.96,-44.06 -42.44,-77.04 11.4,-39.34 22.4,-78.85 32.92,-118.64 8.78,-33.27 43.28,-52.81 75.95,-44.24 33.2,8.75 52.99,42.79 44.24,75.95 -10.73,40.75 -21.98,81.25 -33.62,121.53 -7.9,27.2 -32.74,44.88 -59.76,44.88zm-138.11 413.52c-7.34,0 -14.82,-1.27 -22.12,-4.05 -32.11,-12.21 -48.19,-48.09 -35.99,-80.19 14.57,-38.31 28.72,-76.84 42.37,-115.61 11.43,-32.42 47.06,-49.17 79.31,-38.03 32.42,11.43 49.42,46.96 37.99,79.31 -14,39.76 -28.54,79.23 -43.46,118.53 -9.42,24.8 -33.02,40.04 -58.1,40.04zm-170.85 400.12c-8.93,0 -18.03,-1.94 -26.67,-6.06 -31.01,-14.75 -44.21,-51.86 -29.39,-82.8 17.57,-36.94 34.68,-74.01 51.36,-111.44 13.87,-31.33 50.49,-45.58 82.09,-31.44 31.33,13.97 45.48,50.7 31.47,82.09 -17.07,38.39 -34.68,76.45 -52.7,114.2 -10.62,22.4 -32.92,35.45 -56.16,35.45zm-9735.65 103.83c-22.82,0 -44.77,-12.56 -55.67,-34.29 -18.83,-37.65 -37.29,-75.46 -55.31,-113.49 -14.75,-31.01 -1.52,-68.12 29.49,-82.8 31.08,-14.78 68.12,-1.52 82.83,29.49 17.68,37.29 35.74,74.26 54.22,111.06 15.35,30.72 2.9,68.05 -27.76,83.46 -9,4.45 -18.45,6.57 -27.8,6.57zm9532.97 281.48c-10.54,0 -21.3,-2.68 -31.15,-8.36 -29.7,-17.25 -39.82,-55.28 -22.57,-85.02 20.53,-35.35 40.6,-71.05 60.29,-106.97 16.44,-30.12 54.25,-41.24 84.38,-24.65 30.13,16.43 41.17,54.25 24.66,84.38 -20.18,36.79 -40.75,73.34 -61.74,109.64 -11.53,19.86 -32.45,30.98 -53.87,30.98zm-9321.44 100.47c-20.99,0 -41.45,-10.62 -53.2,-29.85 -21.84,-35.87 -43.29,-72.14 -64.35,-108.62 -17.18,-29.77 -6.98,-67.77 22.79,-84.95 29.6,-17.18 67.73,-7.09 84.91,22.76 20.61,35.66 41.53,71.05 62.91,106.22 17.85,29.32 8.5,67.56 -20.82,85.41 -10.09,6.14 -21.24,9.03 -32.24,9.03zm9088.36 267.4c-12.2,0 -24.48,-3.56 -35.27,-10.97 -28.23,-19.58 -35.35,-58.24 -15.84,-86.53 23.32,-33.77 46.25,-67.7 68.82,-101.99 18.95,-28.61 57.51,-36.55 86.12,-17.75 28.64,18.88 36.62,57.44 17.71,86.12 -23.08,35.03 -46.5,69.81 -70.31,104.28 -12.07,17.49 -31.51,26.84 -51.23,26.84zm-8846.89 96.1c-19.26,0 -38.27,-8.89 -50.41,-25.68 -24.69,-34.12 -48.93,-68.41 -72.85,-103.08 -19.47,-28.23 -12.38,-66.96 15.91,-86.47 28.16,-19.47 66.93,-12.31 86.47,15.91 23.32,33.83 47.06,67.42 71.15,100.68 20.15,27.8 13.97,66.71 -13.86,86.82 -11.04,8.01 -23.78,11.82 -36.41,11.82zm8584.89 252.1c-13.76,0 -27.73,-4.59 -39.27,-14.01 -26.6,-21.73 -30.55,-60.89 -8.82,-87.49 25.93,-31.75 51.54,-63.82 76.8,-96.17 21.1,-27.09 60.12,-31.96 87.28,-10.76 27.06,21.14 31.86,60.22 10.72,87.25 -25.85,33.09 -51.96,65.86 -78.49,98.35 -12.28,15.06 -30.16,22.83 -48.22,22.83zm-8315.15 90.76c-17.54,0 -34.96,-7.4 -47.27,-21.8 -27.27,-31.92 -54.23,-64.2 -80.83,-96.83 -21.66,-26.57 -17.67,-65.76 8.93,-87.49 26.7,-21.73 65.83,-17.61 87.49,8.92 26,31.89 52.35,63.47 78.99,94.65 22.29,26.14 19.19,65.41 -6.92,87.7 -11.71,9.95 -26.03,14.85 -40.39,14.85zm8026.15 235.41c-15.49,0 -31.01,-5.78 -43.11,-17.35 -24.69,-23.82 -25.5,-63.15 -1.69,-87.92 28.4,-29.59 56.51,-59.51 84.21,-89.74 23.21,-25.26 62.47,-27.02 87.84,-3.85 25.33,23.22 27.02,62.55 3.84,87.88 -28.43,30.97 -57.15,61.63 -86.29,91.9 -12.2,12.7 -28.47,19.08 -44.8,19.08zm-7729.89 84.56c-15.87,0 -31.78,-5.99 -43.92,-18.09 -29.74,-29.67 -59.2,-59.73 -88.27,-90.1 -23.74,-24.77 -22.89,-64.17 1.94,-87.91 24.7,-23.68 64,-22.9 87.92,1.94 28.36,29.63 57.08,58.98 86.22,87.91 24.27,24.3 24.41,63.64 0.17,87.98 -12.2,12.17 -28.11,18.27 -44.06,18.27zm7415.46 217.67c-17.15,0 -34.25,-7.02 -46.53,-20.92 -22.76,-25.68 -20.46,-64.98 5.29,-87.74 30.73,-27.27 61.14,-54.89 91.19,-82.83 25.09,-23.25 64.42,-21.84 87.92,3.28 23.31,25.19 21.87,64.56 -3.29,87.91 -30.76,28.54 -61.91,56.77 -93.38,84.63 -11.81,10.52 -26.52,15.67 -41.2,15.67zm-7094.71 77.54c-14.29,0 -28.61,-4.87 -40.26,-14.82 -32.06,-27.27 -63.74,-54.75 -95.07,-82.55 -25.68,-22.86 -28.01,-62.12 -5.22,-87.8 22.86,-25.76 62.09,-27.98 87.77,-5.23 30.73,27.31 61.7,54.23 93.03,80.86 26.17,22.23 29.31,61.53 7.09,87.63 -12.31,14.5 -29.81,21.91 -47.34,21.91zm6757.07 198.65c-18.88,0 -37.54,-8.54 -49.75,-24.77 -20.63,-27.44 -15.16,-66.43 12.28,-87.06 32.84,-24.7 65.41,-49.78 97.58,-75.29 27.06,-21.16 66.18,-16.61 87.35,10.27 21.27,26.95 16.65,66.08 -10.23,87.38 -33.06,25.97 -66.33,51.65 -99.91,76.98 -11.15,8.43 -24.34,12.49 -37.32,12.49zm-6413.93 69.85c-12.56,0 -25.26,-3.85 -36.23,-11.71 -34.18,-24.56 -67.94,-49.43 -101.46,-74.76 -27.37,-20.71 -32.77,-59.69 -12.1,-87.13 20.68,-27.38 59.66,-32.85 87.14,-12.07 32.67,24.7 65.69,49 99.02,73.03 27.87,20.03 34.26,58.91 14.15,86.78 -12.13,16.86 -31.18,25.86 -50.52,25.86zm6055.08 178.43c-20.57,0 -40.71,-10.19 -52.56,-28.89 -18.42,-28.96 -9.78,-67.42 19.26,-85.8 34.71,-22.04 69.21,-44.37 103.4,-67.2 28.57,-19.08 67.13,-11.36 86.18,17.22 19.09,28.61 11.36,67.17 -17.21,86.22 -35.04,23.31 -70.28,46.28 -105.84,68.79 -10.33,6.56 -21.87,9.66 -33.23,9.66zm-5691.68 61.56c-11.01,0 -22.05,-2.93 -32.14,-8.99 -35.91,-21.73 -71.51,-43.82 -106.86,-66.29 -28.99,-18.42 -37.57,-56.83 -19.12,-85.8 18.42,-28.96 56.91,-37.46 85.8,-19.12 34.61,21.98 69.46,43.61 104.56,64.84 29.39,17.78 38.81,55.99 20.99,85.38 -11.64,19.29 -32.17,29.98 -53.23,29.98zm5313.86 157.06c-22.34,0 -43.96,-12.07 -55.07,-33.27 -16.02,-30.34 -4.31,-67.94 26.1,-83.89 36.44,-19.19 72.57,-38.73 108.52,-58.7 30.23,-16.83 67.87,-5.86 84.56,24.09 16.72,30.06 5.89,67.88 -24.1,84.57 -36.79,20.46 -73.9,40.49 -111.16,60.04 -9.24,4.87 -19.12,7.16 -28.85,7.16zm-4932.44 52.85c-9.31,0 -18.84,-2.12 -27.69,-6.57 -37.54,-18.69 -74.79,-37.88 -111.83,-57.36 -30.38,-16.05 -42.02,-53.62 -26,-84.03 16.02,-30.37 53.55,-42.02 84.03,-26 36.2,19.12 72.6,37.82 109.29,56.16 30.73,15.31 43.22,52.64 27.87,83.36 -10.86,21.81 -32.84,34.44 -55.67,34.44zm4537.92 134.72c-24.16,0 -47.13,-14.15 -57.18,-37.82 -13.51,-31.57 1.27,-68.12 32.84,-81.56 37.93,-16.16 75.57,-32.77 113.03,-49.78 31.29,-14.21 68.12,-0.31 82.34,30.98 14.15,31.25 0.32,68.12 -30.97,82.3 -38.31,17.39 -76.91,34.4 -115.71,50.91 -7.98,3.38 -16.23,4.97 -24.35,4.97zm-4140.97 43.6c-7.76,0 -15.59,-1.48 -23.25,-4.51 -38.81,-15.66 -77.47,-31.68 -115.92,-48.16 -31.58,-13.47 -46.18,-50.02 -32.67,-81.59 13.48,-31.58 50.17,-46.32 81.6,-32.67 37.6,16.09 75.42,31.75 113.49,47.06 31.82,12.81 47.23,49.07 34.43,80.93 -9.77,24.23 -33.09,38.94 -57.68,38.94zm3732.42 111.41c-26.07,0 -50.34,-16.47 -59.02,-42.58 -10.83,-32.52 6.81,-67.73 39.41,-78.63 39.09,-12.98 78,-26.46 116.7,-40.43 32.35,-11.71 67.94,5.22 79.58,37.46 11.61,32.35 -5.15,67.95 -37.46,79.59 -39.65,14.22 -79.52,28.08 -119.59,41.42 -6.53,2.11 -13.13,3.17 -19.62,3.17zm-3321.68 34.61c-6.07,0 -12.28,-0.92 -18.45,-2.79 -40.15,-12.45 -80.15,-25.4 -119.98,-38.73 -32.56,-11.01 -50.03,-46.22 -39.09,-78.81 10.97,-32.42 46,-49.85 78.81,-39.13 38.84,13.13 77.89,25.69 117.16,37.89 32.81,10.2 51.12,44.98 40.92,77.86 -8.26,26.63 -32.84,43.71 -59.37,43.71zm2902.69 86.47c-27.94,0 -53.38,-19.02 -60.36,-47.38 -8.15,-33.38 12.27,-67.03 45.58,-75.22 39.9,-9.77 79.72,-20.03 119.27,-30.72 32.88,-8.86 67.21,10.62 76.24,43.81 8.92,33.16 -10.69,67.28 -43.82,76.27 -40.5,10.94 -81.17,21.45 -122.06,31.47 -4.97,1.2 -9.95,1.77 -14.85,1.77zm-2481.26 25.85c-4.48,0 -9.11,-0.49 -13.66,-1.51 -41.06,-9.18 -81.98,-18.84 -122.66,-28.93 -33.34,-8.26 -53.66,-41.95 -45.4,-75.28 8.18,-33.34 41.77,-53.41 75.28,-45.41 39.83,9.85 79.77,19.27 119.98,28.3 33.52,7.51 54.58,40.74 47.06,74.26 -6.52,28.89 -32.14,48.57 -60.6,48.57zm2054.01 60.89c-30.02,0 -56.41,-21.73 -61.35,-52.28 -5.47,-33.94 17.6,-65.83 51.51,-71.26 40.6,-6.56 81.1,-13.55 121.35,-21.03 33.41,-6.42 66.18,16.02 72.43,49.85 6.28,33.76 -16.09,66.18 -49.85,72.43 -41.2,7.58 -82.55,14.81 -124.14,21.52 -3.35,0.53 -6.71,0.77 -9.95,0.77zm-1625 16.69c-2.79,0 -5.72,-0.18 -8.57,-0.6 -41.77,-5.75 -83.37,-12.07 -124.78,-18.84 -33.87,-5.5 -56.87,-37.5 -51.37,-71.37 5.47,-33.9 37.12,-57.07 71.41,-51.4 40.46,6.64 80.99,12.85 121.74,18.49 34.01,4.66 57.82,36.05 53.06,70.06 -4.31,31.15 -30.91,53.66 -61.49,53.66zm1192.14 35.28c-32.1,0 -59.3,-24.7 -61.91,-57.26 -2.68,-34.25 22.86,-64.17 57.04,-66.89 41.07,-3.24 81.92,-6.94 122.66,-11.18 33.83,-3.03 64.67,21.31 68.23,55.49 3.53,34.19 -21.31,64.74 -55.49,68.23 -41.7,4.27 -83.54,8.08 -125.56,11.43 -1.69,0.11 -3.31,0.18 -4.97,0.18zm-758.33 7.76c-1.2,0 -2.43,-0.04 -3.7,-0.11 -42.09,-2.43 -83.97,-5.39 -125.73,-8.82 -34.26,-2.82 -59.69,-32.84 -56.91,-67.06 2.86,-34.18 32.78,-59.34 67.1,-56.9 40.78,3.38 81.7,6.24 122.8,8.68 34.26,2.01 60.43,31.39 58.42,65.68 -1.94,33.06 -29.31,58.53 -61.98,58.53zm322.76 9.49l-11.47 -0.07c-34.36,0 -62.19,-27.8 -62.19,-62.16 0,-34.36 27.83,-62.2 62.19,-62.2l12.45 0.07c40.19,0 81.28,-0.49 122.35,-1.37 34.85,0.77 62.76,26.53 63.5,60.82 0.7,34.32 -26.5,62.72 -60.86,63.5 -41.87,0.91 -83.82,1.41 -125.97,1.41z"
   id="path24" />
  </g>
  <g
   id="_2387569384464">
   <path
   class="fil3"
   d="M1.99 8345.02l0 1166.85c2454.56,9.17 4441.65,2001.41 4441.65,4458.12 0,2456.71 -1987.09,4448.95 -4441.65,4458.16l0 1166.81c3106.6,0 5624.97,-2518.37 5624.97,-5624.97 0,-3106.6 -2518.37,-5624.97 -5624.97,-5624.97z"
   id="path25" />
  </g>
  <polygon
   class="fil0"
   points="12466.13,2494.52 13047.4,2494.52 13047.4,2583.17 12804.83,2583.17 12804.83,3191.36 12704.71,3191.36 12704.71,2583.17 12466.13,2583.17 "
   id="polygon25" />
  <path
   class="fil0"
   d="M13366.68 2970.2l-322.26 0c2.33,43.81 17,78.7 44.06,104.6 27.09,25.89 62.02,38.84 104.84,38.84 59.8,0 114.9,-18.59 165.39,-55.78l0 88.66c-27.91,18.59 -55.53,31.89 -82.94,39.86 -27.38,7.97 -59.51,11.96 -96.38,11.96 -50.48,0 -91.3,-10.48 -122.52,-31.4 -31.22,-20.92 -56.2,-49.07 -74.97,-84.42 -18.76,-35.38 -28.15,-76.3 -28.15,-122.8 0,-69.71 19.76,-126.4 59.27,-170.07 39.51,-43.68 90.84,-65.51 153.92,-65.51 60.78,0 109.25,21.27 145.45,63.74 36.19,42.51 54.29,99.49 54.29,170.85l0 11.47zm-320.29 -54.29l230.61 0c-2.29,-36.2 -13.08,-64.1 -32.35,-83.68 -19.26,-19.58 -45.15,-29.39 -77.71,-29.39 -32.53,0 -59.2,9.81 -79.94,29.39 -20.75,19.58 -34.29,47.48 -40.61,83.68z"
   id="path26" />
  <path
   class="fil0"
   d="M13442.39 3158.48l0 -97.61c25.58,17.92 51.72,32.45 78.46,43.56 26.7,11.12 49.21,16.69 67.48,16.69 18.91,0 35.21,-4.66 48.83,-13.93 13.58,-9.32 20.39,-20.43 20.39,-33.38 0,-13.3 -4.38,-24.34 -13.2,-33.12 -8.78,-8.82 -27.79,-21.52 -57,-38.1 -58.46,-32.56 -96.74,-60.36 -114.83,-83.44 -18.1,-23.07 -27.13,-48.22 -27.13,-75.45 0,-35.21 13.69,-63.93 41.06,-86.19 27.41,-22.26 62.69,-33.37 105.87,-33.37 44.84,0 90.8,12.63 137.97,37.85l0 89.68c-53.8,-32.56 -97.79,-48.83 -132.01,-48.83 -17.6,0 -31.78,3.74 -42.58,11.22 -10.79,7.45 -16.19,17.32 -16.19,29.64 0,10.61 4.9,20.74 14.71,30.37 9.77,9.63 26.99,21.24 51.54,34.85l32.39 18.45c76.37,43.15 114.54,90.99 114.54,143.44 0,37.54 -14.67,68.34 -44.06,92.4 -29.39,24.09 -67.17,36.12 -113.31,36.12 -27.24,0 -51.47,-2.93 -72.74,-8.71 -21.24,-5.82 -47.98,-16.55 -80.19,-32.14z"
   id="path27" />
  <path
   class="fil0"
   d="M13793.05 2805.83l170.35 -167.36 0 94.65 144.92 0 0 81.67 -144.92 0 0 224.65c0,52.46 21.73,78.7 65.23,78.7 32.56,0 66.92,-10.97 103.12,-32.88l0 84.67c-34.86,19.58 -72.89,29.39 -114.05,29.39 -41.53,0 -76.06,-12.1 -103.62,-36.37 -8.64,-7.31 -15.76,-15.53 -21.41,-24.63 -5.64,-9.14 -10.37,-21.09 -14.22,-35.88 -3.81,-14.78 -5.71,-42.93 -5.71,-84.42l0 -203.23 -79.69 0 0 -8.96z"
   id="path28" />
  <polygon
   class="fil0"
   points="11442.07,1642.66 11542.97,1642.66 11542.97,2255.65 11860.33,2255.65 11860.33,2347.48 11442.07,2347.48 "
   id="polygon28" />
  <polygon
   class="fil0"
   points="11948.6,1642.66 12348.2,1642.66 12348.2,1732.48 12049.5,1732.48 12049.5,1947.39 12338.11,1947.39 12338.11,2037.7 12049.5,2037.7 12049.5,2256.67 12357.76,2256.67 12357.76,2346.45 11948.6,2346.45 "
   id="polygon29" />
  <path
   class="fil0"
   d="M12846.13 2000.36l236.61 0 0 298.66c-86.78,37.68 -172.86,56.52 -258.3,56.52 -116.7,0 -209.97,-34.05 -279.75,-102.17 -69.78,-68.12 -104.67,-152.12 -104.67,-251.99 0,-105.3 36.12,-192.9 108.44,-262.85 72.32,-69.96 162.98,-104.95 271.96,-104.95 39.68,0 77.36,4.3 112.99,12.87 35.67,8.58 80.72,24.31 135.22,47.17l0 102.9c-84.1,-48.75 -167.5,-73.13 -250.26,-73.13 -77.01,0 -141.92,26.21 -194.73,78.71 -52.81,52.46 -79.2,116.87 -79.2,193.21 0,80.05 26.39,145.49 79.2,196.25 52.81,50.8 120.75,76.2 203.83,76.2 40.36,0 88.62,-9.27 144.78,-27.76l9.6 -3.03 0 -146.79 -135.72 0 0 -89.82z"
   id="path29" />
  <path
   class="fil0"
   d="M14485.3 2184l0 110.99c-74.01,40.36 -159.42,60.54 -256.29,60.54 -78.71,0 -145.49,-15.81 -200.31,-47.42 -54.82,-31.61 -98.21,-75.17 -130.14,-130.67 -31.96,-55.49 -47.94,-115.53 -47.94,-180.09 0,-102.59 36.58,-188.88 109.75,-258.83 73.13,-69.96 163.37,-104.95 270.65,-104.95 74.01,0 156.25,19.36 246.7,58.03l0 108.48c-82.38,-47.1 -162.95,-70.63 -241.65,-70.63 -80.72,0 -147.75,25.47 -201.05,76.41 -53.31,50.98 -79.98,114.8 -79.98,191.49 0,77.33 26.25,140.9 78.71,190.68 52.49,49.81 119.59,74.68 201.33,74.68 85.4,0 168.84,-26.25 250.22,-78.71z"
   id="path30" />
  <polygon
   class="fil0"
   points="15033.71,1642.66 15155.81,1642.66 14895.46,1974.62 14895.46,2347.48 14792.06,2347.48 14792.06,1974.62 14531.71,1642.66 14653.8,1642.66 14842.5,1885.83 "
   id="polygon30" />
  <path
   class="fil0"
   d="M13498.57 1766.83l119.1 263.88c-40.36,22.4 -77.15,33.83 -112.36,33.83 -36.55,0 -74.93,-12.34 -117.3,-36.51l110.56 -261.2zm250.51 555.74l103.93 0 -318.03 -713.29 -71.37 0 -304.83 713.29 104.52 0 87.28 -206.13c47.03,21.52 102.06,36.97 154.59,37l0 0.04 0.14 0 0.14 0 0 -0.04c51.4,-0.03 105.2,-14.81 151.55,-35.63l92.08 204.76z"
   id="path31" />
  <path
   class="fil0"
   d="M15314.9 1683.84c10.48,0 17.53,-4.09 17.53,-12.8 0,-7.73 -6.24,-12.63 -15.17,-12.63l-21.98 0 0 25.43 19.62 0zm-33.3 -37l37.39 0c20.88,0 27.94,13.05 27.94,22.19 0,13.72 -9.74,23.6 -24.16,24.37l0 0.46c7.33,2.54 12.62,9.81 19.68,21.13l10.3 16.48 -16.69 0 -7.47 -13.23c-10.66,-19.05 -14.75,-22.61 -25.19,-22.61l-8.12 0 0 35.84 -13.68 0 0 -84.63zm34.36 -24.56c-36.34,0 -65.58,29.28 -65.58,65.62 0,36.3 29.24,65.76 65.58,65.76 36.4,0 65.86,-29.46 65.86,-65.76 0,-36.34 -29.46,-65.62 -65.86,-65.62zm0 144.36c-43.5,0 -78.57,-35.17 -78.57,-78.74 0,-43.6 35.07,-78.6 78.57,-78.6 43.56,0 78.88,35 78.88,78.6 0,43.57 -35.32,78.74 -78.88,78.74z"
   id="path32" />
  <path
   class="fil4"
   d="M10809.65 1470.71c100.86,-0.63 183.2,80.68 183.84,181.54 0.63,100.93 -80.68,183.2 -181.54,183.83 -100.97,0.64 -183.2,-80.6 -183.84,-181.53 -0.63,-100.86 80.61,-183.2 181.54,-183.84z"
   id="path33" />
  <path
   class="fil2"
   d="M10437.82 1473.08c100.93,-0.63 183.23,80.65 183.87,181.51 0.6,100.96 -80.68,183.2 -181.58,183.83 -100.89,0.64 -183.19,-80.57 -183.83,-181.54 -0.6,-100.86 80.65,-183.16 181.54,-183.8z"
   id="path34" />
  <path
   class="fil2"
   d="M11000.88 1805.24c100.86,-0.64 183.2,80.57 183.84,181.43 0.63,100.9 -80.68,183.23 -181.54,183.87 -100.93,0.6 -183.24,-80.68 -183.87,-181.61 -0.64,-100.86 80.64,-183.06 181.57,-183.69z"
   id="path35" />
  <path
   class="fil4"
   d="M10629.08 1807.56c100.86,-0.63 183.16,80.58 183.76,181.44 0.64,100.89 -80.61,183.23 -181.47,183.86 -100.96,0.6 -183.23,-80.68 -183.86,-181.61 -0.64,-100.85 80.64,-183.05 181.57,-183.69z"
   id="path36" />
  <path
   class="fil5"
   d="M10257.26 1809.89c100.9,-0.63 183.16,80.58 183.8,181.43 0.63,100.9 -80.61,183.24 -181.51,183.87 -100.93,0.6 -183.19,-80.68 -183.83,-181.61 -0.63,-100.86 80.61,-183.05 181.54,-183.69z"
   id="path37" />
  <path
   class="fil0"
   d="M10813.86 2142.01c100.86,-0.63 183.19,80.68 183.83,181.54 0.63,100.89 -80.68,183.2 -181.54,183.83 -100.97,0.64 -183.2,-80.64 -183.83,-181.54 -0.64,-100.86 80.61,-183.19 181.54,-183.83z"
   id="path38" />
  <path
   class="fil6"
   d="M10442.02 2144.34c100.93,-0.64 183.23,80.68 183.87,181.53 0.6,100.9 -80.68,183.2 -181.58,183.84 -100.89,0.63 -183.2,-80.65 -183.83,-181.54 -0.6,-100.86 80.64,-183.2 181.54,-183.83z"
   id="path39" />
 </g>
</svg>
