<?xml version="1.0" encoding="UTF-8" standalone="no"?>
<!-- Created with Inkscape (http://www.inkscape.org/) -->

<svg
   version="1.1"
   id="svg1"
   width="380.0864"
   height="71.784393"
   viewBox="0 0 380.08639 71.784393"
   sodipodi:docname="Logo_MemberOf.pdf"
   xmlns:inkscape="http://www.inkscape.org/namespaces/inkscape"
   xmlns:sodipodi="http://sodipodi.sourceforge.net/DTD/sodipodi-0.dtd"
   xmlns="http://www.w3.org/2000/svg"
   xmlns:svg="http://www.w3.org/2000/svg">
  <defs
     id="defs1">
    <clipPath
       clipPathUnits="userSpaceOnUse"
       id="clipPath4">
      <path
         d="M 0,167 H 472 V 0 H 0 Z"
         transform="translate(-92.270402,-89.262)"
         id="path4" />
    </clipPath>
    <clipPath
       clipPathUnits="userSpaceOnUse"
       id="clipPath6">
      <path
         d="M 0,167 H 472 V 0 H 0 Z"
         transform="translate(-167.0767,-80.881102)"
         id="path6" />
    </clipPath>
    <clipPath
       clipPathUnits="userSpaceOnUse"
       id="clipPath8">
      <path
         d="M 0,167 H 472 V 0 H 0 Z"
         transform="translate(-192.1042,-105.5863)"
         id="path8" />
    </clipPath>
    <clipPath
       clipPathUnits="userSpaceOnUse"
       id="clipPath10">
      <path
         d="M 0,167 H 472 V 0 H 0 Z"
         transform="translate(-122.0455,-99.919402)"
         id="path10" />
    </clipPath>
    <clipPath
       clipPathUnits="userSpaceOnUse"
       id="clipPath12">
      <path
         d="M 0,167 H 472 V 0 H 0 Z"
         transform="translate(-310.56141,-93.120703)"
         id="path12" />
    </clipPath>
    <clipPath
       clipPathUnits="userSpaceOnUse"
       id="clipPath14">
      <path
         d="M 0,167 H 472 V 0 H 0 Z"
         transform="translate(-221.47431,-91.209202)"
         id="path14" />
    </clipPath>
    <clipPath
       clipPathUnits="userSpaceOnUse"
       id="clipPath16">
      <path
         d="M 0,167 H 472 V 0 H 0 Z"
         transform="translate(-237.9274,-78.645202)"
         id="path16" />
    </clipPath>
    <clipPath
       clipPathUnits="userSpaceOnUse"
       id="clipPath18">
      <path
         d="M 0,167 H 472 V 0 H 0 Z"
         transform="translate(-238.82391,-82.995802)"
         id="path18" />
    </clipPath>
    <clipPath
       clipPathUnits="userSpaceOnUse"
       id="clipPath20">
      <path
         d="M 0,167 H 472 V 0 H 0 Z"
         transform="translate(-264.6637,-84.920602)"
         id="path20" />
    </clipPath>
    <clipPath
       clipPathUnits="userSpaceOnUse"
       id="clipPath22">
      <path
         d="M 0,167 H 472 V 0 H 0 Z"
         transform="translate(-274.19551,-84.947002)"
         id="path22" />
    </clipPath>
    <clipPath
       clipPathUnits="userSpaceOnUse"
       id="clipPath24">
      <path
         d="M 0,167 H 472 V 0 H 0 Z"
         transform="translate(-285.86301,-84.920602)"
         id="path24" />
    </clipPath>
    <clipPath
       clipPathUnits="userSpaceOnUse"
       id="clipPath26">
      <path
         d="M 0,167 H 472 V 0 H 0 Z"
         transform="translate(-301.86781,-84.920602)"
         id="path26" />
    </clipPath>
    <clipPath
       clipPathUnits="userSpaceOnUse"
       id="clipPath28">
      <path
         d="M 0,167 H 472 V 0 H 0 Z"
         transform="translate(-34.354401,-126.3264)"
         id="path28" />
    </clipPath>
    <clipPath
       clipPathUnits="userSpaceOnUse"
       id="clipPath30">
      <path
         d="M 0,167 H 472 V 0 H 0 Z"
         transform="translate(-54.931601,-119.489)"
         id="path30" />
    </clipPath>
    <clipPath
       clipPathUnits="userSpaceOnUse"
       id="clipPath32">
      <path
         d="M 0,167 H 472 V 0 H 0 Z"
         transform="translate(-69.858802,-117.4109)"
         id="path32" />
    </clipPath>
    <clipPath
       clipPathUnits="userSpaceOnUse"
       id="clipPath34">
      <path
         d="M 0,167 H 472 V 0 H 0 Z"
         transform="translate(-78.681602,-119.489)"
         id="path34" />
    </clipPath>
    <clipPath
       clipPathUnits="userSpaceOnUse"
       id="clipPath36">
      <path
         d="M 0,167 H 472 V 0 H 0 Z"
         transform="translate(-86.2612,-126.2522)"
         id="path36" />
    </clipPath>
    <clipPath
       clipPathUnits="userSpaceOnUse"
       id="clipPath38">
      <path
         d="M 0,167 H 472 V 0 H 0 Z"
         transform="translate(-103.1088,-117.4109)"
         id="path38" />
    </clipPath>
    <clipPath
       clipPathUnits="userSpaceOnUse"
       id="clipPath40">
      <path
         d="M 0,167 H 472 V 0 H 0 Z"
         transform="translate(-106.7455,-121.8269)"
         id="path40" />
    </clipPath>
    <clipPath
       clipPathUnits="userSpaceOnUse"
       id="clipPath42">
      <path
         d="M 0,167 H 472 V 0 H 0 Z"
         transform="translate(-121.82121,-121.8454)"
         id="path42" />
    </clipPath>
    <clipPath
       clipPathUnits="userSpaceOnUse"
       id="clipPath44">
      <path
         d="M 0,167 H 472 V 0 H 0 Z"
         transform="translate(-128.4174,-121.8269)"
         id="path44" />
    </clipPath>
  </defs>
  <sodipodi:namedview
     id="namedview1"
     pagecolor="#ffffff"
     bordercolor="#000000"
     borderopacity="0.25"
     inkscape:showpageshadow="2"
     inkscape:pageopacity="0.0"
     inkscape:pagecheckerboard="0"
     inkscape:deskcolor="#d1d1d1" />
  <g
     id="layer-MC0"
     inkscape:groupmode="layer"
     inkscape:label="Capa 1"
     transform="translate(-37.591469,-54.108136)">
    <path
       id="path1"
       d="m 0,0 h 4.605 v -27.975 h 14.482 v -4.19 H 0 Z"
       style="fill:#313d74;fill-opacity:1;fill-rule:nonzero;stroke:none"
       transform="matrix(1.3333333,0,0,-1.3333333,37.591467,81.884933)" />
    <path
       id="path2"
       d="M 0,0 H 18.235 V -4.098 H 4.605 v -9.809 h 13.17 v -4.121 H 4.605 v -9.993 h 14.068 v -4.098 H 0 Z"
       style="fill:#313d74;fill-opacity:1;fill-rule:nonzero;stroke:none"
       transform="matrix(1.3333333,0,0,-1.3333333,68.413467,81.884933)" />
    <path
       id="path3"
       d="m 0,0 h 10.798 v -13.63 c -3.96,-1.72 -7.889,-2.579 -11.788,-2.579 -5.326,0 -9.582,1.554 -12.767,4.662 -3.185,3.109 -4.778,6.942 -4.778,11.501 0,4.804 1.65,8.803 4.951,11.996 3.3,3.192 7.436,4.789 12.41,4.789 1.811,0 3.53,-0.196 5.157,-0.587 1.627,-0.392 3.684,-1.109 6.171,-2.153 V 9.302 c -3.838,2.226 -7.644,3.338 -11.42,3.338 -3.515,0 -6.478,-1.197 -8.888,-3.591 -2.41,-2.395 -3.615,-5.334 -3.615,-8.819 0,-3.653 1.205,-6.638 3.615,-8.956 2.41,-2.318 5.511,-3.477 9.302,-3.477 1.842,0 4.045,0.422 6.608,1.266 l 0.438,0.139 v 6.7 H 0 Z"
       style="fill:#313d74;fill-opacity:1;fill-rule:nonzero;stroke:none"
       transform="matrix(1.3333333,0,0,-1.3333333,123.0272,103.65067)"
       clip-path="url(#clipPath4)" />
    <path
       id="path5"
       d="m 0,0 v -5.065 c -3.377,-1.842 -7.276,-2.763 -11.696,-2.763 -3.592,0 -6.639,0.721 -9.141,2.164 -2.502,1.443 -4.482,3.431 -5.94,5.963 -1.459,2.533 -2.188,5.273 -2.188,8.22 0,4.682 1.67,8.619 5.008,11.812 3.339,3.192 7.456,4.789 12.353,4.789 3.377,0 7.13,-0.883 11.259,-2.648 v -4.95 c -3.761,2.149 -7.437,3.223 -11.029,3.223 -3.684,0 -6.742,-1.163 -9.175,-3.488 -2.433,-2.326 -3.65,-5.238 -3.65,-8.738 0,-3.53 1.198,-6.431 3.592,-8.703 2.395,-2.272 5.457,-3.408 9.187,-3.408 3.899,0 7.705,1.197 11.42,3.592"
       style="fill:#313d74;fill-opacity:1;fill-rule:nonzero;stroke:none"
       transform="matrix(1.3333333,0,0,-1.3333333,222.76893,114.8252)"
       clip-path="url(#clipPath6)" />
    <path
       id="path7"
       d="M 0,0 H 5.572 L -6.309,-15.15 v -17.015 h -4.72 V -15.15 L -22.909,0 h 5.572 l 8.611,-11.098 z"
       style="fill:#313d74;fill-opacity:1;fill-rule:nonzero;stroke:none"
       transform="matrix(1.3333333,0,0,-1.3333333,256.13893,81.884933)"
       clip-path="url(#clipPath8)" />
    <path
       id="path9"
       d="m 0,0 5.436,-12.042 c -1.843,-1.023 -3.521,-1.544 -5.128,-1.545 -1.668,10e-4 -3.42,0.564 -5.354,1.668 z m 11.432,-25.362 h 4.743 L 1.661,7.19 h -3.256 l -13.913,-32.552 h 4.771 l 3.983,9.408 c 2.147,-0.983 4.658,-1.688 7.055,-1.69 v 0 h 0.007 0.006 v 0 c 2.345,0.002 4.801,0.677 6.917,1.626 z"
       style="fill:#313d74;fill-opacity:1;fill-rule:nonzero;stroke:none"
       transform="matrix(1.3333333,0,0,-1.3333333,162.72733,89.4408)"
       clip-path="url(#clipPath10)" />
    <path
       id="path11"
       d="m 0,0 c 0.353,0 0.591,0.139 0.591,0.432 0,0.261 -0.21,0.426 -0.512,0.426 h -0.74 V 0 Z m -1.124,1.248 h 1.262 c 0.704,0 0.943,-0.44 0.943,-0.748 0,-0.463 -0.329,-0.796 -0.815,-0.823 V -0.337 C 0.513,-0.424 0.692,-0.669 0.929,-1.051 L 1.277,-1.607 H 0.715 L 0.461,-1.16 c -0.359,0.642 -0.496,0.763 -0.849,0.763 h -0.273 v -1.21 h -0.463 z m 1.159,0.829 c -1.225,0 -2.211,-0.988 -2.211,-2.213 0,-1.225 0.986,-2.219 2.211,-2.219 1.229,0 2.223,0.994 2.223,2.219 0,1.225 -0.994,2.213 -2.223,2.213 m 0,-4.87 c -1.467,0 -2.65,1.186 -2.65,2.657 0,1.47 1.183,2.651 2.65,2.651 1.471,0 2.662,-1.181 2.662,-2.651 0,-1.471 -1.191,-2.657 -2.662,-2.657"
       style="fill:#313d74;fill-opacity:1;fill-rule:nonzero;stroke:none"
       transform="matrix(1.3333333,0,0,-1.3333333,414.08187,98.505733)"
       clip-path="url(#clipPath12)" />
    <path
       id="path13"
       d="M 0,0 H 2.505 V -18.417 H 0.237 l -12.313,14.172 v -14.172 h -2.479 V 0 h 2.136 L 0,-14.291 Z"
       style="fill:#313d74;fill-opacity:1;fill-rule:nonzero;stroke:none"
       transform="matrix(1.3333333,0,0,-1.3333333,295.29907,101.0544)"
       clip-path="url(#clipPath14)" />
    <path
       id="path15"
       d="m 0,0 h -8.53 c 0.062,-1.16 0.451,-2.083 1.167,-2.769 0.716,-0.685 1.641,-1.028 2.775,-1.028 1.582,0 3.041,0.492 4.377,1.477 v -2.347 c -0.738,-0.492 -1.47,-0.844 -2.195,-1.055 -0.725,-0.211 -1.575,-0.316 -2.551,-0.316 -1.336,0 -2.417,0.277 -3.243,0.83 -0.826,0.554 -1.488,1.299 -1.984,2.235 -0.497,0.936 -0.745,2.019 -0.745,3.25 0,1.846 0.523,3.346 1.569,4.502 1.046,1.156 2.404,1.734 4.073,1.734 1.609,0 2.892,-0.563 3.85,-1.688 C -0.479,3.7 0,2.193 0,0.303 Z m -8.477,1.437 h 6.104 C -2.435,2.395 -2.72,3.133 -3.23,3.652 -3.74,4.17 -4.425,4.43 -5.287,4.43 -6.148,4.43 -6.853,4.17 -7.403,3.652 -7.952,3.133 -8.31,2.395 -8.477,1.437"
       style="fill:#313d74;fill-opacity:1;fill-rule:nonzero;stroke:none"
       transform="matrix(1.3333333,0,0,-1.3333333,317.23653,117.8064)"
       clip-path="url(#clipPath16)" />
    <path
       id="path17"
       d="M 0,0 4.509,4.43 V 1.925 H 8.345 V -0.237 H 4.509 v -5.946 c 0,-1.389 0.576,-2.083 1.727,-2.083 0.861,0 1.771,0.29 2.729,0.87 v -2.241 c -0.923,-0.519 -1.929,-0.778 -3.019,-0.778 -1.099,0 -2.013,0.321 -2.742,0.962 C 2.975,-9.259 2.786,-9.042 2.637,-8.8 2.487,-8.558 2.362,-8.242 2.261,-7.851 2.16,-7.46 2.109,-6.715 2.109,-5.616 v 5.379 H 0 Z"
       style="fill:#313d74;fill-opacity:1;fill-rule:nonzero;stroke:none"
       transform="matrix(1.3333333,0,0,-1.3333333,318.43187,112.0056)"
       clip-path="url(#clipPath18)" />
    <path
       id="path19"
       d="m 0,0 h 2.571 l -5.353,-12.34 h -0.751 l -3.599,8.451 -3.533,-8.451 h -0.778 L -16.849,0 h 2.571 L -11.1,-7.356 -8.016,0 h 1.78 l 3.072,-7.356 z"
       style="fill:#313d74;fill-opacity:1;fill-rule:nonzero;stroke:none"
       transform="matrix(1.3333333,0,0,-1.3333333,352.88493,109.4392)"
       clip-path="url(#clipPath20)" />
    <path
       id="path21"
       d="m 0,0 c 1.846,0 3.379,-0.595 4.601,-1.786 1.222,-1.191 1.833,-2.688 1.833,-4.489 0,-1.749 -0.62,-3.202 -1.859,-4.358 -1.24,-1.155 -2.8,-1.733 -4.681,-1.733 -1.819,0 -3.339,0.586 -4.561,1.76 -1.222,1.173 -1.833,2.639 -1.833,4.397 0,1.775 0.618,3.254 1.853,4.436 C -3.412,-0.591 -1.863,0 0,0 m -0.132,-2.162 c -1.151,0 -2.096,-0.378 -2.834,-1.134 -0.739,-0.756 -1.108,-1.718 -1.108,-2.887 0,-1.16 0.378,-2.107 1.134,-2.841 0.756,-0.734 1.727,-1.101 2.914,-1.101 1.177,0 2.142,0.371 2.893,1.114 0.752,0.743 1.128,1.694 1.128,2.854 0,1.152 -0.392,2.105 -1.174,2.861 -0.782,0.756 -1.766,1.134 -2.953,1.134"
       style="fill:#313d74;fill-opacity:1;fill-rule:nonzero;stroke:none"
       transform="matrix(1.3333333,0,0,-1.3333333,365.594,109.404)"
       clip-path="url(#clipPath22)" />
    <path
       id="path23"
       d="m 0,0 v -2.782 l 0.132,0.211 c 1.16,1.872 2.32,2.808 3.48,2.808 0.906,0 1.85,-0.457 2.835,-1.371 L 5.181,-3.243 C 4.346,-2.452 3.573,-2.057 2.861,-2.057 2.087,-2.057 1.417,-2.426 0.85,-3.164 0.283,-3.902 0,-4.777 0,-5.788 v -6.341 H -2.413 V 0 Z"
       style="fill:#313d74;fill-opacity:1;fill-rule:nonzero;stroke:none"
       transform="matrix(1.3333333,0,0,-1.3333333,381.15067,109.4392)"
       clip-path="url(#clipPath24)" />
    <path
       id="path25"
       d="M 0,0 H 2.861 L -2.32,-5.946 3.916,-12.129 H 0.699 l -6.078,6.183 z m -7.884,6.289 h 2.399 v -18.417 h -2.399 z"
       style="fill:#313d74;fill-opacity:1;fill-rule:nonzero;stroke:none"
       transform="matrix(1.3333333,0,0,-1.3333333,402.4904,109.4392)"
       clip-path="url(#clipPath26)" />
    <path
       id="path27"
       d="M 0,0 H 1.308 L 7.106,-13.035 H 5.205 l -1.726,3.841 h -5.511 l -1.633,-3.841 h -1.901 z m 2.718,-7.542 -2.087,4.694 -1.939,-4.694 z"
       style="fill:#313d74;fill-opacity:1;fill-rule:nonzero;stroke:none"
       transform="matrix(1.3333333,0,0,-1.3333333,45.805867,54.231467)"
       clip-path="url(#clipPath28)" />
    <path
       id="path29"
       d="m 0,0 v -6.197 h -1.698 v 4.75 c 0,0.946 -0.127,1.606 -0.38,1.98 -0.254,0.375 -0.696,0.562 -1.327,0.562 -0.352,0 -0.675,-0.081 -0.969,-0.241 C -4.668,0.693 -5.004,0.408 -5.381,0 v -6.197 h -1.688 v 8.535 h 1.688 V 1.215 c 0.86,0.86 1.701,1.29 2.524,1.29 1.082,0 1.92,-0.513 2.514,-1.54 C 0.56,2.004 1.503,2.523 2.486,2.523 3.315,2.523 3.997,2.22 4.532,1.614 5.067,1.008 5.334,0.083 5.334,-1.16 V -6.197 H 3.646 v 5.056 C 3.646,-0.43 3.501,0.114 3.21,0.492 2.919,0.869 2.502,1.058 1.958,1.058 1.259,1.058 0.606,0.705 0,0"
       style="fill:#313d74;fill-opacity:1;fill-rule:nonzero;stroke:none"
       transform="matrix(1.3333333,0,0,-1.3333333,73.242133,63.348)"
       clip-path="url(#clipPath30)" />
    <path
       id="path31"
       d="m 0,0 h -6.002 c 0.043,-0.816 0.317,-1.466 0.821,-1.948 0.504,-0.483 1.155,-0.724 1.952,-0.724 1.114,0 2.14,0.346 3.081,1.039 v -1.651 c -0.52,-0.347 -1.035,-0.594 -1.545,-0.742 -0.51,-0.149 -1.109,-0.223 -1.795,-0.223 -0.94,0 -1.701,0.195 -2.282,0.584 -0.582,0.39 -1.047,0.914 -1.397,1.573 -0.349,0.659 -0.524,1.421 -0.524,2.287 0,1.299 0.368,2.355 1.104,3.168 0.736,0.813 1.692,1.22 2.867,1.22 1.132,0 2.035,-0.396 2.709,-1.187 C -0.337,2.604 0,1.543 0,0.213 Z M -5.965,1.011 H -1.67 C -1.713,1.685 -1.914,2.205 -2.273,2.57 -2.632,2.935 -3.114,3.117 -3.72,3.117 -4.326,3.117 -4.823,2.935 -5.209,2.57 -5.596,2.205 -5.848,1.685 -5.965,1.011"
       style="fill:#313d74;fill-opacity:1;fill-rule:nonzero;stroke:none"
       transform="matrix(1.3333333,0,0,-1.3333333,93.145067,66.1188)"
       clip-path="url(#clipPath32)" />
    <path
       id="path33"
       d="m 0,0 v -6.197 h -1.698 v 4.75 c 0,0.946 -0.127,1.606 -0.38,1.98 -0.254,0.375 -0.696,0.562 -1.327,0.562 -0.352,0 -0.675,-0.081 -0.969,-0.241 C -4.668,0.693 -5.004,0.408 -5.381,0 v -6.197 h -1.688 v 8.535 h 1.688 V 1.215 c 0.86,0.86 1.701,1.29 2.524,1.29 1.082,0 1.92,-0.513 2.514,-1.54 C 0.56,2.004 1.503,2.523 2.486,2.523 3.315,2.523 3.997,2.22 4.532,1.614 5.067,1.008 5.334,0.083 5.334,-1.16 V -6.197 H 3.646 v 5.056 C 3.646,-0.43 3.501,0.114 3.21,0.492 2.919,0.869 2.502,1.058 1.958,1.058 1.259,1.058 0.606,0.705 0,0"
       style="fill:#313d74;fill-opacity:1;fill-rule:nonzero;stroke:none"
       transform="matrix(1.3333333,0,0,-1.3333333,104.9088,63.348)"
       clip-path="url(#clipPath34)" />
    <path
       id="path35"
       d="m 0,0 h 1.688 v -5.038 c 0.73,0.532 1.51,0.798 2.338,0.798 1.083,0 1.967,-0.408 2.654,-1.224 0.686,-0.817 1.029,-1.865 1.029,-3.145 0,-1.373 -0.409,-2.467 -1.229,-3.28 -0.819,-0.813 -1.916,-1.22 -3.289,-1.22 -0.55,0 -1.13,0.059 -1.739,0.176 -0.609,0.118 -1.093,0.266 -1.452,0.446 z m 1.688,-6.652 v -4.62 c 0.576,-0.173 1.166,-0.26 1.772,-0.26 0.749,0 1.36,0.266 1.833,0.798 0.473,0.532 0.709,1.215 0.709,2.05 0,0.848 -0.221,1.537 -0.663,2.069 -0.442,0.532 -1.019,0.798 -1.73,0.798 -0.631,0 -1.271,-0.278 -1.921,-0.835"
       style="fill:#313d74;fill-opacity:1;fill-rule:nonzero;stroke:none"
       transform="matrix(1.3333333,0,0,-1.3333333,115.01493,54.3304)"
       clip-path="url(#clipPath36)" />
    <path
       id="path37"
       d="m 0,0 h -6.002 c 0.043,-0.816 0.317,-1.466 0.821,-1.948 0.504,-0.483 1.155,-0.724 1.952,-0.724 1.114,0 2.14,0.346 3.081,1.039 v -1.651 c -0.52,-0.347 -1.035,-0.594 -1.545,-0.742 -0.51,-0.149 -1.109,-0.223 -1.795,-0.223 -0.94,0 -1.701,0.195 -2.282,0.584 -0.582,0.39 -1.047,0.914 -1.397,1.573 -0.349,0.659 -0.524,1.421 -0.524,2.287 0,1.299 0.368,2.355 1.104,3.168 0.736,0.813 1.692,1.22 2.867,1.22 1.132,0 2.035,-0.396 2.709,-1.187 C -0.337,2.604 0,1.543 0,0.213 Z M -5.965,1.011 H -1.67 C -1.713,1.685 -1.914,2.205 -2.273,2.57 -2.632,2.935 -3.114,3.117 -3.72,3.117 -4.326,3.117 -4.823,2.935 -5.209,2.57 -5.596,2.205 -5.848,1.685 -5.965,1.011"
       style="fill:#313d74;fill-opacity:1;fill-rule:nonzero;stroke:none"
       transform="matrix(1.3333333,0,0,-1.3333333,137.4784,66.1188)"
       clip-path="url(#clipPath38)" />
    <path
       id="path39"
       d="m 0,0 v -1.958 l 0.093,0.149 c 0.816,1.317 1.633,1.976 2.449,1.976 0.637,0 1.302,-0.322 1.995,-0.965 L 3.646,-2.282 c -0.588,0.556 -1.132,0.835 -1.633,0.835 -0.544,0 -1.016,-0.26 -1.415,-0.78 C 0.199,-2.746 0,-3.361 0,-4.073 V -8.535 H -1.698 V 0 Z"
       style="fill:#313d74;fill-opacity:1;fill-rule:nonzero;stroke:none"
       transform="matrix(1.3333333,0,0,-1.3333333,142.32733,60.2308)"
       clip-path="url(#clipPath40)" />
    <path
       id="path41"
       d="m 0,0 c 1.299,0 2.378,-0.419 3.238,-1.257 0.859,-0.838 1.289,-1.891 1.289,-3.159 0,-1.231 -0.436,-2.253 -1.308,-3.066 -0.872,-0.813 -1.97,-1.22 -3.293,-1.22 -1.281,0 -2.35,0.413 -3.21,1.238 -0.86,0.826 -1.29,1.857 -1.29,3.094 0,1.25 0.435,2.29 1.304,3.122 C -2.401,-0.416 -1.311,0 0,0 m -0.093,-1.521 c -0.81,0 -1.475,-0.266 -1.994,-0.798 -0.52,-0.532 -0.78,-1.209 -0.78,-2.032 0,-0.816 0.266,-1.483 0.798,-1.999 0.532,-0.517 1.215,-0.775 2.05,-0.775 0.829,0 1.508,0.261 2.037,0.784 0.529,0.523 0.793,1.192 0.793,2.008 0,0.811 -0.275,1.482 -0.826,2.014 -0.55,0.532 -1.243,0.798 -2.078,0.798"
       style="fill:#313d74;fill-opacity:1;fill-rule:nonzero;stroke:none"
       transform="matrix(1.3333333,0,0,-1.3333333,162.42827,60.206133)"
       clip-path="url(#clipPath42)" />
    <path
       id="path43"
       d="m 0,0 v 0.51 c 0,1.373 0.292,2.397 0.877,3.071 0.584,0.674 1.285,1.011 2.101,1.011 0.353,0 0.77,-0.055 1.252,-0.167 V 2.774 C 3.958,2.873 3.699,2.922 3.451,2.922 2.789,2.922 2.33,2.746 2.074,2.394 1.817,2.041 1.688,1.413 1.688,0.51 V 0 H 3.21 V -1.521 H 1.688 V -8.535 H 0 v 7.014 H -1.225 V 0 Z"
       style="fill:#313d74;fill-opacity:1;fill-rule:nonzero;stroke:none"
       transform="matrix(1.3333333,0,0,-1.3333333,171.2232,60.2308)"
       clip-path="url(#clipPath44)" />
  </g>
</svg>
