<?xml version="1.0" encoding="UTF-8"?>
<!DOCTYPE svg PUBLIC "-//W3C//DTD SVG 1.1//EN" "http://www.w3.org/Graphics/SVG/1.1/DTD/svg11.dtd">
<!-- Creator: CorelDRAW -->
<svg xmlns="http://www.w3.org/2000/svg" xml:space="preserve" width="139.319mm" height="20.0395mm" version="1.1" style="shape-rendering:geometricPrecision; text-rendering:geometricPrecision; image-rendering:optimizeQuality; fill-rule:evenodd; clip-rule:evenodd"
viewBox="0 0 14090.81 2026.81"
 xmlns:xlink="http://www.w3.org/1999/xlink"
 xmlns:xodm="http://www.corel.com/coreldraw/odm/2003">
 <defs>
  <style type="text/css">
   <![CDATA[
    .fil1 {fill:#142446;fill-rule:nonzero}
    .fil2 {fill:#233D6F;fill-rule:nonzero}
    .fil0 {fill:#496C9D;fill-rule:nonzero}
    .fil4 {fill:#82A8DD;fill-rule:nonzero}
    .fil3 {fill:#A0C5FA;fill-rule:nonzero}
   ]]>
  </style>
 </defs>
 <g id="Capa_x0020_1">
  <metadata id="CorelCorpID_0Corel-Layer"/>
  <g id="_2229636752656">
   <path class="fil0" d="M13936.74 448.58c20.2,0 33.79,-7.93 33.79,-24.66 0,-14.92 -12.03,-24.33 -29.26,-24.33l-42.32 0 0 48.99 37.79 0zm-64.18 -71.29l72.03 0c40.28,0 53.92,25.15 53.92,42.74 0,26.41 -18.84,45.46 -46.57,47l0 0.82c14.1,4.96 24.33,18.97 37.9,40.78l19.83 31.72 -32.11 0 -14.45 -25.51c-20.51,-36.64 -28.36,-43.57 -48.53,-43.57l-15.63 0 0 69.08 -26.4 0 0 -163.06zm66.19 -47.38c-69.97,0 -126.35,56.49 -126.35,126.46 0,69.97 56.38,126.77 126.35,126.77 70.18,0 126.98,-56.8 126.98,-126.77 0,-69.97 -56.8,-126.46 -126.98,-126.46zm0 278.27c-83.82,0 -151.36,-67.83 -151.36,-151.81 0,-84 67.54,-151.47 151.36,-151.47 84.03,0 152.07,67.47 152.07,151.47 0,83.99 -68.04,151.81 -152.07,151.81z"/>
   <path class="fil1" d="M1431.71 0.01c196.74,-1.24 357.37,157.39 358.58,354.16 1.24,196.88 -157.39,357.34 -354.12,358.58 -196.92,1.21 -357.38,-157.24 -358.59,-354.12 -1.24,-196.78 157.21,-357.37 354.13,-358.63z"/>
   <path class="fil2" d="M706.36 4.63c196.85,-1.24 357.41,157.31 358.66,354.05 1.21,196.99 -157.34,357.37 -354.2,358.63 -196.85,1.21 -357.34,-157.17 -358.55,-354.16 -1.24,-196.74 157.28,-357.27 354.09,-358.51z"/>
   <path class="fil2" d="M1804.74 652.57c196.74,-1.21 357.37,157.17 358.58,353.91 1.25,196.85 -157.39,357.44 -354.12,358.66 -196.85,1.25 -357.44,-157.34 -358.7,-354.2 -1.21,-196.74 157.39,-357.13 354.24,-358.37z"/>
   <path class="fil1" d="M1079.46 657.1c196.74,-1.21 357.26,157.17 358.51,353.91 1.21,196.85 -157.31,357.45 -354.05,358.67 -196.92,1.24 -357.45,-157.35 -358.7,-354.21 -1.21,-196.74 157.31,-357.12 354.24,-358.37z"/>
   <path class="fil3" d="M354.13 661.64c196.81,-1.24 357.34,157.17 358.55,353.91 1.24,196.85 -157.28,357.44 -354.09,358.66 -196.88,1.25 -357.37,-157.34 -358.58,-354.2 -1.24,-196.74 157.24,-357.16 354.12,-358.37z"/>
   <path class="fil0" d="M1439.89 1309.52c196.74,-1.21 357.37,157.39 358.58,354.12 1.25,196.85 -157.39,357.37 -354.12,358.63 -196.92,1.21 -357.37,-157.35 -358.58,-354.16 -1.24,-196.74 157.2,-357.34 354.12,-358.58z"/>
   <path class="fil4" d="M714.55 1314.05c196.84,-1.24 357.4,157.39 358.66,354.12 1.21,196.85 -157.35,357.38 -354.2,358.63 -196.85,1.21 -357.34,-157.34 -358.55,-354.16 -1.24,-196.74 157.27,-357.33 354.09,-358.58z"/>
   <polygon class="fil0" points="2665.15,325.41 2861.99,325.41 2861.99,1521.16 3481.02,1521.16 3481.02,1700.28 2665.15,1700.28 "/>
   <polygon class="fil0" points="3653.24,325.41 4432.67,325.41 4432.67,500.6 3850.05,500.6 3850.05,919.85 4413.02,919.85 4413.02,1095.99 3850.05,1095.99 3850.05,1523.12 4451.37,1523.12 4451.37,1698.32 3653.24,1698.32 "/>
   <path class="fil0" d="M5404.05 1023.17l461.56 0 0 582.62c-169.26,73.47 -337.21,110.21 -503.87,110.21 -227.68,0 -409.57,-66.43 -545.73,-199.27 -136.13,-132.88 -204.2,-296.72 -204.2,-491.61 0,-205.34 70.55,-376.28 211.59,-512.72 141.08,-136.48 317.88,-204.74 530.45,-204.74 77.43,0 150.93,8.38 220.48,25.12 69.53,16.74 157.46,47.38 263.75,92.02l0 200.77c-164.02,-95.16 -326.73,-142.72 -488.15,-142.72 -150.24,0 -276.87,51.17 -379.89,153.53 -103.01,102.36 -154.49,227.99 -154.49,376.92 0,156.17 51.48,283.77 154.49,382.85 103.01,99.05 235.57,148.62 397.58,148.62 78.75,0 172.91,-18.05 282.49,-54.13l18.69 -5.93 0 -286.37 -264.75 0 0 -175.19z"/>
   <path class="fil0" d="M8601.56 1381.4l0 216.51c-144.32,78.75 -310.99,118.1 -499.95,118.1 -153.53,0 -283.76,-30.83 -390.7,-92.52 -106.97,-61.66 -191.6,-146.6 -253.93,-254.9 -62.3,-108.26 -93.48,-225.36 -93.48,-351.34 0,-200.1 71.36,-368.41 214.04,-504.84 142.72,-136.48 318.69,-204.73 528,-204.73 144.37,0 304.79,37.75 481.26,113.18l0 211.62c-160.74,-91.88 -317.88,-137.79 -471.41,-137.79 -157.46,0 -288.19,49.7 -392.19,149.1 -103.97,99.41 -155.96,223.9 -155.96,373.47 0,150.92 51.16,274.91 153.53,372.04 102.32,97.09 233.24,145.64 392.66,145.64 166.66,0 329.37,-51.17 488.14,-153.53z"/>
   <polygon class="fil0" points="9671.34,325.41 9909.51,325.41 9401.67,972.96 9401.67,1700.28 9199.93,1700.28 9199.93,972.96 8692.1,325.41 8930.26,325.41 9298.34,799.78 "/>
   <path class="fil0" d="M6676.75 612.22l232.35 514.72c-78.78,43.75 -150.5,66.01 -219.22,66.04 -71.25,-0.03 -146.14,-24.11 -228.78,-71.28l215.65 -509.48zm488.64 1084.07l202.74 0 -620.38 -1391.38 -139.18 0 -594.69 1391.38 203.95 0 170.23 -402.12c91.77,41.99 199.1,72.14 301.57,72.21l0 0.04 0.24 0 0.29 0 0 -0.04c100.26,-0.07 205.22,-28.94 295.68,-69.5l179.55 399.41z"/>
   <polygon class="fil0" points="10376.63,304.9 11540.41,304.9 11540.41,482.41 11054.77,482.41 11054.77,1700.07 10854.32,1700.07 10854.32,482.41 10376.63,482.41 "/>
   <path class="fil0" d="M12179.68 1257.27l-645.25 0c4.68,87.78 34.07,157.57 88.28,209.41 54.2,51.88 124.17,77.82 209.91,77.82 119.67,0 230.07,-37.25 331.11,-111.71l0 177.5c-55.84,37.25 -111.21,63.83 -166.05,79.78 -54.85,15.95 -119.17,23.95 -192.97,23.95 -101.04,0 -182.82,-20.95 -245.34,-62.84 -62.47,-41.88 -112.5,-98.23 -150.06,-169.02 -37.57,-70.83 -56.35,-152.74 -56.35,-245.83 0,-139.62 39.54,-253.16 118.68,-340.57 79.1,-87.42 181.82,-131.13 308.13,-131.13 121.67,0 218.73,42.54 291.19,127.63 72.47,85.1 108.72,199.14 108.72,342.07l0 22.94zm-641.24 -108.72l461.74 0c-4.68,-72.47 -26.27,-128.31 -64.83,-167.52 -38.58,-39.21 -90.42,-58.83 -155.57,-58.83 -65.14,0 -118.49,19.62 -160.06,58.83 -41.53,39.21 -68.65,95.05 -81.28,167.52z"/>
   <path class="fil0" d="M12331.26 1634.24l0 -195.45c51.2,35.89 103.54,64.97 157.06,87.23 53.52,22.3 98.55,33.44 135.12,33.44 37.89,0 70.46,-9.32 97.72,-27.95 27.27,-18.62 40.89,-40.89 40.89,-66.79 0,-26.61 -8.81,-48.7 -26.4,-66.33 -17.63,-17.63 -55.7,-43.07 -114.22,-76.28 -116.99,-65.15 -193.59,-120.85 -229.85,-167.05 -36.21,-46.21 -54.33,-96.55 -54.33,-151.07 0,-70.46 27.4,-127.98 82.24,-172.55 54.88,-44.53 125.49,-66.79 211.94,-66.79 89.73,0 181.83,25.25 276.24,75.78l0 179.5c-107.72,-65.15 -195.78,-97.73 -264.28,-97.73 -35.22,0 -63.66,7.46 -85.24,22.44 -21.62,14.96 -32.44,34.72 -32.44,59.34 0,21.27 9.81,41.53 29.44,60.84 19.58,19.27 54.02,42.53 103.18,69.79l64.83 36.9c152.92,86.46 229.39,182.19 229.39,287.23 0,75.11 -29.43,136.79 -88.28,185 -58.83,48.17 -134.44,72.29 -226.85,72.29 -54.53,0 -103.08,-5.82 -145.61,-17.45 -42.57,-11.63 -96.08,-33.07 -160.56,-64.33z"/>
   <path class="fil0" d="M13033.32 928.18l341.07 -335.07 0 189.46 290.18 0 0 163.56 -290.18 0 0 449.74c0,105.09 43.53,157.61 130.62,157.61 65.15,0 133.98,-21.95 206.45,-65.83l0 169.51c-69.83,39.25 -145.94,58.84 -228.4,58.84 -83.1,0 -152.25,-24.26 -207.4,-72.79 -17.31,-14.62 -31.59,-31.08 -42.89,-49.38 -11.31,-18.28 -20.76,-42.22 -28.44,-71.79 -7.63,-29.58 -11.45,-85.92 -11.45,-169.02l0 -406.9 -159.56 0 0 -17.95z"/>
  </g>
 </g>
</svg>
